<svg width="809" height="521" viewBox="0 0 809 521" fill="none" xmlns="http://www.w3.org/2000/svg">
<g filter="url(#filter0_d)">
<path d="M780.087 511.966C786.293 511.977 792.253 509.54 796.674 505.185C801.095 500.83 803.621 494.907 803.703 488.702C804.685 424.541 809.853 329.891 688.994 303.701C591.159 282.585 649.19 108.771 385.82 120.107C196.744 128.164 246.902 287.512 99.9829 300.793C2.14771 309.535 1.3142 433.246 5.07424 489.925C5.46477 495.902 8.11531 501.506 12.4877 505.6C16.8601 509.693 22.6265 511.97 28.6162 511.966H780.087Z" fill="#D5F0FB"/>
<path opacity="0.55" d="M688.995 303.756C591.16 282.585 649.19 108.771 385.82 120.107C340.848 121.959 309.434 132.498 285.67 147.538C293.672 146.483 302.173 145.686 311.231 145.371C574.6 134.128 516.625 307.924 614.424 329.113C733.986 355.045 730.188 447.934 729.151 512.059H780.088C786.309 512.069 792.283 509.619 796.706 505.244C801.13 500.869 803.645 494.923 803.704 488.702C804.685 424.596 809.853 329.947 688.995 303.756Z" fill="#B7DFED"/>
<path d="M572.137 112.698L262.813 76.5979C259.671 76.2312 256.488 76.4871 253.446 77.3508C250.403 78.2145 247.561 79.6692 245.08 81.6318C242.6 83.5944 240.531 86.0264 238.99 88.7889C237.45 91.5514 236.469 94.5903 236.104 97.7319L213.117 295.384C212.751 298.526 213.007 301.709 213.87 304.751C214.734 307.794 216.189 310.637 218.151 313.117C220.114 315.597 222.546 317.667 225.308 319.207C228.071 320.747 231.11 321.728 234.251 322.093L543.575 358.194C546.717 358.56 549.9 358.304 552.942 357.441C555.985 356.577 558.828 355.122 561.308 353.16C563.788 351.197 565.858 348.765 567.398 346.003C568.938 343.24 569.919 340.201 570.285 337.06L593.363 139.315C594.076 132.971 592.241 126.603 588.261 121.612C584.28 116.621 578.48 113.414 572.137 112.698Z" fill="white"/>
<path d="M590.993 158.893L593.271 139.315C593.985 132.985 592.162 126.63 588.201 121.641C584.24 116.653 578.464 113.437 572.137 112.698L262.813 76.5979C259.672 76.2312 256.489 76.4871 253.446 77.3508C250.403 78.2145 247.561 79.6692 245.08 81.6318C242.6 83.5944 240.531 86.0264 238.991 88.7889C237.45 91.5514 236.469 94.5903 236.104 97.7319L233.807 117.31L590.993 158.893Z" fill="#00AAE1"/>
<path d="M283.947 236.946L323.141 167.876C324.368 165.711 326.207 163.956 328.428 162.832C330.65 161.708 333.153 161.266 335.625 161.56C337.278 161.749 338.877 162.262 340.332 163.07C341.786 163.879 343.066 164.966 344.099 166.271C345.131 167.576 345.896 169.071 346.349 170.672C346.802 172.273 346.934 173.948 346.738 175.6L338.588 245.467H338.94C340.099 245.595 341.221 245.953 342.24 246.52C343.259 247.087 344.154 247.852 344.874 248.77C345.593 249.688 346.122 250.74 346.429 251.865C346.737 252.99 346.817 254.164 346.664 255.321C346.39 257.633 345.211 259.742 343.385 261.186C341.559 262.63 339.234 263.292 336.921 263.026H336.569L335.088 275.751C334.945 276.987 334.56 278.183 333.955 279.27C333.35 280.357 332.536 281.314 331.561 282.087C330.585 282.859 329.467 283.432 328.27 283.771C327.073 284.111 325.821 284.212 324.585 284.067C323.349 283.925 322.154 283.54 321.066 282.935C319.979 282.33 319.022 281.516 318.25 280.541C317.477 279.565 316.905 278.447 316.565 277.25C316.225 276.053 316.124 274.801 316.269 273.565L317.751 260.84L289.541 257.543C288.394 257.412 287.283 257.056 286.274 256.495C285.264 255.934 284.375 255.18 283.658 254.275C282.94 253.37 282.408 252.332 282.092 251.221C281.777 250.11 281.683 248.948 281.817 247.8L282.577 241.392C282.711 239.829 283.179 238.314 283.947 236.946ZM319.881 242.114L324.937 198.79C324.945 198.726 324.929 198.662 324.895 198.608C324.86 198.554 324.807 198.514 324.746 198.495C324.685 198.475 324.619 198.477 324.559 198.501C324.5 198.524 324.45 198.568 324.419 198.624L301.266 239.484C301.174 239.65 301.123 239.837 301.12 240.027C301.116 240.217 301.159 240.406 301.245 240.576C301.331 240.745 301.457 240.892 301.612 241.002C301.768 241.112 301.948 241.182 302.136 241.207L318.603 243.059C318.896 243.092 319.19 243.013 319.427 242.838C319.664 242.662 319.826 242.404 319.881 242.114Z" fill="#EA366C"/>
<path d="M456.928 257.172L496.121 188.102C497.353 185.941 499.194 184.191 501.414 183.068C503.633 181.945 506.134 181.499 508.605 181.786C511.94 182.176 514.983 183.874 517.067 186.506C519.151 189.139 520.104 192.491 519.718 195.826L511.513 265.655H511.865C513.008 265.788 514.114 266.146 515.12 266.707C516.125 267.268 517.01 268.021 517.723 268.924C518.437 269.827 518.966 270.862 519.28 271.97C519.594 273.078 519.686 274.236 519.552 275.379C519.421 276.524 519.065 277.632 518.505 278.64C517.945 279.647 517.192 280.534 516.288 281.25C515.385 281.966 514.349 282.496 513.241 282.811C512.132 283.126 510.972 283.219 509.827 283.085H509.475L507.994 295.81C507.697 298.304 506.422 300.579 504.45 302.135C502.477 303.69 499.968 304.4 497.473 304.108C496.238 303.965 495.043 303.58 493.956 302.975C492.87 302.369 491.914 301.556 491.143 300.58C490.372 299.604 489.801 298.486 489.464 297.289C489.126 296.092 489.028 294.84 489.175 293.605L490.657 280.881L462.484 277.547C461.338 277.413 460.23 277.055 459.223 276.494C458.215 275.932 457.328 275.177 456.613 274.272C455.897 273.367 455.367 272.33 455.052 271.22C454.737 270.11 454.645 268.949 454.779 267.804L455.52 261.395C455.713 259.91 456.191 258.476 456.928 257.172ZM492.879 262.34L497.936 219.016C497.943 218.952 497.928 218.888 497.893 218.834C497.859 218.78 497.806 218.74 497.745 218.72C497.684 218.7 497.618 218.703 497.558 218.726C497.498 218.75 497.449 218.793 497.417 218.849L474.264 259.709C474.167 259.875 474.113 260.062 474.107 260.254C474.102 260.446 474.144 260.637 474.23 260.808C474.317 260.979 474.445 261.126 474.603 261.235C474.761 261.344 474.944 261.412 475.135 261.432L491.583 263.284C491.884 263.322 492.188 263.24 492.43 263.057C492.672 262.873 492.834 262.603 492.879 262.303V262.34Z" fill="#EA366C"/>
<path d="M379.171 196.308C381.449 176.803 393.026 166.838 411.844 169.043C430.663 171.247 439.628 183.583 437.368 203.105L429.959 266.544C427.663 286.067 416.086 296.014 397.267 293.828C378.449 291.642 369.484 279.269 371.743 259.747L379.171 196.308ZM390.785 263.21C389.766 271.934 393.211 275.676 399.323 276.398C405.436 277.121 409.64 274.25 410.659 265.526L418.346 199.753C419.365 191.029 415.919 187.269 409.807 186.565C403.695 185.861 399.49 188.713 398.471 197.419L390.785 263.21Z" fill="#EA366C"/>
<path d="M270.37 103.826C270.226 105.101 269.706 106.304 268.877 107.284C268.048 108.264 266.947 108.975 265.714 109.328C264.48 109.682 263.169 109.661 261.947 109.269C260.725 108.876 259.647 108.13 258.85 107.125C258.052 106.12 257.571 104.9 257.467 103.621C257.363 102.342 257.641 101.061 258.266 99.94C258.891 98.8191 259.834 97.9088 260.977 97.3244C262.119 96.74 263.409 96.5079 264.684 96.6574C266.387 96.8572 267.942 97.7237 269.007 99.0672C270.073 100.411 270.563 102.122 270.37 103.826Z" fill="white"/>
<path d="M301.377 107.456C301.225 108.725 300.701 109.92 299.87 110.892C299.04 111.863 297.94 112.566 296.71 112.912C295.48 113.259 294.175 113.233 292.96 112.838C291.744 112.443 290.674 111.696 289.882 110.693C289.091 109.69 288.615 108.474 288.514 107.2C288.413 105.926 288.692 104.651 289.315 103.536C289.939 102.42 290.879 101.515 292.017 100.933C293.155 100.352 294.44 100.121 295.709 100.269C296.553 100.368 297.37 100.632 298.112 101.047C298.854 101.462 299.507 102.019 300.034 102.687C300.56 103.354 300.95 104.119 301.18 104.938C301.411 105.756 301.477 106.612 301.377 107.456Z" fill="#EA366C"/>
<path d="M333.531 111.198C333.384 112.468 332.864 113.665 332.036 114.639C331.208 115.613 330.11 116.319 328.881 116.67C327.652 117.02 326.347 116.998 325.13 116.606C323.914 116.215 322.84 115.471 322.046 114.47C321.252 113.469 320.772 112.254 320.668 110.981C320.563 109.707 320.839 108.431 321.459 107.314C322.08 106.196 323.018 105.288 324.154 104.704C325.291 104.119 326.575 103.885 327.845 104.03C329.548 104.23 331.103 105.096 332.169 106.44C333.234 107.783 333.724 109.494 333.531 111.198Z" fill="#FFB84D"/>
<path d="M209.135 336.429C206.57 348.737 205.402 361.294 205.653 373.863C206.283 390.811 204.264 502.242 204.264 502.242H217.878C217.878 502.242 237.252 414.983 237.974 408.092C238.697 401.202 248.495 332.299 248.495 332.299L209.135 336.429Z" fill="#2271C7"/>
<path d="M218.192 331.354C218.192 331.354 221.323 355.156 226.639 372.104C231.955 389.052 258.127 502.279 258.127 502.279H271.741C271.741 502.279 269.24 415.02 268.295 408.13C267.351 401.239 260.46 332.318 260.46 332.318L218.192 331.354Z" fill="#3789E1"/>
<path d="M259.257 502.242V511.744H285.188C285.508 511.745 285.819 511.643 286.076 511.452C286.333 511.262 286.521 510.994 286.613 510.687C286.705 510.381 286.695 510.053 286.585 509.753C286.475 509.453 286.271 509.196 286.003 509.021C282.299 506.502 276.149 503.02 270.5 502.242H259.257Z" fill="#1F528A"/>
<path d="M204.949 502.242V511.744H230.881C231.202 511.749 231.516 511.65 231.776 511.461C232.036 511.272 232.227 511.004 232.322 510.696C232.416 510.389 232.407 510.059 232.298 509.757C232.188 509.455 231.983 509.197 231.714 509.021C227.917 506.502 221.842 503.02 216.211 502.242H204.949Z" fill="#1F528A"/>
<path d="M251.699 220.61C251.699 220.61 260.609 207.07 250.384 205.792C242.531 204.773 239.271 207.107 239.271 207.107C239.271 207.107 230.232 206.125 225.286 210.404C221.897 213.349 209.431 236.15 229.565 244.392C249.699 252.635 245.42 231.427 245.42 231.427L251.699 220.61Z" fill="#3A668A"/>
<path d="M250.348 205.754C242.494 204.736 239.234 207.07 239.234 207.07C239.234 207.07 230.195 206.088 225.25 210.367C221.86 213.312 209.395 236.113 229.528 244.355C238.993 248.245 243.068 245.633 244.717 241.762C225.62 247.152 223.546 224.129 226.695 217.572C229.843 211.015 237.567 213.997 237.567 213.997C240.586 206.421 250.366 207.255 254.404 207.829C253.913 207.216 253.297 206.714 252.598 206.357C251.899 205.999 251.132 205.794 250.348 205.754Z" fill="#31566C"/>
<path d="M239.234 227.203C239.234 227.203 236.604 224.555 234.622 227.203C232.64 229.852 233.955 235.779 237.252 236.113C237.252 236.113 236.27 244.689 229.658 244.355V251.301H245.179V246.059C245.179 246.059 254.756 242.114 254.441 234.186C254.281 229.567 253.387 225.003 251.792 220.665C248.459 224.193 244.035 226.496 239.234 227.203Z" fill="#DF8B45"/>
<path d="M241.531 248.226C243.068 248.875 242.809 249.838 242.865 251.301H245.106V246.059C245.106 246.059 241.401 247.263 235.845 244.207C237.539 245.811 239.454 247.164 241.531 248.226Z" fill="#D16F28"/>
<path d="M244.791 214.571C244.791 214.571 236.752 211.367 235.807 213.775C235.196 215.349 236.752 216.701 238.901 218.072L237.048 218.368C236.951 218.381 236.86 218.423 236.786 218.488C236.712 218.553 236.659 218.638 236.633 218.733C236.608 218.828 236.611 218.928 236.642 219.021C236.673 219.115 236.73 219.197 236.808 219.257C238.391 219.929 240.113 220.208 241.827 220.072L244.791 214.571Z" fill="#DF8B45"/>
<path d="M302.21 234.705C286.892 223.35 245.013 214.33 245.013 214.33L241.568 220.628C241.568 220.628 279.576 235.446 277.057 237.557C275.593 238.854 257.015 247.355 250.718 250.226C249.362 250.838 247.889 251.141 246.402 251.116L227.157 251.004C222.46 250.776 217.773 251.64 213.466 253.53C209.159 255.42 205.35 258.284 202.337 261.896C192.576 273.139 175.98 299.163 175.98 299.163L203.949 340.282L207.042 344.82V345.154L209.802 345.431C218.785 346.265 247.588 348.543 262.831 345.302L263.257 345.209L262.535 277.751C277.265 266.256 290.721 253.216 302.673 238.854C302.931 238.558 303.125 238.212 303.242 237.837C303.359 237.462 303.397 237.068 303.353 236.677C303.31 236.287 303.185 235.911 302.989 235.571C302.792 235.231 302.527 234.936 302.21 234.705ZM208.302 326.705L205.56 320.741L196.873 301.756L211.302 285.604L208.709 321.037L208.302 326.705Z" fill="#56EEB7"/>
<path d="M205.561 320.741L208.302 326.705L206.968 344.691L206.95 344.746L203.856 340.208L205.561 320.741Z" fill="#42DDB0"/>
<g style="mix-blend-mode:multiply" opacity="0.29">
<path d="M255.904 275.25C253.311 277.103 254.052 293.773 253.33 304.238C252.255 321.705 251.218 336.819 251.977 346.58C255.58 346.385 259.164 345.933 262.702 345.228L263.128 345.135L262.406 277.677C277.136 266.182 290.592 253.142 302.544 238.78C302.798 238.484 302.989 238.139 303.105 237.767C303.22 237.394 303.257 237.001 303.214 236.614C303.17 236.226 303.047 235.851 302.852 235.513C302.657 235.175 302.394 234.881 302.08 234.649C287.933 249.536 272.479 263.124 255.904 275.25Z" fill="#37C1DF"/>
</g>
<path d="M268.314 408.111C267.629 403.129 263.85 365.862 261.813 345.487L252.015 346.58C252.015 346.58 266.295 463.882 267.222 502.261H271.759C271.759 502.261 269.259 415.002 268.314 408.111Z" fill="#2271C7"/>
<path d="M174.61 212.719H175.388V215.497C175.388 216.349 175.647 216.72 176.24 216.72C176.833 216.72 177.036 216.479 177.462 215.942V212.719H178.24V217.275H177.611V216.553C177.448 216.8 177.229 217.005 176.971 217.15C176.713 217.295 176.424 217.376 176.129 217.386C175.147 217.386 174.721 216.757 174.721 215.534L174.61 212.719Z" fill="white"/>
<path d="M181.482 217.627V219.164H180.704V212.719H181.352V213.237C181.743 212.862 182.255 212.639 182.797 212.607C183.982 212.607 184.649 213.515 184.649 214.923C184.649 216.33 183.723 217.386 182.686 217.386C182.217 217.353 181.774 217.164 181.426 216.849L181.482 217.627ZM182.593 216.719C183.352 216.719 183.889 216.034 183.889 214.867C183.889 213.7 183.556 213.2 182.704 213.2C182.234 213.241 181.796 213.459 181.482 213.811V216.201C181.782 216.495 182.174 216.678 182.593 216.719Z" fill="white"/>
<path d="M186.723 216.219C187.089 216.553 187.562 216.744 188.057 216.756C188.668 216.756 188.965 216.442 188.965 216.053C188.965 215.664 188.427 215.386 187.927 215.182C187.427 214.978 186.575 214.645 186.575 213.886C186.575 213.126 187.149 212.589 188.131 212.589C188.648 212.585 189.148 212.77 189.539 213.108L189.187 213.589C188.897 213.341 188.531 213.197 188.15 213.182C187.575 213.182 187.316 213.497 187.316 213.848C187.316 214.2 187.798 214.423 188.316 214.626C188.835 214.83 189.706 215.145 189.706 215.997C189.706 216.849 189.113 217.368 188.039 217.368C187.417 217.352 186.817 217.13 186.334 216.738L186.723 216.219Z" fill="white"/>
<path d="M192.113 216.183C192.27 216.183 192.421 216.245 192.532 216.356C192.643 216.467 192.706 216.618 192.706 216.775C192.706 216.933 192.643 217.083 192.532 217.194C192.421 217.306 192.27 217.368 192.113 217.368C191.956 217.368 191.805 217.306 191.694 217.194C191.583 217.083 191.521 216.933 191.521 216.775C191.521 216.618 191.583 216.467 191.694 216.356C191.805 216.245 191.956 216.183 192.113 216.183Z" fill="white"/>
<path d="M195.373 216.183C195.53 216.183 195.681 216.245 195.792 216.356C195.903 216.467 195.966 216.618 195.966 216.775C195.966 216.933 195.903 217.083 195.792 217.194C195.681 217.306 195.53 217.368 195.373 217.368C195.216 217.368 195.065 217.306 194.954 217.194C194.843 217.083 194.78 216.933 194.78 216.775C194.78 216.618 194.843 216.467 194.954 216.356C195.065 216.245 195.216 216.183 195.373 216.183Z" fill="white"/>
<path d="M129.026 469.235C129.026 469.235 124.84 465.327 127.655 450.472C130.471 435.617 137.602 421.336 134.101 405.203C130.6 389.07 103.132 348.432 103.039 345.728C102.946 343.023 94.5558 393.015 108.762 412.76C122.969 432.505 124.692 439.303 124.062 449.657C123.432 460.011 124.192 468.364 125.766 470.772L129.026 469.235Z" fill="#17D6C6"/>
<path d="M126.433 439.358C124.784 445.989 123.784 462.604 126.433 466.586C126.692 466.956 127.044 466.753 127.489 466.049C126.674 463.308 126.155 458.492 127.674 450.472C130.489 435.654 137.62 421.336 134.12 405.203C130.619 389.07 103.15 348.432 103.058 345.728C103.058 345.728 107.188 379.586 121.135 402.906C131.1 419.595 128.1 432.727 126.433 439.358Z" fill="#00AD9F"/>
<path d="M134.046 468.217C134.046 468.217 125.97 448.064 139.603 430.616C153.235 413.168 175.147 390.756 175.591 381.884C175.591 381.884 181.148 424.022 163.404 435.951C145.659 447.879 133.175 449.805 136.25 468.142L134.046 468.217Z" fill="#17D6C6"/>
<path d="M153.253 427.578C133.397 442.025 131.786 458.677 134.86 466.382C134.964 466.668 135.137 466.924 135.363 467.128C135.589 467.331 135.862 467.476 136.157 467.549C133.49 449.842 145.881 447.823 163.459 436.061C181.037 424.299 175.647 381.994 175.647 381.994C175.647 381.994 173.109 413.019 153.253 427.578Z" fill="#00AD9F"/>
<path d="M120.691 468.662C122.272 461.364 122.678 453.861 121.895 446.435C120.524 434.914 108.485 428.431 97.2415 416.262C91.4625 410.001 89.8326 376.902 93.3333 373.827C93.3333 373.827 73.4773 397.906 76.552 415.502C79.6267 433.099 112.078 444.601 115.134 453.103C116.93 458.134 117.863 463.431 117.894 468.773L120.691 468.662Z" fill="#17D6C6"/>
<path d="M86.7024 383.329C80.1455 401.092 86.8691 422.615 108.67 435.988C124.71 445.824 119.598 466.291 119.598 466.291L122.228 458.215C122.496 454.301 122.409 450.37 121.969 446.472C120.598 434.951 108.559 428.468 97.3157 416.299C91.759 410.261 89.9068 379.254 93.0556 374.309C90.7868 377.206 88.6664 380.217 86.7024 383.329Z" fill="#00AD9F"/>
<path d="M93.0552 374.308L93.4071 373.863C93.2677 373.993 93.149 374.142 93.0552 374.308Z" fill="#74B1D3"/>
<path d="M138.194 467.328C138.194 467.328 142.843 450.065 154.364 447.75C165.885 445.434 179.073 428.412 179.796 425.078C179.796 425.078 177.851 457.215 138.194 467.328Z" fill="#17D6C6"/>
<path d="M153.698 453.509C146.641 457.028 143.714 461.77 142.677 466.086C177.98 454.732 179.722 425.133 179.722 425.133C179.275 426.342 178.651 427.479 177.869 428.504C174.535 434.524 166.145 447.23 153.698 453.509Z" fill="#00AD9F"/>
<path d="M163.089 460.919H102.91L110.059 505.873C110.307 507.534 111.143 509.051 112.414 510.148C113.685 511.246 115.307 511.852 116.987 511.855H149.012C150.672 511.837 152.273 511.232 153.531 510.147C154.788 509.063 155.622 507.568 155.884 505.928L163.089 460.919Z" fill="#F9714E"/>
<path d="M161.922 468.421L163.089 460.975H102.91L104.095 468.421H161.922Z" fill="#F75E3E"/>
<path d="M148.475 460.919L141.362 505.928C141.102 507.579 140.261 509.083 138.991 510.169C137.722 511.256 136.106 511.854 134.435 511.855H149.012C150.672 511.837 152.273 511.232 153.53 510.147C154.788 509.063 155.621 507.568 155.883 505.928L163.089 460.919H148.475Z" fill="#F75E3E"/>
<path d="M578.231 380.81H306.211V436.117H578.231V380.81Z" fill="#FFB84D"/>
<g style="mix-blend-mode:multiply" opacity="0.29">
<path d="M578.231 380.81H306.211V394.238H578.231V380.81Z" fill="#DF8B37"/>
</g>
<path d="M329.864 380.81H354.684L348.034 394.238H323.196L329.864 380.81Z" fill="#DB7D37"/>
<path d="M385.802 380.81H410.622L403.972 394.238H379.152L385.802 380.81Z" fill="#DB7D37"/>
<path d="M441.739 380.81H466.559L459.91 394.238H435.09L441.739 380.81Z" fill="#DB7D37"/>
<path d="M497.677 380.81H522.478L515.829 394.238H491.009L497.677 380.81Z" fill="#DB7D37"/>
<path d="M578.231 380.81V381.18L571.748 394.238H546.946L553.614 380.81H578.231Z" fill="#DB7D37"/>
<path d="M359.241 436.117H340.07V511.744H359.241V436.117Z" fill="#93C7E5"/>
<path d="M359.241 436.117H354.888V511.744H359.241V436.117Z" fill="#74B1D3"/>
<path d="M545.854 436.117H526.683V511.744H545.854V436.117Z" fill="#93C7E5"/>
<path d="M545.853 436.117H540.186V511.744H545.853V436.117Z" fill="#74B1D3"/>
<path d="M359.241 436.062H340.07V445.582H359.241V436.062Z" fill="#74B1D3"/>
<path d="M545.854 436.062H526.683V445.582H545.854V436.062Z" fill="#74B1D3"/>
<path d="M359.241 372.159H340.07V380.754H359.241V372.159Z" fill="#93C7E5"/>
<path d="M359.241 372.159H354.888V380.754H359.241V372.159Z" fill="#74B1D3"/>
<path d="M545.854 372.159H526.683V380.754H545.854V372.159Z" fill="#93C7E5"/>
<path d="M545.853 372.159H540.186V380.754H545.853V372.159Z" fill="#74B1D3"/>
<path d="M359.241 379.68H340.07V380.754H359.241V379.68Z" fill="#74B1D3"/>
<path d="M545.854 379.68H526.683V380.754H545.854V379.68Z" fill="#74B1D3"/>
<path d="M354.684 380.81L327.252 436.117H306.211V428.486L329.864 380.81H354.684Z" fill="#4980BC"/>
<path d="M385.802 380.81L358.37 436.117H383.19L410.622 380.81H385.802Z" fill="#4980BC"/>
<path d="M466.559 380.81L439.128 436.117H414.308L441.739 380.81H466.559Z" fill="#4980BC"/>
<path d="M522.478 380.81L495.065 436.117H470.245L497.677 380.81H522.478Z" fill="#4980BC"/>
<path d="M553.615 380.81L526.183 436.117H550.985L578.231 381.18L553.615 380.81Z" fill="#4980BC"/>
<path d="M354.684 380.81L348.034 394.238H323.196L329.864 380.81H354.684Z" fill="#3A668A"/>
<path d="M410.622 380.81L403.972 394.238H379.152L385.802 380.81H410.622Z" fill="#3A668A"/>
<path d="M466.559 380.81L459.91 394.238H435.09L441.739 380.81H466.559Z" fill="#3A668A"/>
<path d="M522.478 380.81L515.829 394.238H491.009L497.677 380.81H522.478Z" fill="#3A668A"/>
<path d="M578.231 381.18L571.748 394.238H546.946L553.614 380.81L578.231 381.18Z" fill="#3A668A"/>
<path style="mix-blend-mode:overlay" opacity="0.55" d="M573.544 404.74H313.787V432.413H573.544V404.74Z" fill="url(#paint0_linear)"/>
<path d="M351.865 377.058C361.184 375.542 367.51 366.758 365.994 357.439C364.478 348.119 355.694 341.793 346.374 343.31C337.055 344.826 330.729 353.61 332.245 362.929C333.761 372.248 342.545 378.574 351.865 377.058Z" fill="#EA366C"/>
<path d="M356.907 360.157C356.907 358.622 356.451 357.12 355.598 355.844C354.744 354.567 353.531 353.572 352.112 352.985C350.693 352.399 349.131 352.246 347.625 352.547C346.119 352.848 344.736 353.589 343.652 354.676C342.567 355.763 341.829 357.148 341.532 358.655C341.235 360.161 341.391 361.722 341.981 363.14C342.572 364.558 343.569 365.769 344.848 366.619C346.127 367.47 347.629 367.922 349.165 367.918C350.183 367.918 351.191 367.717 352.132 367.327C353.072 366.937 353.927 366.365 354.646 365.644C355.365 364.923 355.935 364.067 356.323 363.126C356.711 362.184 356.909 361.176 356.907 360.157Z" fill="#4980BC"/>
<path d="M538.866 377.075C548.186 375.559 554.511 366.775 552.995 357.455C551.479 348.136 542.695 341.81 533.376 343.326C524.056 344.842 517.731 353.626 519.247 362.946C520.763 372.265 529.547 378.591 538.866 377.075Z" fill="#EA366C"/>
<path d="M543.909 360.157C543.909 358.622 543.453 357.12 542.6 355.844C541.746 354.567 540.533 353.572 539.114 352.985C537.695 352.399 536.133 352.246 534.627 352.547C533.121 352.848 531.738 353.589 530.654 354.676C529.569 355.763 528.831 357.148 528.534 358.655C528.237 360.161 528.393 361.722 528.983 363.14C529.574 364.558 530.571 365.769 531.85 366.619C533.129 367.47 534.631 367.922 536.167 367.918C537.185 367.918 538.193 367.717 539.134 367.327C540.074 366.937 540.929 366.365 541.648 365.644C542.367 364.923 542.937 364.067 543.325 363.126C543.713 362.184 543.911 361.176 543.909 360.157Z" fill="#4980BC"/>
<path d="M681.289 505.872H594.66L607.83 473.754L613.164 460.789L614.627 457.251L617.035 451.454L617.517 450.287L622.851 437.321L623.833 434.969L633.279 412.038C633.655 411.118 634.296 410.33 635.12 409.776C635.945 409.222 636.916 408.926 637.91 408.926C638.904 408.926 639.875 409.222 640.699 409.776C641.524 410.33 642.165 411.118 642.54 412.038L651.987 434.969L652.95 437.321L658.284 450.287L658.785 451.454L661.174 457.251L662.637 460.789L667.972 473.754L681.289 505.872Z" fill="#FFB84D"/>
<g style="mix-blend-mode:multiply" opacity="0.29">
<path d="M600.346 492.11L594.66 505.872H681.308L675.621 492.11H600.346Z" fill="#DF8B37"/>
</g>
<path d="M686.957 497.648H587.733V511.67H686.957V497.648Z" fill="#93C7E5"/>
<path d="M686.957 497.648H665.527V511.67H686.957V497.648Z" fill="#74B1D3"/>
<g style="mix-blend-mode:multiply" opacity="0.29">
<path d="M677.881 497.648H665.637L655.784 473.773L650.449 460.807L648.986 457.251L646.596 451.472L646.115 450.287L640.78 437.321L639.799 434.968L631.908 415.65L633.409 411.945C633.784 411.025 634.425 410.238 635.25 409.683C636.074 409.129 637.045 408.833 638.039 408.833C639.033 408.833 640.004 409.129 640.829 409.683C641.653 410.238 642.294 411.025 642.67 411.945L652.116 434.876L653.079 437.228L658.414 450.194L658.914 451.379L661.303 457.158L662.767 460.715L668.101 473.68L677.881 497.648Z" fill="#DF8B37"/>
</g>
<path d="M658.358 450.268H617.59L622.925 437.303H653.024L658.358 450.268Z" fill="#4980BC"/>
<path d="M668.045 473.736V473.755H607.903V473.736L613.238 460.771H662.711L668.045 473.736Z" fill="#4980BC"/>
<path d="M658.358 450.268H646.115L640.781 437.303H653.024L658.358 450.268Z" fill="#3A668A"/>
<path d="M668.045 473.736V473.755H655.784V473.736L650.449 460.771H662.711L668.045 473.736Z" fill="#3A668A"/>
<path d="M124.059 201.568C127.2 201.6 130.246 200.491 132.63 198.447C135.015 196.403 136.577 193.563 137.025 190.454C137.189 189.289 137.27 188.112 137.266 186.935C137.266 180.058 134.534 173.462 129.671 168.599C124.808 163.736 118.212 161.004 111.335 161.004C110.742 161.004 110.168 161.004 109.593 161.004C108.96 153.972 105.643 147.454 100.331 142.803C95.0198 138.152 88.1212 135.725 81.0673 136.025C74.0135 136.325 67.3461 139.33 62.449 144.416C57.5518 149.501 54.8009 156.277 54.7672 163.338C54.7672 164.004 54.7672 164.671 54.7672 165.338C50.7355 163.095 46.2037 161.903 41.5901 161.874C36.9764 161.844 32.4296 162.977 28.3692 165.167C24.3088 167.358 20.8656 170.536 18.3574 174.409C15.8493 178.281 14.3568 182.723 14.0179 187.324C14.0271 187.435 14.0271 187.547 14.0179 187.657C13.9248 189.435 14.1951 191.214 14.8126 192.884C15.43 194.554 16.3815 196.08 17.6089 197.37C18.8363 198.66 20.3138 199.686 21.9512 200.385C23.5885 201.085 25.3513 201.443 27.1318 201.438L124.059 201.568Z" fill="#DDEFF7"/>
<path d="M746.099 211.181C766.474 211.181 767.678 180.415 747.247 179.415H745.58C742.027 179.41 738.495 179.966 735.115 181.064C733.743 172.77 729.438 165.245 722.985 159.858C716.531 154.471 708.357 151.581 699.952 151.713C691.547 151.846 683.468 154.992 677.187 160.579C670.907 166.167 666.841 173.824 665.73 182.157C658.858 178.892 651.059 178.138 643.689 180.026C625.815 184.62 629.556 211.218 648.023 211.218L746.099 211.181Z" fill="#DDEFF7"/>
<path d="M592.995 72.5091C613.369 72.5091 614.573 41.762 594.162 40.7618H592.476C588.931 40.7596 585.406 41.3095 582.03 42.3917C580.669 34.0897 576.369 26.5537 569.913 21.1588C563.458 15.7639 555.278 12.8697 546.867 13.0045C538.455 13.1393 530.372 16.2939 524.093 21.8929C517.814 27.4918 513.757 35.1618 512.663 43.5031C505.796 40.2229 497.993 39.4624 490.622 41.3545C472.748 45.9666 476.508 72.5462 494.956 72.5462L592.995 72.5091Z" fill="#DDEFF7"/>
<path d="M255.995 61.5091C276.369 61.5091 277.573 30.762 257.162 29.7618H255.476C251.931 29.7596 248.406 30.3095 245.03 31.3917C243.669 23.0897 239.369 15.5537 232.913 10.1588C226.458 4.76387 218.278 1.86974 209.867 2.0045C201.455 2.13927 193.372 5.29395 187.093 10.8929C180.814 16.4918 176.757 24.1618 175.663 32.5031C168.796 29.2229 160.993 28.4624 153.622 30.3545C135.748 34.9666 139.508 61.5462 157.956 61.5462L255.995 61.5091Z" fill="#DDEFF7"/>
</g>
<defs>
<filter id="filter0_d" x="0" y="0" width="809" height="521" filterUnits="userSpaceOnUse" color-interpolation-filters="sRGB">
<feFlood flood-opacity="0" result="BackgroundImageFix"/>
<feColorMatrix in="SourceAlpha" type="matrix" values="0 0 0 0 0 0 0 0 0 0 0 0 0 0 0 0 0 0 127 0"/>
<feOffset dy="4"/>
<feGaussianBlur stdDeviation="2"/>
<feColorMatrix type="matrix" values="0 0 0 0 0 0 0 0 0 0 0 0 0 0 0 0 0 0 0.25 0"/>
<feBlend mode="normal" in2="BackgroundImageFix" result="effect1_dropShadow"/>
<feBlend mode="normal" in="SourceGraphic" in2="effect1_dropShadow" result="shape"/>
</filter>
<linearGradient id="paint0_linear" x1="443.666" y1="452.287" x2="443.666" y2="407.741" gradientUnits="userSpaceOnUse">
<stop stop-color="white"/>
<stop offset="0.12" stop-color="white" stop-opacity="0.82"/>
<stop offset="0.3" stop-color="white" stop-opacity="0.58"/>
<stop offset="0.47" stop-color="white" stop-opacity="0.37"/>
<stop offset="0.64" stop-color="white" stop-opacity="0.21"/>
<stop offset="0.78" stop-color="white" stop-opacity="0.1"/>
<stop offset="0.91" stop-color="white" stop-opacity="0.02"/>
<stop offset="1" stop-color="white" stop-opacity="0"/>
</linearGradient>
</defs>
</svg>
