<svg width="120" height="120" viewBox="0 0 120 120" fill="none" xmlns="http://www.w3.org/2000/svg">
<g clip-path="url(#clip0)">
<path d="M119.78 28.4559C119.367 26.92 118.359 25.6107 116.981 24.8169C115.601 24.0192 113.961 23.8034 112.422 24.2164C110.885 24.6304 109.576 25.637 108.782 27.0157L107.782 28.7556C106.832 28.2098 105.618 28.5311 105.063 29.4762L99.9837 38.1339L98.2437 37.1341C97.7829 36.8675 97.2341 36.7953 96.7206 36.9339C96.206 37.0736 95.7686 37.4114 95.504 37.8742C94.9621 38.8301 95.2921 40.0447 96.2441 40.5935L97.984 41.5933L80.9869 71.0483L76.7874 82.267L74.7878 86.0057C73.6171 88.0424 73.742 90.5742 75.108 92.485L70.6088 98.0036L69.3492 94.845C68.781 93.437 67.4658 92.4723 65.9533 92.3542C64.4399 92.2351 62.99 92.983 62.2098 94.2845L61.4902 95.504L60.8107 87.5054C60.6544 85.6132 59.1889 84.0919 57.3044 83.8635C55.419 83.636 53.6341 84.7656 53.0317 86.5661L48.1126 101.323C47.7689 102.367 48.3313 103.492 49.3722 103.843C49.5675 103.934 49.7774 103.989 49.9922 104.003C50.8514 104.006 51.6169 103.458 51.8923 102.643L56.7908 87.8862L57.4909 96.004C57.6354 97.7361 58.8803 99.1763 60.5734 99.5688C62.2665 99.9613 64.0181 99.2153 64.9096 97.7244L65.6497 96.5039L66.8897 99.644C67.416 100.967 68.6062 101.911 70.0151 102.121C71.4241 102.331 72.8379 101.775 73.7284 100.663L78.3877 94.7649C78.9033 94.8997 79.4344 94.967 79.9676 94.9651C82.1107 94.9817 84.1006 93.853 85.1864 92.0046L87.1861 88.6654L94.8049 79.4072L111.982 49.5919L113.722 50.5918C114.185 50.8574 114.523 51.2958 114.661 51.8123C114.8 52.3249 114.727 52.8717 114.462 53.3315L106.463 67.1895C106.161 67.6445 106.059 68.203 106.18 68.7361C106.301 69.2683 106.634 69.7282 107.103 70.0084C107.563 70.2759 108.112 70.3482 108.626 70.2095C109.14 70.0699 109.578 69.7321 109.842 69.2693L117.841 55.4113C118.639 54.0316 118.854 52.3913 118.44 50.8525C118.026 49.3156 117.02 48.0063 115.641 47.2125L113.901 46.2126L118.9 37.554C119.446 36.6039 119.125 35.3912 118.181 34.8347L119.181 33.0948C120 31.6936 120.217 30.0201 119.78 28.4559ZM112.241 29.0154C112.506 28.5526 112.945 28.2137 113.462 28.0761C113.975 27.9491 114.518 28.0204 114.981 28.2762C115.445 28.5408 115.783 28.9802 115.921 29.4958C116.048 30.0093 115.977 30.5522 115.721 31.015L114.721 32.755L111.242 30.7553L112.241 29.0154ZM84.9862 84.8467L83.9864 84.2667L81.0269 82.5463L83.8663 74.948L90.165 78.587L84.9862 84.8467ZM78.9872 90.625C78.1427 90.0362 77.8829 88.9036 78.3877 88.0053L79.3876 86.2664L82.8665 88.266L81.8666 89.9855C81.5864 90.4717 81.1158 90.8173 80.568 90.9394C80.0203 91.0605 79.4471 90.9472 78.9872 90.625ZM92.4449 75.3083L85.5262 71.3089L101.523 43.593L108.442 47.5923L92.4449 75.3083ZM110.442 44.1329L103.523 40.1336L107.522 33.2149L114.441 37.2142L110.442 44.1329Z" fill="#054163"/>
<path d="M31.5546 89.6248L24.4767 96.6842L20.2372 92.4447C19.4571 91.6694 18.1975 91.6694 17.4174 92.4447C17.0385 92.8206 16.8257 93.3312 16.8257 93.8643C16.8257 94.3975 17.0385 94.9091 17.4174 95.284L21.6569 99.5235C22.4068 100.268 23.4203 100.684 24.4767 100.683C25.539 100.689 26.5613 100.272 27.3161 99.5235L34.3745 92.4447C35.054 91.6509 35.0081 90.4684 34.27 89.7303C33.5309 88.9912 32.3484 88.9453 31.5546 89.6248Z" fill="#054163"/>
<path d="M8 95.0039C8 104.392 15.61 112.001 24.9971 112.001C34.3842 112.001 41.9942 104.392 41.9942 95.0039C41.9942 93.8996 41.0989 93.0042 39.9946 93.0042C38.8902 93.0042 37.9949 93.8996 37.9949 95.0039C37.9949 102.182 32.1756 108.002 24.9971 108.002C17.8186 108.002 11.9993 102.182 11.9993 95.0039C11.9993 87.8254 17.8186 82.0061 24.9971 82.0061C27.8111 81.9983 30.5499 82.9112 32.7956 84.6062C33.6792 85.2692 34.9329 85.0896 35.5949 84.2059C36.2579 83.3223 36.0792 82.0696 35.1956 81.4066C30.0451 77.544 23.1537 76.923 17.3959 79.8014C11.6371 82.6808 8 88.5665 8 95.0039Z" fill="#054163"/>
<path d="M71.9894 16.0174C73.0937 16.0174 73.989 15.123 73.989 14.0177C73.989 12.9134 73.0937 12.0181 71.9894 12.0181H19.9982C18.8939 12.0181 17.9985 12.9134 17.9985 14.0177V22.0164C17.9985 23.1216 18.8939 24.016 19.9982 24.016H71.9894C73.0937 24.016 73.989 23.1216 73.989 22.0164C73.989 20.9121 73.0937 20.0167 71.9894 20.0167H21.9979V16.0174H71.9894Z" fill="#054163"/>
<path d="M25.9953 28.0151C24.891 28.0151 23.9956 28.9105 23.9956 30.0148C23.9956 31.1201 24.891 32.0145 25.9953 32.0145H65.9884C67.0928 32.0145 67.9881 31.1201 67.9881 30.0148C67.9881 28.9105 67.0928 28.0151 65.9884 28.0151H25.9953Z" fill="#054163"/>
<path d="M77.9858 42.0132H33.9933C32.889 42.0132 31.9937 42.9085 31.9937 44.0128C31.9937 45.1181 32.889 46.0125 33.9933 46.0125H77.9858C79.0901 46.0125 79.9855 45.1181 79.9855 44.0128C79.9855 42.9085 79.0901 42.0132 77.9858 42.0132Z" fill="#054163"/>
<path d="M57.991 56.0104C57.991 54.9061 57.0957 54.0107 55.9914 54.0107H15.9982C14.8939 54.0107 13.9985 54.9061 13.9985 56.0104C13.9985 57.1157 14.8939 58.01 15.9982 58.01H55.9914C57.0957 58.01 57.991 57.1157 57.991 56.0104Z" fill="#054163"/>
<path d="M77.9866 54.0107H63.9889C62.8846 54.0107 61.9893 54.9061 61.9893 56.0104C61.9893 57.1157 62.8846 58.01 63.9889 58.01H77.9866C79.0909 58.01 79.9862 57.1157 79.9862 56.0104C79.9862 54.9061 79.0909 54.0107 77.9866 54.0107Z" fill="#054163"/>
<path d="M35.9948 68.0082C37.0991 68.0082 37.9944 67.1138 37.9944 66.0085C37.9944 64.9042 37.0991 64.0088 35.9948 64.0088H15.9982C14.8939 64.0088 13.9985 64.9042 13.9985 66.0085C13.9985 67.1138 14.8939 68.0082 15.9982 68.0082H35.9948Z" fill="#054163"/>
<path d="M43.9928 68.0082H57.9904C59.0948 68.0082 59.9901 67.1138 59.9901 66.0085C59.9901 64.9042 59.0948 64.0088 57.9904 64.0088H43.9928C42.8885 64.0088 41.9932 64.9042 41.9932 66.0085C41.9932 67.1138 42.8885 68.0082 43.9928 68.0082Z" fill="#054163"/>
<path d="M89.9847 92.0044C88.8804 92.0044 87.985 92.8997 87.985 94.004V114.001C87.985 115.106 87.0896 116 85.9853 116H5.99898C4.89467 116 3.99932 115.106 3.99932 114.001V6.019C3.99932 4.91469 4.89467 4.01934 5.99898 4.01934H85.9853C87.0896 4.01934 87.985 4.91469 87.985 6.019V43.5732C87.985 44.6775 88.8804 45.5728 89.9847 45.5728C91.089 45.5728 91.9843 44.6775 91.9843 43.5732V6.019C91.9843 2.70609 89.2983 0.0200195 85.9853 0.0200195H5.99898C2.68607 0.0200195 0 2.70609 0 6.019V114.001C0 117.315 2.68607 120 5.99898 120H85.9853C89.2983 120 91.9843 117.315 91.9843 114.001V94.004C91.9843 92.8997 91.089 92.0044 89.9847 92.0044Z" fill="#054163"/>
</g>
<defs>
<clipPath id="clip0">
<rect width="120" height="120" fill="white"/>
</clipPath>
</defs>
</svg>
