<svg width="120" height="120" viewBox="0 0 120 120" fill="none" xmlns="http://www.w3.org/2000/svg">
<g clip-path="url(#clip0)">
<path d="M117.656 115.312H115.781V46.875C115.781 45.5805 114.732 44.5312 113.437 44.5312H94.6873C93.3929 44.5312 92.3436 45.5805 92.3436 46.875V71.9531C92.3436 73.2475 93.3929 74.2968 94.6873 74.2968C95.9818 74.2968 97.0311 73.2475 97.0311 71.9531V49.2187H111.094V115.312H97.0311V94.9183C97.0311 93.6238 95.9818 92.5745 94.6873 92.5745C93.3929 92.5745 92.3436 93.6238 92.3436 94.9183V115.312H86.7186V62.3437C86.7186 61.0493 85.6693 60 84.3748 60H65.6249C64.3304 60 63.2811 61.0493 63.2811 62.3437V115.312H56.7186V76.875C56.7186 75.5805 55.6693 74.5312 54.3749 74.5312H35.6249C34.3305 74.5312 33.2812 75.5805 33.2812 76.875V115.312H27.6562V91.8749C27.6562 90.5805 26.6069 89.5312 25.3125 89.5312H6.56249C5.26804 89.5312 4.21874 90.5805 4.21874 91.8749V115.312H2.34375C1.04929 115.312 0 116.362 0 117.656C0 118.951 1.04929 120 2.34375 120H117.656C118.95 120 120 118.951 120 117.656C120 116.362 118.95 115.312 117.656 115.312ZM22.9687 115.312H8.90623V94.2187H22.9687V115.312ZM52.0311 115.312H37.9687V79.2187H52.0311V115.312ZM82.0311 115.312H67.9686V64.6875H82.0311V115.312Z" fill="#054163"/>
<path d="M96.3445 81.2859C95.9086 80.85 95.3039 80.6016 94.6875 80.6016C94.0711 80.6016 93.4664 80.85 93.0305 81.2859C92.5945 81.7219 92.3438 82.3266 92.3438 82.9453C92.3438 83.5617 92.5945 84.1641 93.0305 84.6023C93.4664 85.0385 94.0711 85.289 94.6875 85.289C95.3039 85.289 95.9086 85.0383 96.3445 84.6023C96.7805 84.1641 97.0312 83.5617 97.0312 82.9453C97.0312 82.3266 96.7805 81.7219 96.3445 81.2859Z" fill="#054163"/>
<path d="M102.187 0C92.3655 0 84.375 7.99053 84.375 17.8125C84.375 27.6344 92.3658 35.6249 102.187 35.6249C112.009 35.6249 120 27.6344 120 17.8125C120 7.99053 112.009 0 102.187 0ZM102.187 24.6311C100.722 24.6311 99.5294 23.646 99.5294 22.4355C99.5294 21.1411 98.4801 20.0918 97.1857 20.0918C95.8912 20.0918 94.8419 21.1411 94.8419 22.4355C94.8419 25.4629 96.9396 28.0382 99.8437 28.9572V30.7237C93.7216 29.6149 89.0625 24.2493 89.0625 17.8125C89.0625 11.3756 93.7216 6.01007 99.8437 4.90124V6.83506C96.9396 7.75405 94.8419 10.3294 94.8419 13.3568C94.8419 17.1522 98.1373 20.2399 102.187 20.2399C103.653 20.2399 104.846 21.2247 104.846 22.4355C104.846 23.6463 103.653 24.6311 102.187 24.6311ZM104.531 30.7237V28.9572C107.435 28.0382 109.533 25.4629 109.533 22.4355C109.533 18.6403 106.238 15.5524 102.187 15.5524C100.722 15.5524 99.5294 14.5673 99.5294 13.3568C99.5294 12.1462 100.722 11.1611 102.187 11.1611C103.653 11.1611 104.846 12.1462 104.846 13.3568C104.846 14.6512 105.895 15.7005 107.189 15.7005C108.484 15.7005 109.533 14.6512 109.533 13.3568C109.533 10.3294 107.435 7.75405 104.531 6.83506V4.90124C110.654 6.01007 115.312 11.3756 115.312 17.8125C115.312 24.2493 110.653 29.6149 104.531 30.7237Z" fill="#054163"/>
<path d="M83.4375 30.3203H74.2617C72.9672 30.3203 71.918 31.3696 71.918 32.6641C71.918 33.9585 72.9672 35.0078 74.2617 35.0078H77.779L52.7199 60.0671L39.9884 47.3357C39.0732 46.4207 37.5891 46.4207 36.6736 47.3357L11.1845 72.8246C10.2692 73.7398 10.2692 75.2239 11.1845 76.1391C11.642 76.5969 12.242 76.8258 12.8417 76.8258C13.4415 76.8258 14.0415 76.5969 14.499 76.1394L38.3309 52.3075L51.0624 65.0389C51.9776 65.9542 53.4617 65.9542 54.3771 65.0389L81.0937 38.3223V41.8398C81.0937 43.1343 82.143 44.1836 83.4375 44.1836C84.7319 44.1836 85.7812 43.1343 85.7812 41.8398V32.6641C85.7812 31.3696 84.7319 30.3203 83.4375 30.3203Z" fill="#054163"/>
<path d="M8.40458 78.9191C7.96865 78.4832 7.36396 78.2324 6.74755 78.2324C6.13115 78.2324 5.52646 78.4832 5.09053 78.9191C4.65459 79.3551 4.40381 79.9598 4.40381 80.5762C4.40381 81.1926 4.65459 81.7973 5.09053 82.2332C5.52646 82.6689 6.13115 82.9199 6.74755 82.9199C7.36396 82.9199 7.96865 82.6691 8.40458 82.2332C8.84052 81.7973 9.0913 81.1926 9.0913 80.5762C9.0913 79.9598 8.84052 79.3551 8.40458 78.9191Z" fill="#054163"/>
</g>
<defs>
<clipPath id="clip0">
<rect width="120" height="120" fill="white"/>
</clipPath>
</defs>
</svg>
