<svg width="120" height="120" viewBox="0 0 120 120" fill="none" xmlns="http://www.w3.org/2000/svg">
<path d="M119.311 0.686484C118.872 0.247031 118.276 0 117.654 0L59.9989 0.00304688C58.7047 0.00304688 57.6554 1.05258 57.6554 2.3468V9.04922L35.4392 15.0021C34.1888 15.3373 33.4468 16.6223 33.7819 17.8725L45.2961 60.8433L35.3354 70.804C34.0676 68.9529 31.939 67.7355 29.5313 67.7355H7.03199C3.15496 67.7355 0.000976562 70.8898 0.000976562 74.7666V112.969C0.000976562 116.846 3.15496 120 7.03199 120H29.5315C32.8252 120 35.596 117.723 36.3554 114.661L39.1421 117.091C41.2934 118.967 44.0496 120 46.9041 120H117.654C118.948 120 119.998 118.951 119.998 117.656V2.34375C119.997 1.72219 119.751 1.12594 119.311 0.686484ZM31.8748 112.969C31.8748 114.261 30.8234 115.313 29.5311 115.313H7.03176C5.73941 115.313 4.68801 114.261 4.68801 112.969V74.7668C4.68801 73.4745 5.73941 72.423 7.03176 72.423H15.9378V99.4219C15.9378 100.716 16.9873 101.766 18.2815 101.766C19.5757 101.766 20.6253 100.716 20.6253 99.4219V72.423H29.5313C30.8236 72.423 31.875 73.4745 31.875 74.7668L31.8748 112.969ZM38.9161 18.9232L57.6554 13.902V22.5867L56.0846 23.0077C55.4839 23.1687 54.9722 23.5613 54.6614 24.0996C54.3507 24.638 54.2663 25.2776 54.4273 25.878C55.328 29.2392 53.3262 32.7063 49.965 33.607C49.3639 33.7683 48.8513 34.1616 48.5407 34.7011C48.2302 35.2404 48.1465 35.8812 48.3089 36.4821L57.4447 70.3113H52.7407L50.3166 60.8276C50.2395 60.5257 50.1045 60.2475 49.9238 60.0056L38.9161 18.9232ZM57.6554 33.3349V53.1117L53.3806 37.2832C55.1663 36.3612 56.6276 34.9816 57.6554 33.3349ZM91.3266 115.312H46.9036C45.1821 115.312 43.5197 114.69 42.2222 113.558L36.5623 108.622V76.2063L46.7947 65.974L48.6504 73.2349C48.9157 74.2725 49.8502 74.9981 50.9211 74.9981L97.0001 75.0009C98.8095 75.0009 100.281 76.4728 100.281 78.2822C100.281 80.0916 98.8095 81.5634 97.0001 81.5634H73.3892C72.095 81.5634 71.0454 82.613 71.0454 83.9072C71.0454 85.2014 72.095 86.2509 73.3892 86.2509H104.336C106.145 86.2509 107.617 87.7228 107.617 89.5322C107.617 91.3416 106.145 92.8134 104.336 92.8134H73.3892C72.095 92.8134 71.0454 93.863 71.0454 95.1572C71.0454 96.4514 72.095 97.5009 73.3892 97.5009H99.3211C101.131 97.5009 102.602 98.9728 102.602 100.782C102.602 102.592 101.131 104.063 99.3211 104.063H73.3892C72.095 104.063 71.0454 105.113 71.0454 106.407C71.0454 107.701 72.095 108.751 73.3892 108.751H91.3266C93.136 108.751 94.6079 110.223 94.6079 112.032C94.6076 113.841 93.1357 115.312 91.3266 115.312ZM115.31 115.312H98.5854C99.0399 114.311 99.2951 113.201 99.2951 112.031C99.2951 110.862 99.0399 109.751 98.5854 108.75H99.3211C103.715 108.75 107.29 105.175 107.29 100.781C107.29 99.4999 106.984 98.2889 106.444 97.215C109.818 96.2883 112.304 93.1957 112.304 89.5317C112.304 87.7542 111.719 86.111 110.731 84.7845V55.0798C110.731 53.7855 109.682 52.736 108.388 52.736C107.093 52.736 106.044 53.7855 106.044 55.0798V81.7498C105.493 81.6291 104.922 81.5634 104.336 81.5634H104.259C104.713 80.562 104.968 79.4517 104.968 78.2822C104.968 73.8881 101.394 70.3137 96.9999 70.3137H93.2323C97.2329 68.5981 100.043 64.6216 100.043 60C100.043 53.8151 95.011 48.7833 88.8261 48.7833C82.6414 48.7833 77.6096 53.8151 77.6096 60C77.6096 64.6216 80.4195 68.5981 84.4198 70.3137H71.6082V25.7491C75.795 24.8367 79.0988 21.5332 80.011 17.3461H97.6409C98.5531 21.5332 101.857 24.8367 106.044 25.7491V33.0359C106.044 34.3301 107.093 35.3796 108.387 35.3796C109.682 35.3796 110.731 34.3301 110.731 33.0359V23.6566C110.731 22.3624 109.682 21.3129 108.387 21.3129C104.908 21.3129 102.077 18.4819 102.077 15.0023C102.077 13.7081 101.028 12.6586 99.7334 12.6586H77.9187C76.6245 12.6586 75.575 13.7081 75.575 15.0023C75.575 18.4821 72.7442 21.3129 69.2647 21.3129C67.9704 21.3129 66.9209 22.3624 66.9209 23.6566V70.3134H62.3431V4.69008L115.31 4.6875V115.312ZM88.8265 66.5292C85.2263 66.5292 82.2975 63.6002 82.2975 60.0002C82.2975 56.4002 85.2265 53.471 88.8265 53.471C92.4265 53.471 95.3555 56.4 95.3555 60C95.3555 63.6 92.4268 66.5292 88.8265 66.5292Z" fill="#054163"/>
</svg>
