<svg width="110" height="110" viewBox="0 0 110 110" fill="none" xmlns="http://www.w3.org/2000/svg">
<path d="M34.375 80.7812C34.8308 80.7812 35.268 80.6002 35.5903 80.2778C35.9127 79.9555 36.0938 79.5183 36.0938 79.0625V72.1875C36.0938 71.7317 35.9127 71.2945 35.5903 70.9722C35.268 70.6498 34.8308 70.4688 34.375 70.4688C33.9192 70.4688 33.482 70.6498 33.1597 70.9722C32.8373 71.2945 32.6562 71.7317 32.6562 72.1875V79.0625C32.6562 79.5183 32.8373 79.9555 33.1597 80.2778C33.482 80.6002 33.9192 80.7812 34.375 80.7812Z" fill="#054163"/>
<path d="M29.2188 80.7812C29.6746 80.7812 30.1118 80.6002 30.4341 80.2778C30.7564 79.9555 30.9375 79.5183 30.9375 79.0625V72.1875C30.9375 71.7317 30.7564 71.2945 30.4341 70.9722C30.1118 70.6498 29.6746 70.4688 29.2188 70.4688C28.7629 70.4688 28.3257 70.6498 28.0034 70.9722C27.6811 71.2945 27.5 71.7317 27.5 72.1875V79.0625C27.5 79.5183 27.6811 79.9555 28.0034 80.2778C28.3257 80.6002 28.7629 80.7812 29.2188 80.7812Z" fill="#054163"/>
<path d="M39.5312 80.7812C39.9871 80.7812 40.4243 80.6002 40.7466 80.2778C41.0689 79.9555 41.25 79.5183 41.25 79.0625V72.1875C41.25 71.7317 41.0689 71.2945 40.7466 70.9722C40.4243 70.6498 39.9871 70.4688 39.5312 70.4688C39.0754 70.4688 38.6382 70.6498 38.3159 70.9722C37.9936 71.2945 37.8125 71.7317 37.8125 72.1875V79.0625C37.8125 79.5183 37.9936 79.9555 38.3159 80.2778C38.6382 80.6002 39.0754 80.7812 39.5312 80.7812Z" fill="#054163"/>
<path d="M27.5 30.9375C25.4014 30.9375 24.0625 29.92 24.0625 29.2188C24.0625 28.7629 23.8814 28.3257 23.5591 28.0034C23.2368 27.6811 22.7996 27.5 22.3438 27.5C21.8879 27.5 21.4507 27.6811 21.1284 28.0034C20.8061 28.3257 20.625 28.7629 20.625 29.2188C20.625 31.6611 22.7889 33.6377 25.7812 34.2031V36.0938C25.7812 36.5496 25.9623 36.9868 26.2847 37.3091C26.607 37.6314 27.0442 37.8125 27.5 37.8125C27.9558 37.8125 28.393 37.6314 28.7153 37.3091C29.0377 36.9868 29.2188 36.5496 29.2188 36.0938V34.2031C32.2111 33.6411 34.375 31.6645 34.375 29.2188C34.375 26.3278 31.3552 24.0625 27.5 24.0625C25.4014 24.0625 24.0625 23.045 24.0625 22.3438C24.0625 21.6425 25.4014 20.625 27.5 20.625C29.5986 20.625 30.9375 21.6425 30.9375 22.3438C30.9375 22.7996 31.1186 23.2368 31.4409 23.5591C31.7632 23.8814 32.2004 24.0625 32.6562 24.0625C33.1121 24.0625 33.5493 23.8814 33.8716 23.5591C34.1939 23.2368 34.375 22.7996 34.375 22.3438C34.375 19.9014 32.2111 17.9248 29.2188 17.3594V15.4688C29.2188 15.0129 29.0377 14.5757 28.7153 14.2534C28.393 13.9311 27.9558 13.75 27.5 13.75C27.0442 13.75 26.607 13.9311 26.2847 14.2534C25.9623 14.5757 25.7812 15.0129 25.7812 15.4688V17.3594C22.7889 17.9214 20.625 19.898 20.625 22.3438C20.625 25.2347 23.6448 27.5 27.5 27.5C29.5986 27.5 30.9375 28.5175 30.9375 29.2188C30.9375 29.92 29.5986 30.9375 27.5 30.9375Z" fill="#054163"/>
<path d="M97.9688 37.8125H79.0625V27.5H91.0938C91.5496 27.5 91.9868 27.3189 92.3091 26.9966C92.6314 26.6743 92.8125 26.2371 92.8125 25.7812V12.0312C92.8125 9.75205 91.9071 7.56619 90.2954 5.95455C88.6838 4.34291 86.498 3.4375 84.2188 3.4375H18.9062C16.627 3.4375 14.4412 4.34291 12.8296 5.95455C11.2179 7.56619 10.3125 9.75205 10.3125 12.0312V92.8125H5.15625C4.70041 92.8125 4.26324 92.9936 3.94091 93.3159C3.61858 93.6382 3.4375 94.0754 3.4375 94.5312V97.9688C3.4375 100.248 4.34291 102.434 5.95455 104.045C7.56619 105.657 9.75205 106.562 12.0312 106.562H97.9688C100.248 106.562 102.434 105.657 104.045 104.045C105.657 102.434 106.562 100.248 106.562 97.9688V46.4062C106.562 44.127 105.657 41.9412 104.045 40.3296C102.434 38.7179 100.248 37.8125 97.9688 37.8125ZM79.0625 12.0312C79.0625 10.6637 79.6058 9.35222 80.5727 8.38523C81.5397 7.41825 82.8512 6.875 84.2188 6.875C85.5863 6.875 86.8978 7.41825 87.8648 8.38523C88.8317 9.35222 89.375 10.6637 89.375 12.0312V24.0625H79.0625V12.0312ZM12.0312 103.125C10.665 103.121 9.35584 102.576 8.38974 101.61C7.42364 100.644 6.87908 99.335 6.875 97.9688V96.25H55V97.9688C55.0052 99.8357 55.6276 101.649 56.7703 103.125H12.0312ZM55 46.4062V92.8125H13.75V12.0312C13.7541 10.665 14.2986 9.35584 15.2647 8.38974C16.2308 7.42364 17.54 6.87908 18.9062 6.875H77.3953C76.2526 8.35143 75.6302 10.1643 75.625 12.0312V37.8125H63.5938C61.3145 37.8125 59.1287 38.7179 57.5171 40.3296C55.9054 41.9412 55 44.127 55 46.4062ZM103.125 97.9688C103.121 99.335 102.576 100.644 101.61 101.61C100.644 102.576 99.335 103.121 97.9688 103.125H63.5938C62.2275 103.121 60.9183 102.576 59.9522 101.61C58.9861 100.644 58.4416 99.335 58.4375 97.9688V46.4062C58.4416 45.04 58.9861 43.7308 59.9522 42.7647C60.9183 41.7986 62.2275 41.2541 63.5938 41.25H97.9688C99.335 41.2541 100.644 41.7986 101.61 42.7647C102.576 43.7308 103.121 45.04 103.125 46.4062V97.9688Z" fill="#054163"/>
<path d="M48.7955 58.5062L35.4065 48.4687C35.1101 48.2429 34.7478 48.1206 34.3752 48.1206C34.0026 48.1206 33.6403 48.2429 33.344 48.4687L19.9549 58.5062C18.7857 58.6535 17.703 59.1994 16.8892 60.0518C16.0755 60.9042 15.5805 62.0111 15.4876 63.1859C15.3948 64.3607 15.7097 65.5317 16.3795 66.5013C17.0492 67.471 18.0327 68.1802 19.1643 68.5093L21.8284 81.7953C22.0626 82.9631 22.6939 84.0138 23.6151 84.7689C24.5362 85.524 25.6904 85.9369 26.8815 85.9375H41.869C43.0601 85.9369 44.2142 85.524 45.1354 84.7689C46.0565 84.0138 46.6879 82.9631 46.9221 81.7953L49.5862 68.5093C50.7178 68.1802 51.7013 67.471 52.371 66.5013C53.0407 65.5317 53.3557 64.3607 53.2628 63.1859C53.17 62.0111 52.675 60.9042 51.8612 60.0518C51.0475 59.1994 49.9648 58.6535 48.7955 58.5062ZM34.3752 51.9922L42.969 58.4375H25.7815L34.3752 51.9922ZM43.5534 81.125C43.4741 81.5132 43.2632 81.8621 42.9562 82.1127C42.6493 82.3632 42.2652 82.5 41.869 82.5H26.8815C26.4853 82.5 26.1012 82.3632 25.7942 82.1127C25.4873 81.8621 25.2764 81.5132 25.1971 81.125L22.7221 68.75H46.0284L43.5534 81.125ZM48.1252 65.3125H20.6252C20.1694 65.3125 19.7322 65.1314 19.4099 64.8091C19.0876 64.4867 18.9065 64.0496 18.9065 63.5937C18.9065 63.1379 19.0876 62.7007 19.4099 62.3784C19.7322 62.056 20.1694 61.875 20.6252 61.875H48.1252C48.5811 61.875 49.0182 62.056 49.3406 62.3784C49.6629 62.7007 49.844 63.1379 49.844 63.5937C49.844 64.0496 49.6629 64.4867 49.3406 64.8091C49.0182 65.1314 48.5811 65.3125 48.1252 65.3125Z" fill="#054163"/>
<path d="M97.9688 44.6875H63.5938C63.1379 44.6875 62.7007 44.8686 62.3784 45.1909C62.0561 45.5132 61.875 45.9504 61.875 46.4062V56.7188C61.875 57.1746 62.0561 57.6118 62.3784 57.9341C62.7007 58.2564 63.1379 58.4375 63.5938 58.4375H97.9688C98.4246 58.4375 98.8618 58.2564 99.1841 57.9341C99.5064 57.6118 99.6875 57.1746 99.6875 56.7188V46.4062C99.6875 45.9504 99.5064 45.5132 99.1841 45.1909C98.8618 44.8686 98.4246 44.6875 97.9688 44.6875ZM96.25 55H65.3125V48.125H96.25V55Z" fill="#054163"/>
<path d="M70.4688 61.875H63.5938C63.1379 61.875 62.7007 62.0561 62.3784 62.3784C62.0561 62.7007 61.875 63.1379 61.875 63.5938V70.4688C61.875 70.9246 62.0561 71.3618 62.3784 71.6841C62.7007 72.0064 63.1379 72.1875 63.5938 72.1875H70.4688C70.9246 72.1875 71.3618 72.0064 71.6841 71.6841C72.0064 71.3618 72.1875 70.9246 72.1875 70.4688V63.5938C72.1875 63.1379 72.0064 62.7007 71.6841 62.3784C71.3618 62.0561 70.9246 61.875 70.4688 61.875ZM68.75 68.75H65.3125V65.3125H68.75V68.75Z" fill="#054163"/>
<path d="M70.4688 75.625H63.5938C63.1379 75.625 62.7007 75.8061 62.3784 76.1284C62.0561 76.4507 61.875 76.8879 61.875 77.3438V84.2188C61.875 84.6746 62.0561 85.1118 62.3784 85.4341C62.7007 85.7564 63.1379 85.9375 63.5938 85.9375H70.4688C70.9246 85.9375 71.3618 85.7564 71.6841 85.4341C72.0064 85.1118 72.1875 84.6746 72.1875 84.2188V77.3438C72.1875 76.8879 72.0064 76.4507 71.6841 76.1284C71.3618 75.8061 70.9246 75.625 70.4688 75.625ZM68.75 82.5H65.3125V79.0625H68.75V82.5Z" fill="#054163"/>
<path d="M70.4688 89.375H63.5938C63.1379 89.375 62.7007 89.5561 62.3784 89.8784C62.0561 90.2007 61.875 90.6379 61.875 91.0938V97.9688C61.875 98.4246 62.0561 98.8618 62.3784 99.1841C62.7007 99.5064 63.1379 99.6875 63.5938 99.6875H70.4688C70.9246 99.6875 71.3618 99.5064 71.6841 99.1841C72.0064 98.8618 72.1875 98.4246 72.1875 97.9688V91.0938C72.1875 90.6379 72.0064 90.2007 71.6841 89.8784C71.3618 89.5561 70.9246 89.375 70.4688 89.375ZM68.75 96.25H65.3125V92.8125H68.75V96.25Z" fill="#054163"/>
<path d="M84.2188 61.875H77.3438C76.8879 61.875 76.4507 62.0561 76.1284 62.3784C75.8061 62.7007 75.625 63.1379 75.625 63.5938V70.4688C75.625 70.9246 75.8061 71.3618 76.1284 71.6841C76.4507 72.0064 76.8879 72.1875 77.3438 72.1875H84.2188C84.6746 72.1875 85.1118 72.0064 85.4341 71.6841C85.7564 71.3618 85.9375 70.9246 85.9375 70.4688V63.5938C85.9375 63.1379 85.7564 62.7007 85.4341 62.3784C85.1118 62.0561 84.6746 61.875 84.2188 61.875ZM82.5 68.75H79.0625V65.3125H82.5V68.75Z" fill="#054163"/>
<path d="M84.2188 75.625H77.3438C76.8879 75.625 76.4507 75.8061 76.1284 76.1284C75.8061 76.4507 75.625 76.8879 75.625 77.3438V84.2188C75.625 84.6746 75.8061 85.1118 76.1284 85.4341C76.4507 85.7564 76.8879 85.9375 77.3438 85.9375H84.2188C84.6746 85.9375 85.1118 85.7564 85.4341 85.4341C85.7564 85.1118 85.9375 84.6746 85.9375 84.2188V77.3438C85.9375 76.8879 85.7564 76.4507 85.4341 76.1284C85.1118 75.8061 84.6746 75.625 84.2188 75.625ZM82.5 82.5H79.0625V79.0625H82.5V82.5Z" fill="#054163"/>
<path d="M84.2188 89.375H77.3438C76.8879 89.375 76.4507 89.5561 76.1284 89.8784C75.8061 90.2007 75.625 90.6379 75.625 91.0938V97.9688C75.625 98.4246 75.8061 98.8618 76.1284 99.1841C76.4507 99.5064 76.8879 99.6875 77.3438 99.6875H84.2188C84.6746 99.6875 85.1118 99.5064 85.4341 99.1841C85.7564 98.8618 85.9375 98.4246 85.9375 97.9688V91.0938C85.9375 90.6379 85.7564 90.2007 85.4341 89.8784C85.1118 89.5561 84.6746 89.375 84.2188 89.375ZM82.5 96.25H79.0625V92.8125H82.5V96.25Z" fill="#054163"/>
<path d="M97.9688 61.875H91.0938C90.6379 61.875 90.2007 62.0561 89.8784 62.3784C89.5561 62.7007 89.375 63.1379 89.375 63.5938V70.4688C89.375 70.9246 89.5561 71.3618 89.8784 71.6841C90.2007 72.0064 90.6379 72.1875 91.0938 72.1875H97.9688C98.4246 72.1875 98.8618 72.0064 99.1841 71.6841C99.5064 71.3618 99.6875 70.9246 99.6875 70.4688V63.5938C99.6875 63.1379 99.5064 62.7007 99.1841 62.3784C98.8618 62.0561 98.4246 61.875 97.9688 61.875ZM96.25 68.75H92.8125V65.3125H96.25V68.75Z" fill="#054163"/>
<path d="M97.9688 75.625H91.0938C90.6379 75.625 90.2007 75.8061 89.8784 76.1284C89.5561 76.4507 89.375 76.8879 89.375 77.3438V84.2188C89.375 84.6746 89.5561 85.1118 89.8784 85.4341C90.2007 85.7564 90.6379 85.9375 91.0938 85.9375H97.9688C98.4246 85.9375 98.8618 85.7564 99.1841 85.4341C99.5064 85.1118 99.6875 84.6746 99.6875 84.2188V77.3438C99.6875 76.8879 99.5064 76.4507 99.1841 76.1284C98.8618 75.8061 98.4246 75.625 97.9688 75.625ZM96.25 82.5H92.8125V79.0625H96.25V82.5Z" fill="#054163"/>
<path d="M97.9688 89.375H91.0938C90.6379 89.375 90.2007 89.5561 89.8784 89.8784C89.5561 90.2007 89.375 90.6379 89.375 91.0938V97.9688C89.375 98.4246 89.5561 98.8618 89.8784 99.1841C90.2007 99.5064 90.6379 99.6875 91.0938 99.6875H97.9688C98.4246 99.6875 98.8618 99.5064 99.1841 99.1841C99.5064 98.8618 99.6875 98.4246 99.6875 97.9688V91.0938C99.6875 90.6379 99.5064 90.2007 99.1841 89.8784C98.8618 89.5561 98.4246 89.375 97.9688 89.375ZM96.25 96.25H92.8125V92.8125H96.25V96.25Z" fill="#054163"/>
<path d="M42.9688 27.5H67.0312C67.4871 27.5 67.9243 27.3189 68.2466 26.9966C68.5689 26.6743 68.75 26.2371 68.75 25.7812C68.75 25.3254 68.5689 24.8882 68.2466 24.5659C67.9243 24.2436 67.4871 24.0625 67.0312 24.0625H42.9688C42.5129 24.0625 42.0757 24.2436 41.7534 24.5659C41.4311 24.8882 41.25 25.3254 41.25 25.7812C41.25 26.2371 41.4311 26.6743 41.7534 26.9966C42.0757 27.3189 42.5129 27.5 42.9688 27.5Z" fill="#054163"/>
<path d="M42.9688 20.625H67.0312C67.4871 20.625 67.9243 20.4439 68.2466 20.1216C68.5689 19.7993 68.75 19.3621 68.75 18.9062C68.75 18.4504 68.5689 18.0132 68.2466 17.6909C67.9243 17.3686 67.4871 17.1875 67.0312 17.1875H42.9688C42.5129 17.1875 42.0757 17.3686 41.7534 17.6909C41.4311 18.0132 41.25 18.4504 41.25 18.9062C41.25 19.3621 41.4311 19.7993 41.7534 20.1216C42.0757 20.4439 42.5129 20.625 42.9688 20.625Z" fill="#054163"/>
<path d="M42.9688 34.375H67.0312C67.4871 34.375 67.9243 34.1939 68.2466 33.8716C68.5689 33.5493 68.75 33.1121 68.75 32.6562C68.75 32.2004 68.5689 31.7632 68.2466 31.4409C67.9243 31.1186 67.4871 30.9375 67.0312 30.9375H42.9688C42.5129 30.9375 42.0757 31.1186 41.7534 31.4409C41.4311 31.7632 41.25 32.2004 41.25 32.6562C41.25 33.1121 41.4311 33.5493 41.7534 33.8716C42.0757 34.1939 42.5129 34.375 42.9688 34.375Z" fill="#054163"/>
</svg>
