<svg width="108" height="108" viewBox="0 0 108 108" fill="none" xmlns="http://www.w3.org/2000/svg">
<path d="M55.7188 65.7872C58.675 65.0189 60.875 62.3514 60.875 59.1562C60.875 55.3647 57.7916 52.2812 54 52.2812C52.1042 52.2812 50.5625 50.7395 50.5625 48.8438C50.5625 46.948 52.1042 45.4062 54 45.4062C55.8958 45.4062 57.4375 46.948 57.4375 48.8438H60.875C60.875 45.6486 58.675 42.9811 55.7188 42.2128V38.5312H52.2812V42.2128C49.325 42.9811 47.125 45.6486 47.125 48.8438C47.125 52.6353 50.2084 55.7188 54 55.7188C55.8958 55.7188 57.4375 57.2605 57.4375 59.1562C57.4375 61.052 55.8958 62.5938 54 62.5938C52.1042 62.5938 50.5625 61.052 50.5625 59.1562H47.125C47.125 62.3514 49.325 65.0189 52.2812 65.7872V69.4688H55.7188V65.7872Z" fill="#054163"/>
<path d="M54 31.6562C41.68 31.6562 31.6562 41.68 31.6562 54H35.0938C35.0938 43.5758 43.5758 35.0938 54 35.0938V31.6562Z" fill="#054163"/>
<path d="M72.9062 54C72.9062 64.4242 64.4242 72.9062 54 72.9062V76.3438C66.32 76.3438 76.3438 66.32 76.3438 54H72.9062Z" fill="#054163"/>
<path d="M36.1254 13.0317C30.7371 15.3847 25.9264 18.7346 21.8271 22.9867L24.3004 25.3741C28.0868 21.4485 32.5281 18.3547 37.5021 16.1805L36.1254 13.0317Z" fill="#054163"/>
<path d="M43.2767 10.6084C42.0667 10.9057 40.8636 11.2564 39.6982 11.65L40.8017 14.907C41.8742 14.5443 42.9845 14.2212 44.0982 13.9445L43.2767 10.6084Z" fill="#054163"/>
<path d="M50.4285 9.45361C49.2546 9.54643 48.0515 9.6908 46.8535 9.88158L47.3966 13.2761C48.5035 13.0974 49.6138 12.965 50.6966 12.8825L50.4285 9.45361Z" fill="#054163"/>
<path d="M54 4.15625C67.3152 4.15625 79.8311 9.34172 89.2447 18.7553C89.8892 19.3998 91.0305 19.3998 91.675 18.7553L95.25 15.1803V28.2188H82.2116L85.5992 24.8311C86.2712 24.1591 86.2712 23.0728 85.5992 22.4008C77.1584 13.96 65.9367 9.3125 54 9.3125V12.75C64.4431 12.75 74.295 16.6052 81.928 23.6417L76.8473 28.7223C76.3558 29.2139 76.208 29.953 76.4744 30.5958C76.7408 31.2386 77.3681 31.6562 78.0625 31.6562H96.9688C97.9175 31.6562 98.6875 30.888 98.6875 29.9375V11.0312C98.6875 10.3369 98.2681 9.70781 97.627 9.44313C96.9808 9.17328 96.2452 9.32281 95.7536 9.81609L90.4409 15.1287C80.5323 5.82344 67.6589 0.71875 54 0.71875C24.6214 0.71875 0.71875 24.6197 0.71875 54H4.15625C4.15625 26.5172 26.5155 4.15625 54 4.15625Z" fill="#054163"/>
<path d="M86.175 85.0133L83.7017 82.626C79.9153 86.5516 75.4741 89.6454 70.5 91.8196L71.8767 94.9683C77.265 92.6154 82.0741 89.2655 86.175 85.0133Z" fill="#054163"/>
<path d="M64.7229 97.3914C65.9329 97.094 67.136 96.7434 68.3014 96.3498L67.1979 93.0928C66.1254 93.4554 65.0151 93.7786 63.9014 94.0553L64.7229 97.3914Z" fill="#054163"/>
<path d="M57.5718 98.5466C58.7457 98.4538 59.9489 98.3094 61.1468 98.1186L60.6037 94.7241C59.4968 94.9029 58.3865 95.0352 57.3037 95.1177L57.5718 98.5466Z" fill="#054163"/>
<path d="M103.844 54C103.844 81.4828 81.4845 103.844 54 103.844C40.6848 103.844 28.1689 98.6583 18.7553 89.2447C18.1108 88.6002 16.9695 88.6002 16.325 89.2447L12.75 92.8197V79.7812H25.7884L22.4008 83.1689C21.7287 83.8409 21.7287 84.9272 22.4008 85.5992C30.8416 94.04 42.0633 98.6875 54 98.6875V95.25C43.5569 95.25 33.705 91.3948 26.072 84.3583L31.1527 79.2777C31.6442 78.7861 31.792 78.047 31.5256 77.4042C31.2592 76.7614 30.6319 76.3438 29.9375 76.3438H11.0312C10.0825 76.3438 9.3125 77.112 9.3125 78.0625V96.9688C9.3125 97.6631 9.73188 98.2922 10.373 98.5569C11.0158 98.825 11.7548 98.6755 12.2464 98.1839L17.5591 92.8713C27.4677 102.177 40.3411 107.281 54 107.281C83.3786 107.281 107.281 83.3803 107.281 54H103.844Z" fill="#054163"/>
<path d="M83.2188 54C83.2188 37.8884 70.1116 24.7812 54 24.7812C37.8884 24.7812 24.7812 37.8884 24.7812 54C24.7812 70.1116 37.8884 83.2188 54 83.2188C70.1116 83.2188 83.2188 70.1116 83.2188 54ZM54 79.7812C39.7842 79.7812 28.2188 68.2158 28.2188 54C28.2188 39.7842 39.7842 28.2188 54 28.2188C68.2158 28.2188 79.7812 39.7842 79.7812 54C79.7812 68.2158 68.2158 79.7812 54 79.7812Z" fill="#054163"/>
</svg>
