<svg width="110" height="110" viewBox="0 0 110 110" fill="none" xmlns="http://www.w3.org/2000/svg">
<path d="M109.369 0.629277C108.966 0.226445 108.419 0 107.849 0L54.999 0.00279297C53.8127 0.00279297 52.8508 0.964863 52.8508 2.15123V8.29512L32.486 13.7519C31.3398 14.0592 30.6596 15.2371 30.9668 16.3831L41.5215 55.773L32.3908 64.9036C31.2287 63.2068 29.2775 62.0909 27.0704 62.0909H6.44607C2.89213 62.0909 0.000976563 64.9823 0.000976563 68.536V103.555C0.000976562 107.109 2.89213 110 6.44607 110H27.0706C30.0898 110 32.6297 107.913 33.3258 105.106L35.8803 107.334C37.8524 109.053 40.3789 110 42.9955 110H107.85C109.036 110 109.998 109.038 109.998 107.852V2.14844C109.998 1.57867 109.772 1.03211 109.369 0.629277ZM29.2187 103.555C29.2187 104.739 28.2549 105.703 27.0702 105.703H6.44586C5.26121 105.703 4.29742 104.74 4.29742 103.555V68.5362C4.29742 67.3516 5.26121 66.3878 6.44586 66.3878H14.6097V91.1367C14.6097 92.3231 15.5718 93.2852 16.7581 93.2852C17.9445 93.2852 18.9066 92.3231 18.9066 91.1367V66.3878H27.0704C28.2551 66.3878 29.2189 67.3516 29.2189 68.5362V103.555H29.2187ZM35.6732 17.3463L52.8508 12.7435V20.7045L51.4109 21.0904C50.8603 21.2379 50.3913 21.5978 50.1064 22.0913C49.8215 22.5848 49.7442 23.1711 49.8918 23.7215C50.7174 26.8026 48.8824 29.9808 45.8014 30.8064C45.2503 30.9543 44.7804 31.3148 44.4958 31.8093C44.2111 32.3037 44.1344 32.8911 44.2833 33.4419L52.6577 64.452H48.3458L46.1236 55.7586C46.053 55.4819 45.9292 55.2269 45.7636 55.0052L35.6732 17.3463ZM52.8508 30.557V48.6857L48.9323 34.1763C50.5692 33.3311 51.9087 32.0665 52.8508 30.557ZM83.7161 105.703H42.9951C41.4171 105.703 39.8932 105.132 38.7038 104.095L33.5155 99.5702V69.8558L42.8952 60.4762L44.5963 67.132C44.8395 68.0831 45.6961 68.7483 46.6777 68.7483L88.9169 68.7509C90.5755 68.7509 91.9247 70.1001 91.9247 71.7587C91.9247 73.4173 90.5755 74.7665 88.9169 74.7665H67.2735C66.0871 74.7665 65.1251 75.7286 65.1251 76.9149C65.1251 78.1013 66.0871 79.0634 67.2735 79.0634H95.6415C97.3001 79.0634 98.6493 80.4126 98.6493 82.0712C98.6493 83.7298 97.3001 85.079 95.6415 85.079H67.2735C66.0871 85.079 65.1251 86.0411 65.1251 87.2274C65.1251 88.4138 66.0871 89.3759 67.2735 89.3759H91.0445C92.7031 89.3759 94.0523 90.7251 94.0523 92.3837C94.0523 94.0423 92.7031 95.3915 91.0445 95.3915H67.2735C66.0871 95.3915 65.1251 96.3536 65.1251 97.5399C65.1251 98.7263 66.0871 99.6884 67.2735 99.6884H83.7161C85.3747 99.6884 86.724 101.038 86.724 102.696C86.7237 104.354 85.3745 105.703 83.7161 105.703ZM105.701 105.703H105.701H90.3701C90.7867 104.785 91.0206 103.767 91.0206 102.695C91.0206 101.623 90.7867 100.606 90.3701 99.6875H91.0445C95.0721 99.6875 98.3489 96.4107 98.3489 92.383C98.3489 91.2083 98.0686 90.0982 97.5736 89.1137C100.666 88.2643 102.946 85.4294 102.946 82.0707C102.946 80.4414 102.409 78.9351 101.504 77.7191V50.4898C101.504 49.3034 100.542 48.3413 99.3555 48.3413C98.1691 48.3413 97.207 49.3034 97.207 50.4898V74.9373C96.7022 74.8266 96.1786 74.7665 95.641 74.7665H95.5706C95.9872 73.8485 96.2211 72.8307 96.2211 71.7587C96.2211 67.7308 92.9443 64.4542 88.9166 64.4542H85.463C89.1302 62.8815 91.7058 59.2365 91.7058 55C91.7058 49.3305 87.0935 44.718 81.424 44.718C75.7547 44.718 71.1422 49.3305 71.1422 55C71.1422 59.2365 73.718 62.8815 77.3849 64.4542H65.6409V23.6034C69.4789 22.767 72.5073 19.7388 73.3435 15.9006H89.5042C90.3404 19.7388 93.3689 22.767 97.2068 23.6034V30.2829C97.2068 31.4692 98.1689 32.4313 99.3553 32.4313C100.542 32.4313 101.504 31.4692 101.504 30.2829V21.6853C101.504 20.4989 100.542 19.5368 99.3553 19.5368C96.1655 19.5368 93.5708 16.9417 93.5708 13.7521C93.5708 12.5658 92.6087 11.6037 91.4224 11.6037H71.4256C70.2392 11.6037 69.2771 12.5658 69.2771 13.7521C69.2771 16.9419 66.6823 19.5368 63.4927 19.5368C62.3063 19.5368 61.3442 20.4989 61.3442 21.6853V64.454H57.1479V4.29924L105.701 4.29688V105.703ZM81.4244 60.9851C78.1242 60.9851 75.4395 58.3002 75.4395 55.0002C75.4395 51.7002 78.1244 49.0151 81.4244 49.0151C84.7244 49.0151 87.4093 51.7 87.4093 55C87.4093 58.3 84.7246 60.9851 81.4244 60.9851Z" fill="#054163"/>
</svg>
