<svg width="60" height="60" viewBox="0 0 60 60" fill="none" xmlns="http://www.w3.org/2000/svg">
<circle cx="30" cy="30" r="30" fill="#00AAE1"/>
<path d="M35.4141 26.9407C35.4141 28.011 35.0898 28.9211 34.4414 29.6711C33.793 30.4211 32.8828 30.9368 31.7109 31.218V31.2883C33.0938 31.4602 34.1406 31.8821 34.8516 32.554C35.5625 33.218 35.918 34.1165 35.918 35.2493C35.918 36.8977 35.3203 38.1829 34.125 39.1047C32.9297 40.0188 31.2227 40.4758 29.0039 40.4758C27.1445 40.4758 25.4961 40.1672 24.0586 39.55V36.468C24.7227 36.804 25.4531 37.0774 26.25 37.2883C27.0469 37.4993 27.8359 37.6047 28.6172 37.6047C29.8125 37.6047 30.6953 37.4016 31.2656 36.9954C31.8359 36.5891 32.1211 35.9368 32.1211 35.0383C32.1211 34.2336 31.793 33.6633 31.1367 33.3274C30.4805 32.9915 29.4336 32.8235 27.9961 32.8235H26.6953V30.0461H28.0195C29.3477 30.0461 30.3164 29.8743 30.9258 29.5305C31.543 29.179 31.8516 28.5813 31.8516 27.7375C31.8516 26.4407 31.0391 25.7922 29.4141 25.7922C28.8516 25.7922 28.2773 25.886 27.6914 26.0735C27.1133 26.261 26.4688 26.5852 25.7578 27.0461L24.082 24.55C25.6445 23.425 27.5078 22.8625 29.6719 22.8625C31.4453 22.8625 32.8438 23.2219 33.8672 23.9407C34.8984 24.6594 35.4141 25.6594 35.4141 26.9407Z" fill="white"/>
</svg>
