<svg width="60" height="60" viewBox="0 0 60 60" fill="none" xmlns="http://www.w3.org/2000/svg">
<circle cx="30" cy="30" r="30" fill="#00AAE1"/>
<path d="M36.2251 40.2415H24.2485V37.7219L28.5493 33.3743C29.8228 32.0696 30.6548 31.1672 31.0454 30.6672C31.436 30.1594 31.7173 29.6907 31.8892 29.261C32.061 28.8313 32.147 28.386 32.147 27.925C32.147 27.2375 31.9556 26.7258 31.5728 26.3899C31.1978 26.054 30.6938 25.886 30.061 25.886C29.397 25.886 28.7524 26.0383 28.1274 26.343C27.5024 26.6477 26.8501 27.0813 26.1704 27.6438L24.2017 25.3118C25.0454 24.593 25.7446 24.0852 26.2993 23.7883C26.854 23.4915 27.4595 23.2649 28.1157 23.1086C28.772 22.9446 29.5063 22.8625 30.3188 22.8625C31.3892 22.8625 32.3345 23.0579 33.1548 23.4485C33.9751 23.8391 34.6118 24.386 35.0649 25.0891C35.5181 25.7922 35.7446 26.5969 35.7446 27.5032C35.7446 28.2922 35.604 29.0344 35.3228 29.7297C35.0493 30.4172 34.6196 31.1243 34.0337 31.8508C33.4556 32.5774 32.4321 33.6125 30.9634 34.9563L28.7603 37.0305V37.1946H36.2251V40.2415Z" fill="white"/>
</svg>
