<svg width="800" height="693" viewBox="0 0 800 693" fill="none" xmlns="http://www.w3.org/2000/svg">
<g clip-path="url(#clip0)">
<path d="M114.721 634.182C267.683 712.386 515.669 712.386 668.631 634.182C821.593 555.978 821.576 429.107 668.631 350.972C515.686 272.836 267.683 272.767 114.721 350.972C-38.2405 429.176 -38.2405 555.926 114.721 634.182Z" fill="#D9F7FF"/>
<path d="M614.967 509.189C623.342 514.032 639.817 512.36 651.759 505.467L720.572 465.503C732.514 458.61 735.392 449.08 726.982 444.237C718.573 439.395 702.098 441.049 690.155 447.943L621.394 487.941C609.452 494.834 606.608 504.347 614.967 509.189Z" fill="#B3DCE8"/>
<path d="M200.629 546.051L130.645 505.639L200.629 465.21V546.051Z" fill="#B3DCE8"/>
<path d="M398.483 570.229L285.657 505.053L398.517 439.998L398.483 570.229Z" fill="#B3DCE8"/>
<path d="M105.95 451.51C106.139 435.138 94.6963 401.086 77.9628 379.63C61.2294 358.175 34.7075 342.286 15.6475 348.61C-2.08543 354.435 -0.465511 377.648 20.8175 393.279C42.1005 408.909 74.0681 428.59 83.1845 455.318L102.589 488.062L105.95 451.51Z" fill="#27DEBF"/>
<path opacity="0.1" d="M105.95 451.51C106.139 435.138 94.6963 401.086 77.9628 379.63C61.2294 358.175 34.7075 342.286 15.6475 348.61C-2.08543 354.435 -0.465511 377.648 20.8175 393.279C42.1005 408.909 74.0681 428.59 83.1845 455.318L102.589 488.062L105.95 451.51Z" fill="black"/>
<path d="M106.846 473.913C106.587 473.891 106.342 473.785 106.149 473.611C105.956 473.436 105.825 473.204 105.777 472.948C95.4373 416.923 50.8206 370.945 23.8678 360.588C23.5749 360.469 23.3404 360.24 23.2147 359.95C23.089 359.659 23.0822 359.332 23.1957 359.037C23.2492 358.889 23.3318 358.754 23.4385 358.639C23.5452 358.524 23.6738 358.432 23.8168 358.368C23.9599 358.303 24.1143 358.268 24.2711 358.265C24.4279 358.261 24.5837 358.289 24.7295 358.347C52.182 368.911 97.6776 415.648 108.138 472.517C108.168 472.671 108.166 472.83 108.134 472.983C108.101 473.137 108.038 473.282 107.948 473.411C107.857 473.539 107.743 473.649 107.61 473.732C107.477 473.815 107.328 473.871 107.173 473.896C107.067 473.927 106.955 473.933 106.846 473.913Z" fill="white"/>
<path d="M98.1087 509.655C95.5927 500.418 84.5289 485.097 66.503 472.327C46.5297 458.196 21.1797 451.51 15.5099 440.636C8.61665 427.59 19.6976 415.458 40.3258 418.232C60.9539 421.007 96.8851 449.786 102.176 492.215L98.1087 509.655Z" fill="#00AAE1"/>
<path d="M102.227 500.039C101.997 500.017 101.779 499.929 101.598 499.785C101.418 499.641 101.283 499.448 101.21 499.229C84.6491 451.148 48.3043 433.898 31.4158 431.502C31.101 431.455 30.8175 431.286 30.627 431.031C30.4366 430.776 30.3546 430.456 30.399 430.141C30.4201 429.984 30.4722 429.833 30.5524 429.696C30.6326 429.56 30.7392 429.441 30.866 429.346C30.9928 429.252 31.1372 429.183 31.2908 429.145C31.4444 429.107 31.6041 429.1 31.7604 429.124C50.4412 431.778 86.562 449.373 103.468 498.453C103.519 498.601 103.541 498.758 103.532 498.915C103.522 499.072 103.482 499.225 103.413 499.366C103.344 499.507 103.248 499.633 103.13 499.736C103.012 499.84 102.875 499.919 102.727 499.97C102.569 500.034 102.397 500.058 102.227 500.039Z" fill="white"/>
<path d="M716.902 404.98C716.902 404.98 719.194 370.514 739.546 344.836C759.899 319.159 758.641 308.647 744.613 303.477C730.585 298.307 698.066 329.154 705.321 370.514C712.576 411.873 716.902 404.98 716.902 404.98Z" fill="#27DEBF"/>
<path opacity="0.1" d="M716.902 404.98C716.902 404.98 719.194 370.514 739.546 344.836C759.899 319.159 758.641 308.647 744.613 303.477C730.585 298.307 698.066 329.154 705.321 370.514C712.576 411.873 716.902 404.98 716.902 404.98Z" fill="black"/>
<path d="M710.749 385.231C710.545 385.231 710.348 385.152 710.201 385.011C710.053 384.87 709.965 384.677 709.956 384.473C707.578 346.456 734.428 315.281 744.423 308.216C744.509 308.156 744.606 308.113 744.708 308.091C744.811 308.068 744.916 308.066 745.02 308.085C745.123 308.103 745.221 308.142 745.31 308.198C745.398 308.255 745.474 308.328 745.534 308.414C745.594 308.5 745.637 308.597 745.659 308.699C745.682 308.802 745.684 308.908 745.666 309.011C745.647 309.114 745.609 309.213 745.552 309.301C745.496 309.389 745.422 309.466 745.336 309.526C735.496 316.419 709.147 347.042 711.507 384.387C711.517 384.599 711.443 384.806 711.301 384.964C711.159 385.122 710.961 385.218 710.749 385.231Z" fill="white"/>
<path d="M711.439 433.449C720.58 436.439 729.944 438.698 739.443 440.205C755.211 442.686 762.156 435.155 762.156 435.155C762.156 435.155 755.952 420.386 747.008 416.199C756.683 418.362 765.923 422.143 774.34 427.383C774.34 427.383 783.973 427.521 787.799 412.856C787.799 412.856 782.095 404.015 762.983 399.241C762.983 399.241 774.615 396.312 791.366 400.585C792.624 401.085 797.984 382.111 799.603 373.34C801.223 364.568 797.708 364.723 790.884 362.862C784.059 361.001 761.449 355.969 757.175 359.708C752.902 363.448 750.73 376.304 750.73 376.304C749.026 371.043 748.8 365.416 750.075 360.036C750.075 360.036 743.94 357.64 734.41 360.398C726.604 362.672 726.225 367.98 726.587 373.977C727.048 379.187 728.207 384.311 730.033 389.212C730.033 389.212 723.95 381.422 723.76 364.516C723.76 364.516 707.803 372.444 705.08 388.298C703.529 396.915 701.392 422.075 711.439 433.449Z" fill="#00AAE1"/>
<path d="M714.454 430.382C714.622 430.38 714.786 430.331 714.926 430.239C715.067 430.148 715.178 430.018 715.247 429.865C727.965 403.464 775.219 372.771 792.159 369.549C792.387 369.503 792.588 369.368 792.718 369.174C792.847 368.98 792.894 368.743 792.848 368.515C792.802 368.285 792.668 368.083 792.475 367.951C792.282 367.819 792.045 367.767 791.814 367.808C774.581 371.151 726.569 402.274 713.644 429.175C713.548 429.386 713.538 429.626 713.615 429.845C713.692 430.063 713.851 430.243 714.058 430.347C714.185 430.39 714.321 430.402 714.454 430.382Z" fill="white"/>
<path d="M99.7805 521.856C97.8159 521.856 96.644 520.236 96.644 517.548V227.668L451.648 22.7134V311.421C451.527 313.832 450.84 316.18 449.642 318.276C448.445 320.372 446.77 322.156 444.755 323.485L102.607 520.977C101.754 521.504 100.782 521.807 99.7805 521.856Z" fill="#FAFAFA"/>
<path d="M450.631 24.4539V311.421C450.49 313.656 449.835 315.828 448.717 317.768C447.6 319.708 446.049 321.363 444.186 322.606L102.09 520.098C101.393 520.549 100.591 520.81 99.7633 520.856C97.8676 520.856 97.6608 518.53 97.6608 517.548V228.237L450.631 24.4539ZM452.648 21.0073L95.6445 227.082V517.548C95.6445 520.908 97.3679 522.873 99.7633 522.873C100.947 522.827 102.098 522.476 103.107 521.856L445.186 324.346C447.357 322.929 449.164 321.021 450.46 318.775C451.757 316.53 452.506 314.01 452.648 311.421V20.9556V21.0073Z" fill="#E0E0E0"/>
<path d="M95.6445 227.082V275.576L452.648 69.467V20.9556L95.6445 227.082Z" fill="#27DEBF"/>
<path d="M123.648 229.667V236.56C123.648 237.973 124.648 238.559 125.889 237.853L235.647 174.469V162.406L125.803 225.755C125.164 226.194 124.636 226.777 124.262 227.456C123.888 228.135 123.678 228.892 123.648 229.667Z" fill="#FAFAFA"/>
<path d="M247.401 155.633C248.641 154.909 249.641 155.495 249.641 156.925V163.819C249.6 164.596 249.376 165.353 248.986 166.027C248.597 166.7 248.054 167.273 247.401 167.696L235.647 174.486V162.423L247.401 155.633Z" fill="#455A64"/>
<path d="M95.6445 211.451C95.786 208.862 96.5353 206.343 97.8317 204.098C99.1281 201.852 100.935 199.944 103.107 198.527L445.186 1.01672C449.304 -1.36146 452.648 0.568655 452.648 5.32502V20.9555L95.6445 227.082V211.451Z" fill="#455A64"/>
<path d="M412.977 27.7281C411.969 28.4007 411.133 29.2995 410.535 30.3527C409.936 31.4059 409.592 32.5845 409.53 33.7942C409.53 36.0345 411.098 36.9307 412.977 35.8278C413.984 35.1552 414.821 34.2564 415.419 33.2032C416.018 32.15 416.361 30.9714 416.424 29.7617C416.475 27.573 414.907 26.6252 412.977 27.7281Z" fill="#27DEBF"/>
<path d="M424.058 21.3173C423.05 21.9899 422.214 22.8887 421.616 23.9419C421.017 24.9951 420.673 26.1737 420.611 27.3834C420.611 29.6238 422.18 30.5199 424.058 29.417C425.065 28.7444 425.902 27.8456 426.5 26.7924C427.099 25.7392 427.443 24.5606 427.505 23.3509C427.556 21.1105 425.988 20.2144 424.058 21.3173Z" fill="#27DEBF"/>
<path d="M435.156 14.9069C434.149 15.5795 433.312 16.4783 432.714 17.5315C432.115 18.5847 431.772 19.7633 431.709 20.973C431.709 23.2133 433.278 24.1095 435.156 22.9893C436.165 22.3224 437.003 21.4273 437.602 20.3765C438.201 19.3256 438.543 18.1485 438.603 16.9405C438.654 14.7001 437.086 13.7868 435.156 14.9069Z" fill="#27DEBF"/>
<g opacity="0.1">
<path opacity="0.1" d="M340.649 101.038C338.423 102.492 336.57 104.449 335.241 106.751C333.912 109.054 333.143 111.636 332.997 114.291C332.997 119.185 336.444 121.184 340.649 118.72C342.874 117.266 344.727 115.309 346.056 113.007C347.385 110.704 348.154 108.122 348.3 105.467C348.3 100.59 344.871 98.6085 340.649 101.038Z" fill="black"/>
<path opacity="0.1" d="M305.648 121.253C303.42 122.704 301.567 124.661 300.237 126.963C298.908 129.266 298.14 131.85 297.997 134.505C297.997 139.382 301.443 141.398 305.648 138.917C307.876 137.465 309.73 135.508 311.059 133.206C312.389 130.903 313.156 128.319 313.3 125.664C313.3 120.787 309.87 118.805 305.648 121.253Z" fill="black"/>
<path opacity="0.1" d="M375.684 80.841C373.456 82.2926 371.602 84.2492 370.273 86.5518C368.943 88.8545 368.176 91.4383 368.032 94.0933C368.032 98.9703 371.479 100.987 375.684 98.505C377.911 97.0534 379.765 95.0968 381.095 92.7941C382.424 90.4915 383.192 87.9077 383.335 85.2527C383.301 80.3757 379.871 78.3939 375.684 80.841Z" fill="black"/>
<path opacity="0.1" d="M410.65 60.592C408.422 62.0436 406.569 64.0002 405.239 66.3028C403.91 68.6055 403.142 71.1893 402.999 73.8443C402.999 78.7213 406.445 80.7376 410.65 78.256C412.878 76.8044 414.732 74.8478 416.061 72.5451C417.391 70.2425 418.158 67.6587 418.302 65.0037C418.302 60.1267 414.872 58.1448 410.65 60.592Z" fill="black"/>
</g>
<path d="M131.11 279.35L214.174 231.39C218.31 229.012 221.636 230.942 221.636 235.699V315.471C221.499 318.061 220.752 320.582 219.455 322.828C218.158 325.074 216.349 326.982 214.174 328.396L131.11 376.356C126.992 378.734 123.648 376.804 123.648 372.048V292.275C123.787 289.686 124.535 287.165 125.832 284.919C127.129 282.673 128.937 280.765 131.11 279.35Z" fill="#E0E0E0"/>
<path d="M250.106 210.659L424.161 110.137C428.28 107.759 431.623 109.689 431.623 114.446V194.218C431.482 196.807 430.733 199.326 429.436 201.572C428.14 203.817 426.333 205.726 424.161 207.143L250.106 307.647C245.97 310.025 242.644 308.095 242.644 303.339V223.584C242.783 220.994 243.531 218.474 244.828 216.228C246.124 213.982 247.933 212.074 250.106 210.659Z" fill="#E0E0E0"/>
<path d="M131.11 400.603L263.186 324.346C267.304 321.968 270.648 323.657 270.648 328.12C270.464 330.626 269.692 333.054 268.396 335.206C267.099 337.359 265.315 339.176 263.186 340.511L131.11 416.768C126.992 419.146 123.648 417.457 123.648 412.994C123.833 410.488 124.604 408.06 125.9 405.908C127.197 403.755 128.982 401.938 131.11 400.603Z" fill="#E0E0E0"/>
<path d="M131.11 428.9L263.186 352.643C267.304 350.265 270.648 351.954 270.648 356.417C270.464 358.923 269.692 361.351 268.396 363.503C267.099 365.656 265.315 367.473 263.186 368.808L131.11 445.065C126.992 447.443 123.648 445.754 123.648 441.291C123.833 438.785 124.604 436.357 125.9 434.205C127.197 432.052 128.982 430.235 131.11 428.9Z" fill="#E0E0E0"/>
<path d="M131.11 457.18L263.186 380.854C267.304 378.476 270.648 380.165 270.648 384.628C270.464 387.134 269.692 389.562 268.396 391.714C267.099 393.867 265.315 395.684 263.186 397.019L131.11 473.345C126.992 475.723 123.648 474.034 123.648 469.571C123.833 467.065 124.604 464.637 125.9 462.485C127.197 460.332 128.982 458.515 131.11 457.18Z" fill="#E0E0E0"/>
<path d="M193.649 361.26C193.732 359.707 194.179 358.196 194.954 356.849C195.73 355.501 196.812 354.356 198.113 353.505L427.177 221.257C428.564 220.56 430.096 220.197 431.649 220.197C433.202 220.197 434.733 220.56 436.121 221.257L441.17 224.187C442.477 225.033 443.565 226.177 444.344 227.525C445.123 228.873 445.571 230.387 445.651 231.942V407.496C445.574 409.062 445.129 410.586 444.35 411.946C443.571 413.306 442.481 414.462 441.17 415.32L212.123 547.499C210.733 548.196 209.198 548.559 207.643 548.559C206.087 548.559 204.553 548.196 203.162 547.499L198.182 544.569C196.88 543.717 195.797 542.572 195.019 541.225C194.241 539.878 193.789 538.367 193.701 536.814L193.649 361.26Z" fill="#EA366C"/>
<path opacity="0.4" d="M194.942 356.848L207.66 364.172L444.341 227.478C443.582 226.115 442.491 224.965 441.17 224.135L436.121 221.24C434.738 220.527 433.205 220.154 431.649 220.154C430.093 220.154 428.559 220.527 427.177 221.24L198.182 353.505C196.832 354.322 195.716 355.473 194.942 356.848Z" fill="white"/>
<path opacity="0.1" d="M193.632 361.26V536.832C193.724 538.39 194.184 539.903 194.975 541.249C195.766 542.594 196.865 543.732 198.182 544.569L203.214 547.499C203.612 547.717 204.027 547.901 204.455 548.051C205.054 548.254 205.671 548.399 206.299 548.481C207.448 548.616 208.611 548.569 209.745 548.344L210.607 548.119L211.141 547.895C210.805 548.047 210.441 548.125 210.073 548.125C209.704 548.125 209.34 548.047 209.004 547.895C208.526 547.579 208.144 547.136 207.9 546.616C207.657 546.096 207.562 545.519 207.626 544.949V369.342C207.579 368.546 207.777 367.754 208.193 367.074C208.608 366.393 209.222 365.856 209.952 365.534L207.626 364.172L194.908 356.848C194.121 358.189 193.682 359.706 193.632 361.26Z" fill="black"/>
<path opacity="0.2" d="M207.66 364.172L313.73 403.808C317.398 405.176 321.422 405.253 325.14 404.028C328.858 402.804 332.049 400.35 334.186 397.07L351.23 370.979L445.185 227.03L354.625 371.962L445.651 407.583C445.565 409.163 445.085 410.698 444.255 412.046L354.366 372.41L334.565 404.101C332.366 407.615 328.974 410.218 325.011 411.433C321.048 412.649 316.78 412.395 312.989 410.719L298.892 404.498L209.038 547.861C208.56 547.544 208.178 547.101 207.935 546.581C207.691 546.061 207.596 545.484 207.66 544.914V541.984L298.462 404.257L207.66 364.172Z" fill="black"/>
<path d="M396.657 162.613V565.714C396.657 570.471 399.983 572.401 404.119 570.023L585.188 465.469C587.362 464.055 589.171 462.147 590.468 459.901C591.765 457.655 592.513 455.134 592.65 452.544V49.4593C592.65 44.7029 589.324 42.7728 585.188 45.151L404.119 149.688C401.944 151.102 400.135 153.009 398.838 155.256C397.542 157.502 396.794 160.023 396.657 162.613Z" fill="#FAFAFA" stroke="#E0E0E0" stroke-width="1.17" stroke-miterlimit="10"/>
<path d="M407.152 170.126C407.204 169.489 407.406 168.872 407.742 168.327C408.077 167.782 408.536 167.324 409.082 166.99L429.762 155.082C430.83 154.461 431.709 154.875 431.709 155.978C431.654 156.619 431.448 157.238 431.11 157.786C430.772 158.334 430.31 158.795 429.762 159.132L409.082 171.022C408.014 171.643 407.152 171.246 407.152 170.126Z" fill="#455A64"/>
<path d="M407.152 178.157C407.204 177.519 407.406 176.903 407.742 176.358C408.077 175.813 408.536 175.354 409.082 175.02L429.762 163.112C430.83 162.492 431.709 162.888 431.709 164.008C431.649 164.655 431.437 165.278 431.089 165.826C430.742 166.374 430.269 166.832 429.71 167.162L409.03 179.07C408.014 179.673 407.152 179.225 407.152 178.157Z" fill="#455A64"/>
<path d="M407.152 186.119C407.203 185.481 407.404 184.864 407.74 184.318C408.075 183.773 408.535 183.315 409.082 182.982L429.762 171.074C430.83 170.454 431.709 170.85 431.709 171.97C431.652 172.609 431.447 173.225 431.108 173.77C430.77 174.315 430.309 174.772 429.762 175.107L409.082 187.015C408.014 187.704 407.152 187.308 407.152 186.119Z" fill="#455A64"/>
<path d="M578.656 82.8228V79.6001C578.656 79.4106 578.519 79.3244 578.329 79.3933L575.865 80.5135C575.826 80.5366 575.783 80.5499 575.738 80.5524C575.693 80.5549 575.649 80.5464 575.608 80.5277C575.567 80.5091 575.532 80.4807 575.504 80.4452C575.477 80.4097 575.459 80.3681 575.451 80.3239C575.307 79.8965 575.116 79.4862 574.882 79.1004C574.84 79.0055 574.818 78.9027 574.818 78.7988C574.818 78.6949 574.84 78.5921 574.882 78.4972L576.606 75.154C576.645 75.0706 576.653 74.9755 576.628 74.8866C576.603 74.7978 576.546 74.7213 576.468 74.6714L574.745 73.6375C574.704 73.6123 574.659 73.5955 574.611 73.588C574.564 73.5805 574.516 73.5824 574.469 73.5936C574.423 73.6048 574.379 73.6251 574.341 73.6534C574.302 73.6816 574.269 73.7172 574.245 73.7581L572.177 76.8601C572.113 76.9402 572.031 77.005 571.939 77.0498C571.846 77.0945 571.745 77.118 571.643 77.1186C571.19 77.1055 570.738 77.1519 570.298 77.2564C570.257 77.2665 570.215 77.2676 570.173 77.2597C570.132 77.2517 570.092 77.2349 570.058 77.2104C570.024 77.1858 569.995 77.1541 569.974 77.1174C569.953 77.0808 569.94 77.04 569.936 76.9979L569.661 74.2923C569.665 74.2509 569.656 74.2092 569.636 74.1728C569.615 74.1364 569.585 74.107 569.547 74.0884C569.51 74.0698 569.468 74.0628 569.427 74.0684C569.386 74.0741 569.347 74.092 569.316 74.12L566.524 75.7227C566.438 75.7828 566.365 75.8595 566.309 75.9483C566.252 76.0371 566.214 76.1361 566.197 76.2397L565.921 79.3416C565.884 79.5618 565.782 79.7658 565.628 79.9276C565.081 80.4439 564.563 80.9905 564.077 81.5647C564.013 81.6406 563.929 81.6959 563.834 81.7235C563.738 81.7511 563.637 81.7498 563.543 81.7198L561.82 81.0994C561.729 81.0686 561.631 81.0687 561.54 81.0999C561.45 81.1311 561.372 81.1916 561.32 81.2718L559.269 84.8218C559.217 84.9063 559.197 85.0069 559.213 85.105C559.228 85.2031 559.279 85.2922 559.355 85.356L560.786 86.5968C560.86 86.6652 560.913 86.7539 560.937 86.8519C560.962 86.9499 560.957 87.0529 560.923 87.1483C560.666 87.8522 560.453 88.5717 560.286 89.3024C560.22 89.5167 560.094 89.7079 559.924 89.8539L557.373 91.5772C557.29 91.6432 557.222 91.7268 557.174 91.8221C557.126 91.9174 557.1 92.0221 557.098 92.1287V95.3341C557.098 95.5236 557.236 95.627 557.408 95.5408L559.889 94.4207C559.929 94.4043 559.971 94.3963 560.014 94.397C560.057 94.3978 560.099 94.4074 560.138 94.4252C560.176 94.443 560.211 94.4686 560.24 94.5005C560.268 94.5323 560.29 94.5697 560.303 94.6103C560.438 95.0438 560.623 95.4602 560.855 95.851C560.902 95.9446 560.926 96.0479 560.926 96.1526C560.926 96.2573 560.902 96.3606 560.855 96.4542L559.131 99.7802C559.093 99.8656 559.088 99.9621 559.116 100.051C559.145 100.14 559.205 100.216 559.286 100.263L561.01 101.297C561.091 101.345 561.187 101.361 561.279 101.342C561.372 101.323 561.454 101.27 561.509 101.193L563.526 98.2292C563.594 98.148 563.678 98.0816 563.773 98.0342C563.868 97.9868 563.971 97.9593 564.077 97.9535C564.529 97.9641 564.981 97.9177 565.421 97.8156C565.463 97.8083 565.507 97.8098 565.548 97.8199C565.59 97.83 565.628 97.8486 565.662 97.8745C565.696 97.9004 565.725 97.933 565.745 97.9703C565.766 98.0076 565.779 98.0488 565.783 98.0914L566.059 100.797C566.058 100.835 566.068 100.873 566.088 100.906C566.107 100.939 566.135 100.966 566.169 100.984C566.203 101.002 566.242 101.01 566.28 101.008C566.318 101.005 566.355 100.992 566.386 100.969L569.178 99.3494C569.27 99.2942 569.349 99.2192 569.409 99.1298C569.468 99.0403 569.507 98.9387 569.523 98.8324L569.799 95.7304C569.825 95.5117 569.929 95.3098 570.092 95.1617C570.64 94.6219 571.153 94.0462 571.625 93.4384C571.692 93.3611 571.779 93.3051 571.878 93.2775C571.976 93.2499 572.08 93.2519 572.177 93.2833L573.9 93.9037C573.993 93.933 574.092 93.9302 574.183 93.8958C574.274 93.8614 574.35 93.7974 574.4 93.7141L576.451 90.1641C576.508 90.0868 576.539 89.9932 576.539 89.897C576.539 89.8008 576.508 89.7071 576.451 89.6299L575.02 88.4063C574.946 88.3337 574.893 88.2428 574.866 88.1429C574.839 88.043 574.838 87.9377 574.865 87.8376C575.141 87.1382 575.36 86.4179 575.52 85.6835C575.576 85.4691 575.704 85.2805 575.882 85.1492L578.415 83.4259C578.499 83.3503 578.564 83.2567 578.605 83.1522C578.647 83.0477 578.665 82.935 578.656 82.8228ZM567.748 92.9386C565.146 94.4379 563.043 93.2316 563.043 90.2158C563.126 88.5818 563.596 86.9909 564.414 85.5738C565.232 84.1568 566.375 82.9541 567.748 82.0645C570.35 80.5652 572.47 81.7888 572.47 84.7873C572.384 86.4229 571.912 88.0148 571.091 89.432C570.27 90.8491 569.124 92.051 567.748 92.9386Z" fill="#37474F"/>
<path d="M494.593 162.268C515.738 150.049 532.902 159.958 532.902 184.378C532.902 208.797 515.669 238.525 494.593 250.743C473.517 262.961 456.266 253.052 456.266 228.616C456.266 204.179 473.499 174.486 494.593 162.268Z" fill="#455A64"/>
<path d="M494.387 181.5C501.28 177.536 506.812 180.742 506.812 188.669C506.586 192.99 505.343 197.196 503.184 200.946C501.025 204.695 498.01 207.881 494.387 210.245C487.493 214.209 481.961 211.003 481.961 203.076C482.187 198.755 483.43 194.549 485.589 190.8C487.748 187.05 490.763 183.864 494.387 181.5Z" fill="#27DEBF"/>
<path d="M518.874 223.756C518.874 210.728 509.741 205.454 498.453 211.968L491.405 216.035C480.134 222.55 470.983 238.439 470.983 251.398V255.051C473.111 255.732 475.333 256.069 477.566 256.051C483.62 255.86 489.517 254.076 494.662 250.881C504.423 244.83 512.674 236.631 518.788 226.91L518.874 223.756Z" fill="#27DEBF"/>
<path d="M460.127 287.088L529.284 247.159C531.352 245.97 533.023 246.814 533.023 249.054C532.93 250.307 532.542 251.52 531.893 252.595C531.243 253.669 530.349 254.576 529.284 255.241L460.127 295.17C458.059 296.36 456.387 295.515 456.387 293.292C456.478 292.037 456.864 290.82 457.514 289.742C458.164 288.664 459.059 287.755 460.127 287.088Z" fill="#27DEBF"/>
<path d="M452.648 315.644L536.66 267.115C538.71 265.926 540.382 266.77 540.382 269.01C540.289 270.261 539.904 271.472 539.257 272.547C538.611 273.621 537.721 274.529 536.66 275.197L452.648 323.76C450.597 324.949 448.925 324.105 448.925 321.865C449.016 320.609 449.4 319.392 450.046 318.311C450.693 317.231 451.584 316.317 452.648 315.644Z" fill="#455A64"/>
<path d="M538.899 306.234L562.423 292.654C563.646 291.948 564.663 292.275 564.663 293.378C564.569 294.067 564.318 294.725 563.929 295.301C563.541 295.878 563.026 296.358 562.423 296.704L538.899 310.284C537.659 310.991 536.659 310.663 536.659 309.56C536.75 308.87 536.999 308.211 537.388 307.634C537.777 307.057 538.294 306.577 538.899 306.234Z" fill="#37474F"/>
<path d="M421.387 366.016L455.853 346.077C457.921 344.888 459.593 345.853 459.593 348.232V371.944C459.522 373.24 459.147 374.501 458.497 375.624C457.847 376.747 456.941 377.7 455.853 378.407L421.387 398.346C419.319 399.535 417.647 398.57 417.647 396.192V372.479C417.717 371.183 418.093 369.922 418.743 368.799C419.392 367.676 420.298 366.723 421.387 366.016Z" fill="#27DEBF"/>
<path d="M426.884 369.325L450.407 355.745C451.648 355.039 452.647 355.366 452.647 356.469C452.557 357.159 452.307 357.818 451.918 358.396C451.53 358.973 451.012 359.452 450.407 359.795L426.884 373.375C425.66 374.081 424.661 373.754 424.661 372.634C424.755 371.949 425.004 371.295 425.389 370.722C425.774 370.148 426.286 369.671 426.884 369.325Z" fill="#FAFAFA"/>
<path d="M424.661 381.285V388.178C424.661 389.608 425.66 390.177 426.884 389.47L450.407 375.891C451.057 375.464 451.599 374.891 451.988 374.218C452.377 373.545 452.603 372.79 452.647 372.013V365.12C452.647 363.69 451.648 363.121 450.407 363.827L426.884 377.407C426.237 377.836 425.699 378.409 425.313 379.083C424.927 379.756 424.704 380.51 424.661 381.285Z" fill="#FAFAFA"/>
<path d="M477.36 333.687L511.912 313.748C513.963 312.541 515.634 313.507 515.634 315.902V339.615C515.563 340.908 515.189 342.167 514.543 343.289C513.896 344.412 512.995 345.367 511.912 346.077L477.36 366.016C475.309 367.205 473.637 366.24 473.637 363.862V340.149C473.708 338.856 474.082 337.597 474.729 336.475C475.375 335.352 476.276 334.397 477.36 333.687Z" fill="#27DEBF"/>
<path d="M482.892 336.996L506.415 323.416C507.656 322.692 508.655 323.019 508.655 324.14C508.566 324.828 508.317 325.485 507.928 326.06C507.539 326.634 507.021 327.11 506.415 327.448L482.892 341.045C481.651 341.752 480.651 341.424 480.651 340.304C480.743 339.617 480.993 338.96 481.382 338.386C481.771 337.812 482.288 337.336 482.892 336.996Z" fill="#FAFAFA"/>
<path d="M480.651 348.955V355.849C480.651 357.262 481.651 357.848 482.892 357.141L506.415 343.544C507.068 343.121 507.612 342.548 508.001 341.874C508.39 341.2 508.615 340.444 508.655 339.667V332.773C508.655 331.343 507.656 330.774 506.415 331.481L482.892 345.061C482.236 345.486 481.691 346.061 481.302 346.738C480.912 347.415 480.689 348.175 480.651 348.955Z" fill="#FAFAFA"/>
<path d="M533.385 301.34L567.851 281.401C569.919 280.212 571.591 281.177 571.591 283.555V307.268C571.523 308.564 571.149 309.826 570.499 310.95C569.849 312.073 568.941 313.026 567.851 313.731L533.385 333.687C531.317 334.876 529.663 333.911 529.663 331.533V307.802C529.73 306.508 530.102 305.248 530.749 304.125C531.396 303.002 532.299 302.047 533.385 301.34Z" fill="#27DEBF"/>
<path d="M538.899 304.666L562.423 291.086C563.646 290.362 564.646 290.69 564.646 291.81C564.557 292.496 564.31 293.152 563.924 293.726C563.539 294.301 563.024 294.777 562.423 295.119L538.899 308.699C537.659 309.422 536.659 309.095 536.659 307.975C536.749 307.287 536.998 306.629 537.387 306.054C537.776 305.48 538.294 305.004 538.899 304.666Z" fill="#FAFAFA"/>
<path d="M536.659 316.626V323.519C536.659 324.949 537.659 325.535 538.899 324.812L562.423 311.232C563.074 310.806 563.616 310.234 564.005 309.56C564.394 308.887 564.62 308.131 564.663 307.354V300.461C564.663 299.031 563.646 298.445 562.423 299.169L538.899 312.748C538.246 313.172 537.703 313.744 537.314 314.418C536.924 315.092 536.7 315.848 536.659 316.626Z" fill="#FAFAFA"/>
<path d="M425.109 420.49L564.198 340.201C568.317 337.823 571.66 339.511 571.66 343.975C571.476 346.481 570.705 348.908 569.408 351.061C568.112 353.214 566.327 355.031 564.198 356.366L425.109 436.655C420.99 439.033 417.647 437.344 417.647 432.881C417.831 430.375 418.603 427.947 419.899 425.795C421.195 423.642 422.98 421.825 425.109 420.49Z" fill="#E0E0E0"/>
<path d="M425.109 452.768L564.198 372.479C568.317 370.1 571.66 371.789 571.66 376.253C571.476 378.759 570.705 381.186 569.408 383.339C568.112 385.491 566.327 387.309 564.198 388.643L425.109 468.933C420.99 471.311 417.647 469.622 417.647 465.159C417.831 462.653 418.603 460.225 419.899 458.073C421.195 455.92 422.98 454.103 425.109 452.768Z" fill="#E0E0E0"/>
<path d="M470.467 467.02L519.012 438.999C521.063 437.81 522.735 438.775 522.735 441.153V456.784C522.664 458.077 522.29 459.336 521.643 460.458C520.997 461.581 520.096 462.535 519.012 463.246L470.467 491.302C468.416 492.491 466.744 491.526 466.744 489.147V473.517C466.81 472.218 467.181 470.952 467.828 469.823C468.475 468.694 469.379 467.734 470.467 467.02Z" fill="#27DEBF"/>
<path d="M428.159 422.817C427.148 423.485 426.309 424.383 425.71 425.437C425.111 426.491 424.769 427.672 424.712 428.883C424.712 431.106 426.263 432.019 428.159 430.899C429.168 430.228 430.006 429.33 430.605 428.276C431.204 427.223 431.546 426.043 431.606 424.833C431.657 422.61 430.089 421.696 428.159 422.817Z" fill="#FAFAFA"/>
<path d="M439.24 416.406C438.231 417.077 437.393 417.975 436.794 419.028C436.196 420.082 435.853 421.262 435.793 422.472C435.793 424.695 437.362 425.608 439.24 424.488C440.249 423.818 441.087 422.919 441.686 421.866C442.285 420.812 442.627 419.633 442.687 418.422C442.738 416.199 441.17 415.32 439.24 416.406Z" fill="#FAFAFA"/>
<path d="M450.321 409.995C449.311 410.666 448.474 411.564 447.875 412.618C447.276 413.671 446.933 414.851 446.874 416.061C446.874 418.284 448.442 419.198 450.321 418.078C451.331 417.408 452.17 416.51 452.768 415.456C453.367 414.402 453.709 413.222 453.767 412.012C453.836 409.788 452.268 408.875 450.321 409.995Z" fill="#FAFAFA"/>
<path d="M461.419 403.585C460.41 404.255 459.572 405.154 458.973 406.207C458.375 407.261 458.032 408.44 457.973 409.651C457.973 411.874 459.541 412.787 461.419 411.667C462.429 410.996 463.266 410.098 463.865 409.044C464.464 407.991 464.807 406.811 464.866 405.601C464.918 403.378 463.349 402.464 461.419 403.585Z" fill="#FAFAFA"/>
<path d="M472.5 397.174C471.49 397.845 470.653 398.743 470.054 399.796C469.455 400.85 469.113 402.03 469.053 403.24C469.053 405.463 470.621 406.376 472.5 405.256C473.509 404.586 474.347 403.687 474.946 402.634C475.544 401.58 475.887 400.401 475.947 399.19C475.998 396.967 474.43 396.054 472.5 397.174Z" fill="#FAFAFA"/>
<path d="M483.598 390.763C482.589 391.433 481.751 392.332 481.153 393.385C480.554 394.439 480.211 395.619 480.152 396.829C480.152 399.052 481.72 399.965 483.598 398.845C484.608 398.175 485.446 397.276 486.044 396.223C486.643 395.169 486.986 393.99 487.045 392.779C487.097 390.556 485.529 389.643 483.598 390.763Z" fill="#FAFAFA"/>
<path d="M494.679 384.3C493.67 384.971 492.832 385.869 492.233 386.923C491.635 387.977 491.292 389.156 491.232 390.366C491.232 392.59 492.801 393.503 494.679 392.383C495.688 391.712 496.526 390.814 497.125 389.76C497.724 388.707 498.066 387.527 498.126 386.317C498.177 384.145 496.609 383.232 494.679 384.3Z" fill="#FAFAFA"/>
<path d="M428.159 455.181C427.148 455.85 426.309 456.747 425.71 457.801C425.111 458.856 424.769 460.036 424.712 461.247C424.712 463.47 426.263 464.384 428.159 463.263C429.168 462.593 430.006 461.694 430.605 460.641C431.204 459.587 431.546 458.408 431.606 457.197C431.657 454.957 430.089 454.061 428.159 455.181Z" fill="#FAFAFA"/>
<path d="M439.24 448.77C438.231 449.44 437.393 450.339 436.794 451.392C436.196 452.446 435.853 453.625 435.793 454.836C435.793 457.059 437.362 457.972 439.24 456.852C440.249 456.182 441.087 455.283 441.686 454.23C442.285 453.176 442.627 451.996 442.687 450.786C442.738 448.563 441.17 447.65 439.24 448.77Z" fill="#FAFAFA"/>
<path d="M450.321 442.359C449.311 443.03 448.474 443.928 447.875 444.982C447.276 446.036 446.933 447.215 446.874 448.426C446.874 450.649 448.442 451.562 450.321 450.442C451.331 449.772 452.17 448.874 452.768 447.82C453.367 446.766 453.709 445.586 453.767 444.376C453.836 442.153 452.268 441.17 450.321 442.359Z" fill="#FAFAFA"/>
<path d="M461.419 436C460.41 436.671 459.572 437.569 458.973 438.623C458.375 439.676 458.032 440.856 457.973 442.066C457.973 444.289 459.541 445.203 461.419 444.082C462.429 443.412 463.266 442.514 463.865 441.46C464.464 440.406 464.807 439.227 464.866 438.016C464.918 435.742 463.349 434.828 461.419 436Z" fill="#FAFAFA"/>
<path d="M472.5 429.538C471.49 430.208 470.653 431.107 470.054 432.16C469.455 433.214 469.113 434.393 469.053 435.604C469.053 437.827 470.621 438.74 472.5 437.62C473.509 436.949 474.347 436.051 474.946 434.998C475.544 433.944 475.887 432.764 475.947 431.554C475.998 429.331 474.43 428.418 472.5 429.538Z" fill="#FAFAFA"/>
<path d="M483.598 423.127C482.589 423.798 481.751 424.696 481.153 425.75C480.554 426.803 480.211 427.983 480.152 429.193C480.152 431.416 481.72 432.33 483.598 431.21C484.608 430.539 485.446 429.641 486.044 428.587C486.643 427.533 486.986 426.354 487.045 425.143C487.097 422.92 485.529 422.007 483.598 423.127Z" fill="#FAFAFA"/>
<path d="M494.679 416.716C493.67 417.387 492.832 418.285 492.233 419.338C491.635 420.392 491.292 421.572 491.232 422.782C491.232 425.005 492.801 425.918 494.679 424.798C495.688 424.128 496.526 423.229 497.125 422.176C497.724 421.122 498.066 419.943 498.126 418.732C498.177 416.509 496.609 415.596 494.679 416.716Z" fill="#FAFAFA"/>
<path d="M650.209 489.578C644.252 489.613 638.393 488.061 633.234 485.08C620.826 477.911 613.692 462.901 613.692 443.91C613.692 410.512 634.923 372.082 662.031 356.434C676.628 348.025 691.121 347.111 702.839 353.867C715.264 361.053 722.382 376.046 722.382 395.054C722.382 428.452 701.15 466.865 674.043 482.513C666.86 486.927 658.637 489.364 650.209 489.578ZM685.882 373.444C681.704 373.733 677.661 375.047 674.112 377.269C654.431 388.626 637.801 419.146 637.801 443.91C637.801 453.94 640.627 461.54 645.332 464.263C650.692 467.365 658.136 463.987 662.1 461.695C681.78 450.338 698.41 419.818 698.41 395.054C698.41 385.024 695.601 377.407 690.897 374.702C689.367 373.844 687.636 373.409 685.882 373.444Z" fill="#455A64"/>
<path d="M702.633 400.396C702.633 381.629 690.828 374.702 690.828 374.702C695.532 377.407 698.342 385.042 698.342 395.054C698.342 419.818 681.711 450.338 662.031 461.695C658.067 463.987 650.623 467.365 645.263 464.263C645.263 464.263 655.241 470.449 669.011 462.936C688.967 452.062 702.633 425.16 702.633 400.396Z" fill="#37474F"/>
<path d="M683.676 165.869C683.676 162.574 682.367 159.414 680.037 157.084C677.706 154.753 674.546 153.444 671.251 153.444C667.955 153.444 664.795 154.753 662.465 157.084C660.135 159.414 658.826 162.574 658.826 165.869V363.621C658.924 364.713 659.313 365.759 659.952 366.65C660.592 367.541 661.458 368.245 662.462 368.687C665.185 370.072 668.196 370.794 671.251 370.794C674.305 370.794 677.317 370.072 680.04 368.687C681.043 368.245 681.91 367.541 682.55 366.65C683.189 365.759 683.578 364.713 683.676 363.621V165.904V165.869Z" fill="#37474F"/>
<path d="M673.819 210.038C673.68 207.549 672.957 205.127 671.708 202.968C670.46 200.81 668.721 198.975 666.632 197.613C665.896 197.069 665.023 196.739 664.111 196.66C663.198 196.581 662.282 196.756 661.462 197.165L630.736 214.812L629.995 215.26C629.891 215.308 629.793 215.365 629.702 215.432C629.173 215.782 628.682 216.187 628.237 216.639C626.492 218.356 625.426 220.646 625.236 223.086C625.046 225.527 625.745 227.954 627.203 229.921C628.662 231.887 630.782 233.26 633.173 233.787C635.564 234.313 638.064 233.958 640.214 232.786L640.8 232.459L671.664 214.674C672.394 214.154 672.977 213.454 673.355 212.641C673.732 211.828 673.892 210.931 673.819 210.038Z" fill="#455A64"/>
<path d="M673.819 259.549C673.684 257.058 672.963 254.635 671.714 252.476C670.465 250.317 668.724 248.483 666.633 247.124C665.898 246.577 665.026 246.244 664.113 246.162C663.201 246.079 662.283 246.252 661.463 246.659L625.514 267.339L624.773 267.769C624.67 267.817 624.572 267.875 624.48 267.942C623.953 268.301 623.457 268.705 622.998 269.148C621.876 270.265 621.031 271.628 620.528 273.129C620.025 274.631 619.879 276.228 620.102 277.796C620.324 279.363 620.909 280.857 621.809 282.159C622.71 283.461 623.902 284.535 625.29 285.296C626.781 286.098 628.448 286.518 630.141 286.518C631.835 286.518 633.501 286.098 634.992 285.296L635.578 284.968L671.768 264.288C672.505 263.756 673.084 263.035 673.445 262.201C673.806 261.367 673.935 260.451 673.819 259.549Z" fill="#455A64"/>
</g>
<defs>
<clipPath id="clip0">
<rect width="800" height="692.775" fill="white"/>
</clipPath>
</defs>
</svg>
