<svg width="112" height="63" viewBox="0 0 112 63" fill="none" xmlns="http://www.w3.org/2000/svg">
<path d="M4.71379 39.7074L39.7419 4.7185L45.5566 10.5167L16.3231 39.7074H37.2099L56.045 20.9933L74.7801 39.7074H95.6769L66.4434 10.5067L72.2481 4.70851L107.276 39.6974H111.99L72.2481 0L64.0515 8.15741L56.045 0.0699778L47.9085 8.15741L39.7419 0L0 39.7074H4.71379ZM87.6304 36.3785H76.1612L58.3569 18.5841L64.0515 12.8559L87.6304 36.3785ZM56.045 4.77848L61.7796 10.5067L56.045 16.2348L50.3104 10.5067L56.045 4.77848ZM53.6431 18.5841L35.8388 36.3785H24.3696L47.9085 12.8559L53.6431 18.5841Z" fill="white"/>
<path d="M7.59591 48.5449V50.2544H2.46178V53.4634H6.465V55.1228H2.46178V58.3918H7.59591V60.1112H0.290039V48.5449H7.59591Z" fill="white"/>
<path d="M14.2214 53.5034C14.1836 53.5788 14.1245 53.6414 14.0513 53.6834C13.9795 53.7051 13.9029 53.7051 13.8311 53.6834C13.7225 53.6843 13.6155 53.6567 13.5209 53.6034L13.1406 53.4235L12.6502 53.2435C12.4378 53.1886 12.2191 53.1617 11.9997 53.1635C11.6736 53.1431 11.3498 53.231 11.0789 53.4135C10.9719 53.4843 10.8846 53.581 10.8251 53.6946C10.7656 53.8083 10.7359 53.9351 10.7386 54.0633C10.7372 54.2262 10.7981 54.3835 10.9088 54.5031C11.0426 54.6355 11.1984 54.7437 11.3692 54.823C11.5759 54.9199 11.7901 55.0001 12.0097 55.0629L12.7503 55.3029C12.9994 55.3847 13.2434 55.4816 13.4809 55.5928C13.7175 55.6994 13.9368 55.8409 14.1314 56.0126C14.3222 56.1786 14.4757 56.383 14.5817 56.6124C14.7077 56.8776 14.7695 57.1687 14.7619 57.4622C14.7624 57.8365 14.6876 58.207 14.5417 58.5518C14.4015 58.8836 14.1856 59.178 13.9112 59.4116C13.621 59.6692 13.2801 59.8633 12.9104 59.9814C12.458 60.1275 11.9847 60.1984 11.5093 60.1913C11.2305 60.1904 10.9524 60.1637 10.6786 60.1113C10.4053 60.0903 10.1341 60.0468 9.86795 59.9814C9.62974 59.893 9.39884 59.786 9.1774 59.6615C8.98096 59.547 8.79655 59.413 8.62695 59.2616L9.07731 58.5118C9.13153 58.4277 9.2032 58.3561 9.28748 58.3019C9.38217 58.2497 9.48977 58.2254 9.59773 58.2319C9.71873 58.2296 9.83752 58.2645 9.93801 58.3319L10.3183 58.5518C10.483 58.64 10.6535 58.7169 10.8287 58.7818C11.0682 58.8562 11.3186 58.89 11.5693 58.8817C11.7756 58.8844 11.9812 58.8575 12.1798 58.8017C12.3275 58.751 12.4661 58.6767 12.5901 58.5818C12.6954 58.4966 12.7779 58.3867 12.8303 58.2619C12.8804 58.1448 12.9075 58.0193 12.9104 57.892C12.9154 57.7195 12.8546 57.5516 12.7403 57.4222C12.6064 57.2898 12.4507 57.1816 12.2799 57.1023C12.0688 57.0046 11.8515 56.9211 11.6294 56.8524L10.8888 56.6224C10.6419 56.5358 10.3917 56.4358 10.1382 56.3225C9.90382 56.2088 9.68791 56.0605 9.49765 55.8827C9.28796 55.6932 9.12082 55.4615 9.00726 55.2029C8.88779 54.9113 8.82987 54.5982 8.83712 54.2832C8.83106 53.9395 8.89934 53.5985 9.03728 53.2835C9.17014 52.9752 9.37217 52.7016 9.62776 52.4838C9.92075 52.2371 10.2614 52.0534 10.6286 51.9439C11.0755 51.8072 11.5429 51.7497 12.0097 51.774C12.5396 51.7706 13.0656 51.8655 13.5609 52.0539C13.9931 52.2213 14.3877 52.4728 14.7219 52.7937L14.2214 53.5034Z" fill="white"/>
<path d="M19.0152 60.2407C18.7142 60.2591 18.4126 60.2143 18.13 60.1093C17.8473 60.0042 17.5897 59.8413 17.3739 59.6309C16.9804 59.1748 16.7826 58.5822 16.8234 57.9814V53.3829H16.0128C15.91 53.3868 15.8096 53.351 15.7326 53.2829C15.694 53.2395 15.6644 53.1889 15.6455 53.134C15.6266 53.0791 15.6188 53.021 15.6225 52.963V52.1833L16.9235 51.9834L17.3338 49.7441C17.3413 49.696 17.3585 49.65 17.3843 49.6087C17.4101 49.5675 17.444 49.5319 17.484 49.5041C17.5684 49.4436 17.6703 49.412 17.7742 49.4142H18.775V51.9834H21.0168V53.3829H18.805V57.8315C18.7922 58.048 18.8599 58.2616 18.9952 58.4313C19.0601 58.501 19.1393 58.5558 19.2274 58.5921C19.3155 58.6283 19.4104 58.6451 19.5056 58.6412C19.6083 58.6586 19.7132 58.6586 19.8158 58.6412L20.036 58.5513L20.1961 58.4613C20.242 58.449 20.2904 58.449 20.3363 58.4613C20.3851 58.4459 20.4375 58.4459 20.4864 58.4613L20.6065 58.5913L21.197 59.5909C20.9008 59.8329 20.5611 60.0162 20.1961 60.1308C19.8107 60.2287 19.4122 60.2658 19.0152 60.2407Z" fill="white"/>
<path d="M29.0235 60.1112H28.1428C27.9907 60.1198 27.8389 60.0888 27.7024 60.0212C27.6394 59.9862 27.5851 59.9375 27.5435 59.8786C27.5019 59.8198 27.4742 59.7524 27.4622 59.6813L27.2821 59.1015C27.0891 59.2774 26.8852 59.441 26.6716 59.5914C26.4666 59.7401 26.2489 59.8705 26.0211 59.9813C25.8034 60.078 25.5749 60.1484 25.3405 60.1912C25.0771 60.245 24.8088 60.2718 24.5399 60.2712C24.201 60.2774 23.8632 60.2301 23.5391 60.1312C23.2591 60.0406 23.0004 59.8944 22.7785 59.7013C22.5659 59.5105 22.3984 59.2749 22.2881 59.0116C22.1596 58.6943 22.0983 58.354 22.1079 58.0119C22.1175 57.693 22.2033 57.3811 22.3581 57.1022C22.5498 56.7612 22.8298 56.4781 23.1688 56.2824C23.6358 55.998 24.1463 55.792 24.68 55.6726C25.4476 55.4948 26.234 55.4109 27.0219 55.4227V54.9828C27.0579 54.5441 26.9334 54.1073 26.6716 53.7532C26.5452 53.6163 26.3897 53.5093 26.2165 53.4401C26.0434 53.3709 25.8569 53.3413 25.6708 53.3534C25.3998 53.3476 25.1296 53.3848 24.8701 53.4633C24.6751 53.5268 24.4872 53.6106 24.3097 53.7132L23.8693 53.9632C23.7366 54.0434 23.5841 54.085 23.429 54.0831C23.3068 54.0832 23.1877 54.0447 23.0887 53.9732C22.9945 53.9078 22.9159 53.8224 22.8585 53.7232L22.4982 53.0834C23.4263 52.2293 24.6493 51.7672 25.911 51.7939C26.3561 51.773 26.8011 51.8375 27.222 51.9838C27.5833 52.1352 27.9084 52.3614 28.1758 52.6474C28.4431 52.9335 28.6468 53.2729 28.7733 53.6433C28.9132 54.0551 28.9809 54.488 28.9734 54.9229L29.0235 60.1112ZM25.1304 58.8816C25.3189 58.8836 25.507 58.8635 25.6908 58.8216C25.8596 58.7864 26.0241 58.7328 26.1812 58.6617C26.3358 58.5813 26.4832 58.4877 26.6215 58.3818C26.7654 58.2593 26.8993 58.1256 27.0219 57.9819V56.6323C26.5357 56.6216 26.0497 56.6584 25.5707 56.7423C25.2491 56.7925 24.9359 56.8867 24.64 57.0222C24.4414 57.1054 24.2687 57.24 24.1396 57.4121C24.0408 57.5563 23.9885 57.7272 23.9894 57.9019C23.9771 58.0426 23.9989 58.1841 24.0529 58.3146C24.1069 58.4451 24.1915 58.5607 24.2997 58.6517C24.5434 58.8182 24.8356 58.8991 25.1304 58.8816Z" fill="white"/>
<path d="M33.6171 60.2404C33.3246 60.2495 33.0333 60.2002 32.76 60.0955C32.4868 59.9908 32.2372 59.8328 32.0259 59.6306C31.6108 59.1831 31.388 58.5909 31.4054 57.9811V53.3826H30.5747C30.4719 53.3865 30.3716 53.3507 30.2945 53.2826C30.2526 53.2411 30.2202 53.191 30.1995 53.1358C30.1787 53.0805 30.1702 53.0215 30.1744 52.9627V52.183L31.4954 51.983L31.9158 49.7437C31.9156 49.6952 31.9253 49.6472 31.9443 49.6025C31.9632 49.5579 31.9909 49.5175 32.0259 49.4838C32.1096 49.4219 32.212 49.3902 32.3161 49.3938H33.3169V51.983H35.4786V53.3826H33.377V57.8312C33.3679 58.0488 33.4391 58.2623 33.5771 58.431C33.6416 58.5012 33.7207 58.5564 33.8089 58.5927C33.8971 58.629 33.9922 58.6454 34.0875 58.6409C34.1903 58.657 34.295 58.657 34.3978 58.6409L34.6079 58.5509L34.7781 58.461C34.8237 58.4471 34.8725 58.4471 34.9182 58.461C34.9634 58.4441 35.0131 58.4441 35.0583 58.461C35.1056 58.497 35.1463 58.5409 35.1784 58.5909L35.7789 59.5906C35.4838 59.8341 35.1438 60.0175 34.7781 60.1304C34.3992 60.2271 34.0075 60.2642 33.6171 60.2404Z" fill="white"/>
<path d="M40.5125 51.7735C41.0006 51.7709 41.4853 51.8555 41.9436 52.0234C42.3639 52.1816 42.7459 52.4269 43.0645 52.7432C43.3905 53.0771 43.6427 53.4756 43.8051 53.9128C43.9792 54.4205 44.0573 54.9561 44.0353 55.4923C44.0468 55.6153 44.0468 55.7392 44.0353 55.8622C44.0318 55.9467 44.0078 56.029 43.9653 56.1021C43.9309 56.1546 43.8823 56.1962 43.8251 56.2221C43.7522 56.2338 43.6779 56.2338 43.605 56.2221H38.5409C38.5343 56.9038 38.7762 57.5647 39.2214 58.0815C39.4279 58.2806 39.6728 58.4356 39.9413 58.537C40.2097 58.6384 40.496 58.6841 40.7827 58.6713C41.0635 58.6753 41.3433 58.6382 41.6134 58.5613C41.8227 58.493 42.0267 58.4095 42.2239 58.3114L42.6842 58.0615C42.7933 58.0083 42.9131 57.981 43.0345 57.9815C43.1001 57.9641 43.1691 57.9641 43.2347 57.9815C43.2946 58.0161 43.3487 58.0599 43.3948 58.1115L43.9653 58.8313C43.7566 59.0841 43.5102 59.3032 43.2347 59.4811C42.9641 59.6496 42.6754 59.7871 42.374 59.8909C42.0833 59.9988 41.781 60.0726 41.4733 60.1109C41.1787 60.1582 40.8808 60.1816 40.5825 60.1808C40.0576 60.2081 39.5321 60.1403 39.0313 59.9809C38.5446 59.8045 38.1059 59.5169 37.7503 59.1412C37.3685 58.7514 37.075 58.2844 36.8896 57.7716C36.6707 57.1627 36.5656 56.519 36.5793 55.8722C36.5753 55.3339 36.6668 54.7991 36.8495 54.2927C37.0159 53.8143 37.2796 53.3754 37.6241 53.0038C37.9686 52.6322 38.3864 52.3358 38.8511 52.1334C39.3742 51.9003 39.9398 51.7778 40.5125 51.7735ZM40.5125 53.193C40.2658 53.1789 40.0188 53.215 39.7865 53.2992C39.5542 53.3834 39.3416 53.514 39.1614 53.6829C38.8111 54.0639 38.5934 54.5478 38.5409 55.0625H42.2539C42.2547 54.8183 42.2176 54.5755 42.1438 54.3427C42.0861 54.1202 41.9764 53.9146 41.8235 53.7429C41.6767 53.5697 41.4917 53.4328 41.2831 53.343C41.0525 53.2432 40.8038 53.1922 40.5525 53.193H40.5125Z" fill="white"/>
<path d="M57.046 48.5449V50.3144H53.5532V60.1112H51.4015V50.3144H47.9087V48.5449H57.046Z" fill="white"/>
<path d="M60.1684 51.7733C60.7396 51.765 61.3071 51.8668 61.8397 52.0732C62.32 52.2621 62.7561 52.548 63.1208 52.9129C63.4841 53.2923 63.7607 53.7459 63.9314 54.2425C64.1294 54.8008 64.2276 55.3896 64.2216 55.9819C64.2289 56.5809 64.1307 57.1764 63.9314 57.7414C63.7581 58.2367 63.4819 58.6898 63.1208 59.0709C62.762 59.4455 62.3245 59.7357 61.8397 59.9207C60.7614 60.3204 59.5753 60.3204 58.497 59.9207C58.011 59.7381 57.573 59.4476 57.216 59.0709C56.8487 58.691 56.5656 58.2379 56.3853 57.7414C56.1861 57.1764 56.0878 56.5809 56.0951 55.9819C56.088 55.3862 56.1862 54.794 56.3853 54.2325C56.5592 53.7398 56.838 53.2906 57.2026 52.9161C57.5672 52.5415 58.0088 52.2505 58.497 52.0632C59.0305 51.8609 59.5979 51.7625 60.1684 51.7733ZM60.1684 58.711C60.463 58.7272 60.7568 58.6688 61.0228 58.5412C61.2887 58.4137 61.5181 58.2211 61.6896 57.9813C62.0051 57.3619 62.1696 56.6768 62.1696 55.9819C62.1696 55.287 62.0051 54.6019 61.6896 53.9825C61.5018 53.7698 61.2708 53.5994 61.0119 53.4827C60.7531 53.366 60.4724 53.3056 60.1884 53.3056C59.9044 53.3056 59.6237 53.366 59.3649 53.4827C59.106 53.5994 58.875 53.7698 58.6872 53.9825C58.3653 54.6 58.1972 55.2858 58.1972 55.9819C58.1972 56.678 58.3653 57.3639 58.6872 57.9813C58.8556 58.2146 59.0786 58.4031 59.3368 58.5303C59.5951 58.6575 59.8806 58.7196 60.1684 58.711Z" fill="white"/>
<path d="M68.6051 51.7632C68.9413 51.7592 69.277 51.7927 69.6059 51.8631C69.8982 51.9349 70.1805 52.0423 70.4465 52.183H72.8084V52.9228C72.8161 53.0243 72.7838 53.1247 72.7184 53.2027C72.6254 53.2839 72.5105 53.3361 72.3881 53.3527L71.6475 53.4826C71.7059 53.6244 71.7495 53.7718 71.7776 53.9225C71.7929 54.0854 71.7929 54.2494 71.7776 54.4123C71.7834 54.7925 71.7012 55.1688 71.5374 55.512C71.3744 55.8351 71.1461 56.1211 70.8669 56.3517C70.5688 56.5884 70.2295 56.768 69.8661 56.8815C69.4522 57.0139 69.0195 57.078 68.585 57.0715C68.2825 57.0723 67.9807 57.0421 67.6843 56.9815C67.4241 57.1415 67.304 57.3114 67.304 57.5013C67.3003 57.5778 67.3192 57.6536 67.3584 57.7194C67.3975 57.7851 67.4552 57.838 67.5242 57.8712C67.715 57.9567 67.9173 58.014 68.1247 58.0412C68.408 58.0578 68.692 58.0578 68.9753 58.0412C69.2856 58.0412 69.6159 58.0412 69.9762 58.0412C70.3128 58.0683 70.6472 58.1184 70.977 58.1911C71.2756 58.2471 71.563 58.3518 71.8276 58.501C72.0741 58.6443 72.2806 58.8471 72.4281 59.0908C72.5982 59.3955 72.678 59.7422 72.6583 60.0905C72.6565 60.4605 72.5637 60.8244 72.3881 61.1502C72.1946 61.5075 71.9287 61.8207 71.6075 62.0699C71.233 62.3518 70.8134 62.5681 70.3665 62.7097C69.8227 62.8811 69.2553 62.9654 68.6851 62.9596C68.1376 62.9819 67.5895 62.9348 67.0538 62.8196C66.6502 62.7218 66.265 62.5598 65.9129 62.3398C65.6353 62.165 65.4051 61.9247 65.2424 61.64C65.0951 61.3953 65.0156 61.1158 65.0122 60.8303C65.0025 60.6481 65.0294 60.4658 65.0913 60.2941C65.1532 60.1224 65.2488 59.9649 65.3725 59.8306C65.6483 59.5429 65.9926 59.3297 66.3733 59.2108C66.1783 59.0991 66.0108 58.9454 65.8829 58.7609C65.7543 58.5398 65.6918 58.2866 65.7027 58.0312C65.7039 57.9023 65.7241 57.7743 65.7628 57.6513C65.8133 57.5137 65.8806 57.3827 65.9629 57.2614C66.0567 57.1275 66.1677 57.0065 66.2932 56.9015C66.4346 56.7766 66.5929 56.6723 66.7636 56.5916C66.3562 56.3854 66.0108 56.0749 65.7628 55.6919C65.5245 55.2972 65.403 54.8431 65.4125 54.3823C65.4078 54.0023 65.4899 53.6262 65.6527 53.2827C65.813 52.9549 66.0457 52.6678 66.3332 52.4429C66.6319 52.2072 66.9711 52.0277 67.334 51.9131C67.7484 51.8028 68.1764 51.7523 68.6051 51.7632ZM70.7768 60.4504C70.7794 60.3047 70.7297 60.1628 70.6367 60.0505C70.5252 59.9436 70.3922 59.8618 70.2464 59.8106C70.0587 59.7465 69.8637 59.7062 69.6659 59.6906C69.4304 59.6584 69.193 59.6417 68.9553 59.6407H68.1847C67.9289 59.6448 67.6735 59.618 67.4241 59.5607C67.2179 59.6678 67.0344 59.8138 66.8837 59.9905C66.7487 60.1531 66.6775 60.3592 66.6835 60.5704C66.681 60.7133 66.7154 60.8545 66.7836 60.9802C66.873 61.1134 66.9931 61.2231 67.1339 61.3001C67.3247 61.4026 67.5308 61.4735 67.7444 61.5101C68.048 61.5664 68.3563 61.5932 68.6651 61.59C69.0011 61.5985 69.3369 61.5683 69.6659 61.5001C69.8979 61.4627 70.1215 61.3849 70.3264 61.2701C70.4782 61.1796 70.608 61.0567 70.7067 60.9103C70.77 60.7658 70.7942 60.6072 70.7768 60.4504ZM68.6051 55.8019C68.8229 55.8084 69.0401 55.7745 69.2456 55.7019C69.4178 55.6485 69.5753 55.5562 69.7059 55.432C69.8278 55.3113 69.9202 55.1642 69.9762 55.0021C70.0384 54.8291 70.0689 54.6462 70.0662 54.4623C70.0814 54.2796 70.057 54.0958 69.9949 53.9233C69.9327 53.7509 69.8342 53.5937 69.7059 53.4626C69.4008 53.2023 69.0052 53.073 68.6051 53.1027C68.4084 53.0877 68.2108 53.1118 68.0235 53.1735C67.8363 53.2353 67.6632 53.3336 67.5142 53.4626C67.3859 53.5937 67.2874 53.7509 67.2252 53.9233C67.1631 54.0958 67.1387 54.2796 67.1539 54.4623C67.1528 54.6461 67.1833 54.8286 67.244 55.0021C67.3027 55.1599 67.3949 55.3031 67.5142 55.422C67.6426 55.5513 67.8006 55.6474 67.9745 55.7019C68.1767 55.7738 68.3905 55.8076 68.6051 55.8019Z" fill="white"/>
<path d="M77.4522 51.7735C77.937 51.7716 78.4183 51.8563 78.8734 52.0234C79.3049 52.18 79.696 52.4308 80.0181 52.7577C80.3402 53.0846 80.585 53.4793 80.7349 53.9128C80.9226 54.4179 81.0142 54.9536 81.0051 55.4923C81.0118 55.6155 81.0118 55.739 81.0051 55.8622C80.9919 55.9448 80.9683 56.0254 80.935 56.1021C80.8957 56.15 80.8483 56.1906 80.7949 56.2221C80.7186 56.2339 80.641 56.2339 80.5647 56.2221H75.4706C75.4641 56.9038 75.7059 57.5647 76.1512 58.0815C76.3598 58.2804 76.6065 58.4352 76.8765 58.5365C77.1465 58.6379 77.4343 58.6837 77.7224 58.6713C78.0032 58.6745 78.2829 58.6375 78.5531 58.5613C78.7592 58.4931 78.9599 58.4095 79.1536 58.3114L79.614 58.0615C79.7298 57.9944 79.8604 57.9566 79.9943 57.9515C80.0634 57.9353 80.1353 57.9353 80.2044 57.9515C80.2632 57.9837 80.3143 58.028 80.3546 58.0815L80.935 58.8012C80.7229 59.0544 80.4731 59.2735 80.1944 59.451C79.6587 59.7834 79.0582 59.9981 78.433 60.0808C78.1385 60.1286 77.8406 60.152 77.5423 60.1508C77.0059 60.1926 76.4664 60.135 75.951 59.9809C75.4643 59.8045 75.0257 59.5169 74.67 59.1411C74.2927 58.7479 73.9998 58.2819 73.8093 57.7716C73.5953 57.1615 73.4903 56.5186 73.499 55.8722C73.495 55.3339 73.5865 54.7991 73.7693 54.2927C73.9392 53.8084 74.2047 53.3631 74.5499 52.9831C74.9043 52.6169 75.3255 52.3217 75.7909 52.1134C76.3155 51.8874 76.881 51.7717 77.4522 51.7735ZM77.4522 53.193C77.2039 53.1781 76.9552 53.2138 76.7212 53.298C76.4872 53.3822 76.2728 53.5132 76.0911 53.6829C75.7408 54.0639 75.5232 54.5478 75.4706 55.0624H79.1836C79.1875 54.8188 79.1537 54.576 79.0835 54.3427C79.0175 54.1235 78.9087 53.9196 78.7633 53.7428C78.6108 53.5715 78.423 53.435 78.2128 53.343C77.9854 53.2443 77.7402 53.1932 77.4922 53.193H77.4522Z" fill="white"/>
<path d="M85.3086 60.2409C85.0077 60.258 84.7065 60.2127 84.424 60.1077C84.1415 60.0028 83.8839 59.8405 83.6673 59.6311C83.2595 59.1805 83.044 58.5886 83.0668 57.9816V53.3831H82.2261C82.1264 53.3865 82.0294 53.3506 81.9559 53.2831C81.8873 53.199 81.8549 53.0911 81.8658 52.9832V52.1835L83.1869 51.9835L83.6072 49.7442C83.6229 49.6498 83.6727 49.5644 83.7473 49.5043C83.8349 49.4423 83.9404 49.4107 84.0476 49.4143H85.0484V51.9835H87.2101V53.3831H85.0684V57.8317C85.0609 58.0475 85.1281 58.2593 85.2586 58.4315C85.3234 58.5012 85.4027 58.556 85.4908 58.5923C85.5789 58.6285 85.6738 58.6453 85.769 58.6414C85.8716 58.6593 85.9766 58.6593 86.0792 58.6414L86.2994 58.5514L86.4595 58.4615C86.5088 58.4488 86.5604 58.4488 86.6096 58.4615C86.6551 58.4462 86.7043 58.4462 86.7498 58.4615C86.7971 58.4975 86.8377 58.5415 86.8699 58.5914L87.4603 59.5911C87.1659 59.8357 86.8257 60.0192 86.4595 60.1309C86.0838 60.2266 85.6956 60.2637 85.3086 60.2409Z" fill="white"/>
<path d="M88.8115 60.1108V48.2246H90.8131V52.7932C91.1266 52.4936 91.4844 52.2441 91.874 52.0534C92.2979 51.8609 92.7595 51.7653 93.2251 51.7735C93.6337 51.7667 94.0393 51.845 94.416 52.0034C94.7521 52.1463 95.0502 52.3653 95.2867 52.6432C95.5298 52.9369 95.7103 53.2771 95.8172 53.6429C95.94 54.0514 96.0007 54.476 95.9973 54.9025V60.1308H93.9957V54.8825C94.0264 54.466 93.9016 54.0529 93.6454 53.7229C93.5186 53.5858 93.3633 53.478 93.1904 53.4072C93.0176 53.3364 92.8313 53.3043 92.6446 53.313C92.2972 53.3066 91.9535 53.3856 91.6438 53.5429C91.3324 53.7124 91.0461 53.9244 90.7931 54.1727V60.1108H88.8115Z" fill="white"/>
<path d="M101.301 51.7735C101.789 51.7709 102.274 51.8555 102.732 52.0234C103.164 52.18 103.555 52.4309 103.877 52.7578C104.199 53.0847 104.444 53.4793 104.594 53.9128C104.782 54.4179 104.873 54.9536 104.864 55.4923C104.871 55.6155 104.871 55.739 104.864 55.8622C104.853 55.9465 104.826 56.0279 104.784 56.1021C104.75 56.1546 104.701 56.1962 104.644 56.2221C104.571 56.2346 104.497 56.2346 104.424 56.2221H99.3297C99.3231 56.9038 99.565 57.5647 100.01 58.0815C100.219 58.2804 100.466 58.4352 100.736 58.5366C101.006 58.6379 101.293 58.6837 101.582 58.6713C101.859 58.6753 102.136 58.6382 102.402 58.5613C102.612 58.495 102.816 58.4114 103.013 58.3114L103.473 58.0615C103.589 57.9944 103.719 57.9566 103.853 57.9515C103.922 57.9353 103.994 57.9353 104.064 57.9515C104.122 57.9837 104.173 58.028 104.214 58.0815L104.784 58.8013C104.578 59.0563 104.331 59.2758 104.054 59.4511C103.518 59.7835 102.917 59.9982 102.292 60.0809C101.998 60.1286 101.7 60.152 101.401 60.1508C100.865 60.1927 100.326 60.135 99.8101 59.9809C99.3234 59.8045 98.8848 59.5169 98.5291 59.1412C98.1518 58.7479 97.8589 58.2819 97.6684 57.7716C97.4495 57.1627 97.3444 56.519 97.3581 55.8722C97.3541 55.3339 97.4456 54.7991 97.6283 54.2927C97.7947 53.8143 98.0584 53.3754 98.4029 53.0038C98.7474 52.6322 99.1652 52.3358 99.63 52.1334C100.156 51.8989 100.725 51.7764 101.301 51.7735ZM101.301 53.193C101.055 53.1789 100.808 53.215 100.575 53.2992C100.343 53.3834 100.13 53.514 99.9502 53.6829C99.5999 54.0639 99.3822 54.5478 99.3297 55.0625H103.083C103.087 54.8188 103.053 54.576 102.983 54.3427C102.917 54.1235 102.808 53.9197 102.662 53.7429C102.51 53.5715 102.322 53.4351 102.112 53.343C101.869 53.2377 101.606 53.1865 101.341 53.193H101.301Z" fill="white"/>
<path d="M106.465 60.1107V51.9033H107.626C107.784 51.8721 107.948 51.9006 108.087 51.9833C108.178 52.0941 108.234 52.23 108.247 52.3732L108.367 53.3729C108.615 52.9087 108.955 52.5004 109.368 52.1733C109.752 51.8863 110.219 51.732 110.699 51.7334C111.053 51.7215 111.403 51.8192 111.7 52.0133L111.439 53.4928C111.429 53.5688 111.394 53.6393 111.339 53.6928C111.274 53.7348 111.197 53.7557 111.119 53.7528C111.009 53.7631 110.899 53.7631 110.789 53.7528C110.609 53.7074 110.424 53.6872 110.238 53.6928C109.856 53.6824 109.482 53.8022 109.178 54.0327C108.854 54.3022 108.601 54.6449 108.437 55.0323V60.1407L106.465 60.1107Z" fill="white"/>
</svg>
