<svg width="230" height="142" viewBox="0 0 230 142" fill="none" xmlns="http://www.w3.org/2000/svg">
<path d="M154.175 40.4489C154.175 18.1047 136.625 0 115 0C104.439 0.216295 94.3928 4.5908 87.0535 12.1688C79.7141 19.7468 75.6777 29.9131 75.8252 40.4489C75.8236 47.6337 77.7114 54.6932 81.3002 60.9227L86.3002 58.005V37.1322L115 22.9925L143.65 37.1322V58.1297L148.65 61.0224C152.269 54.7667 154.174 47.6714 154.175 40.4489Z" fill="#EA366C"/>
<path d="M86.35 57.3564L81 59.925V86.5335L86.35 83.3914V59.0023V57.3564Z" fill="#E6FFFF"/>
<path d="M149.45 59.9251V86.5335L138.05 79.8502L139.375 55.0872L149.45 59.9251Z" fill="#E6FFFF"/>
<path d="M115 84.7885L140.5 97.2574C141.8 96.3097 142.625 95.8359 143.65 94.9631V85.7362L115 72.0703V84.7885Z" fill="#E6FFFF"/>
<path d="M115 50.9727L143.65 65.5114V54.8381L115 41.0974V50.9727Z" fill="#E6FFFF"/>
<path d="M115 36.5588L143.65 51.0975V41.8705L115 28.1299V36.5588Z" fill="#E6FFFF"/>
<path d="M115.225 67.5806L143.875 82.1193V69.3761L115.225 55.6355V67.5806Z" fill="#E6FFFF"/>
<path d="M123.125 29.0774L143.65 39.5013V37.1821L123.125 29.0774Z" fill="#B3DCF7"/>
<path d="M143.65 50.1499L115 36.0103L86.3501 50.1499V55.4367L115 41.297L143.65 55.4367V50.1499Z" fill="#38CEFF"/>
<path d="M143.65 42.4436V37.1318L125.025 27.9298L115 22.9922L104.975 27.9298L86.3501 37.1318V42.4436L115 28.279L143.65 42.4436Z" fill="#38CEFF"/>
<path d="M115 55.8105L143.65 69.9502V68.4539V64.6634L115 50.4988L86.3501 64.6634V68.4539V69.9502L115 55.8105Z" fill="#38CEFF"/>
<path d="M115 72.1198L143.65 86.2595V82.9677V80.9478L115 66.8081L86.3501 80.9478V82.9677V86.2595L115 72.1198Z" fill="#38CEFF"/>
<path d="M89.4995 97.2569C91.2197 98.2354 92.9886 99.126 94.7995 99.9252L115 89.9502L135.2 99.9252C137.01 99.126 138.779 98.2354 140.5 97.2569L115 84.7881L89.4995 97.2569Z" fill="#38CEFF"/>
<path d="M143.65 69.9501V73.7656L158.025 80.8728C158.9 79.5511 159.725 78.1795 160.525 76.783L143.675 68.4788L143.65 69.9501Z" fill="#38CEFF"/>
<path d="M147.225 57.2073L143.65 55.4617V60.7485L163.425 70.524C164.028 69.0393 164.554 67.5244 165 65.9854L147.225 57.2073Z" fill="#38CEFF"/>
<path d="M143.65 86.2588V88.2788L149.2 91.0219C150.453 89.9049 151.646 88.7229 152.775 87.4808L143.65 82.967V86.2588Z" fill="#38CEFF"/>
<path d="M86.3495 69.9501V68.4788L69.4995 76.783C70.2745 78.1795 71.0995 79.5511 71.9995 80.8728L86.3745 73.7656L86.3495 69.9501Z" fill="#38CEFF"/>
<path d="M86.35 55.4617L82.775 57.2073L65 65.9854C65.4461 67.5244 65.9718 69.0393 66.575 70.524L86.35 60.7485V55.4617Z" fill="#38CEFF"/>
<path d="M86.3501 86.2588V82.967L77.2251 87.4808C78.3537 88.7229 79.547 89.9049 80.8001 91.0219L86.3501 88.2788V86.2588Z" fill="#38CEFF"/>
<g clip-path="url(#clip0)">
<path d="M0 141.472V141.077L2.07975 140.057V126.414L0 125.395V125H13.6016V129.326H13.2064L11.3555 126.373H5.88571V132.279H9.73325L11.1267 130.199H11.5218V135.815H11.1267L9.73325 133.735H5.88571V140.182H11.9586L13.8928 136.459H14.3087V141.472H0Z" fill="#38CEFF"/>
<path d="M21.8789 141.638C21.0381 141.646 20.1996 141.548 19.3832 141.347C18.6662 141.141 17.97 140.87 17.3035 140.535L17.0747 137H17.4699L19.1961 139.662C19.9728 140.154 20.8766 140.407 21.7957 140.39C22.467 140.425 23.1333 140.258 23.7091 139.911C23.9378 139.756 24.1229 139.544 24.2466 139.296C24.3704 139.049 24.4288 138.774 24.4162 138.497C24.4122 138.125 24.28 137.765 24.0419 137.478C23.7046 137.136 23.3106 136.854 22.8772 136.646L20.6103 135.586C19.7308 135.212 18.9431 134.651 18.3018 133.943C17.7909 133.268 17.5266 132.438 17.553 131.592C17.5634 130.842 17.8109 130.114 18.2602 129.513C18.7508 128.838 19.4011 128.295 20.1527 127.932C20.9491 127.52 21.8353 127.313 22.7316 127.329C23.4324 127.329 24.1306 127.413 24.8114 127.579C25.4491 127.745 26.0638 127.989 26.6416 128.306L27.0367 131.592H26.6416L24.8114 128.91C24.5466 128.754 24.2588 128.642 23.9587 128.577C23.6053 128.489 23.2409 128.454 22.8772 128.473C22.3009 128.442 21.7327 128.619 21.2758 128.972C21.0719 129.141 20.9096 129.354 20.8014 129.596C20.6932 129.838 20.6421 130.101 20.6519 130.365C20.6428 130.707 20.745 131.043 20.943 131.322C21.2036 131.644 21.5298 131.906 21.8997 132.092C22.3365 132.341 22.9188 132.632 23.6259 132.986C24.3877 133.348 25.1181 133.772 25.8097 134.255C26.3213 134.615 26.7474 135.084 27.0575 135.627C27.3285 136.191 27.4638 136.811 27.4527 137.437C27.4667 138.255 27.2028 139.054 26.704 139.704C26.1659 140.389 25.4449 140.908 24.6242 141.201C23.7468 141.526 22.8138 141.674 21.8789 141.638Z" fill="#38CEFF"/>
<path d="M32.4028 141.472V141.077L34.6905 140.245V128.764H31.5917L29.9279 132.217H29.5327V127.496H43.5087V132.217H43.0927L41.4081 128.764H38.3093V140.245L40.6386 141.077V141.472H32.4028Z" fill="#38CEFF"/>
<path d="M43.9658 141.471V141.076L45.2553 140.348L50.8082 127.371H52.888L58.3577 140.203L59.8967 141.076V141.471H52.9504V141.076L54.7389 140.327L53.3039 136.896H48.2709L46.8359 140.327L48.6245 141.076V141.471H43.9658ZM48.7908 135.627H52.7632L50.6834 130.865L48.7908 135.627Z" fill="#38CEFF"/>
<path d="M63.2866 141.472V141.077L65.5951 140.245V128.764H62.4963L60.8117 132.217H60.4165V127.496H74.3924V132.217H73.9973L72.2919 128.764H69.2139V140.245L71.5224 141.077V141.472H63.2866Z" fill="#38CEFF"/>
<path d="M76.3896 141.472V141.077L78.2406 140.245V128.723L76.3896 127.891V127.496H88.4522V131.239H88.0571L86.4349 128.764H81.8802V133.652H85.1038L86.2477 131.863H86.622V136.605H86.2477L85.1038 134.837H81.8802V140.203H86.9132L88.6394 136.98H89.0554V141.472H76.3896Z" fill="#38CEFF"/>
<path d="M100.806 141.472V141.077L103.447 140.057V126.373H99.8284L97.7487 130.532H97.3535V125H113.056V130.491H112.66L110.581 126.331H107.212V140.057L109.853 141.077V141.472H100.806Z" fill="#38CEFF"/>
<path d="M122.81 141.638C121.458 141.668 120.123 141.338 118.941 140.682C117.835 140.081 116.915 139.189 116.279 138.103C115.619 136.975 115.281 135.687 115.302 134.38C115.284 133.074 115.622 131.787 116.279 130.657C116.919 129.569 117.838 128.672 118.941 128.058C120.142 127.443 121.471 127.122 122.82 127.122C124.169 127.122 125.498 127.443 126.699 128.058C127.812 128.666 128.739 129.564 129.382 130.657C130.038 131.787 130.376 133.074 130.359 134.38C130.379 135.687 130.041 136.975 129.382 138.103C128.744 139.195 127.815 140.087 126.699 140.682C125.51 141.34 124.168 141.67 122.81 141.638ZM123.163 140.349C123.679 140.35 124.185 140.212 124.628 139.948C125.072 139.685 125.435 139.306 125.68 138.852C126.323 137.674 126.632 136.344 126.574 135.004C126.593 133.848 126.424 132.696 126.075 131.593C125.801 130.708 125.307 129.907 124.64 129.264C124.086 128.717 123.339 128.41 122.56 128.411C121.89 128.406 121.24 128.642 120.73 129.077C120.171 129.588 119.749 130.232 119.503 130.948C119.197 131.845 119.049 132.788 119.066 133.735C119.055 134.893 119.231 136.045 119.586 137.146C119.858 138.061 120.359 138.891 121.042 139.559C121.611 140.111 122.37 140.423 123.163 140.432V140.349Z" fill="#38CEFF"/>
<path d="M141.091 141.638C139.77 141.683 138.459 141.412 137.264 140.848C136.157 140.29 135.223 139.442 134.56 138.394C133.863 137.31 133.508 136.042 133.541 134.754C133.527 133.7 133.748 132.656 134.186 131.697C134.616 130.783 135.233 129.968 135.995 129.305C136.768 128.626 137.665 128.104 138.637 127.766C139.656 127.396 140.734 127.212 141.819 127.226C142.742 127.207 143.665 127.305 144.564 127.517C145.276 127.7 145.972 127.944 146.644 128.245L146.872 131.988H146.456L144.501 129.16C144.124 128.913 143.719 128.711 143.295 128.557C142.881 128.45 142.454 128.401 142.027 128.411C141.075 128.367 140.135 128.63 139.344 129.16C138.603 129.682 138.026 130.403 137.68 131.24C137.33 132.248 137.189 133.316 137.264 134.38C137.191 135.937 137.621 137.475 138.491 138.768C138.891 139.302 139.413 139.732 140.014 140.022C140.615 140.311 141.277 140.452 141.943 140.432C142.399 140.426 142.852 140.37 143.295 140.266V136.46L141.299 135.399V135.108H148.37V135.399L146.768 136.397V139.954C146.307 140.338 145.788 140.647 145.229 140.869C144.56 141.151 143.863 141.36 143.15 141.493C142.469 141.607 141.78 141.655 141.091 141.638Z" fill="#38CEFF"/>
<path d="M150.221 141.472V141.077L152.072 140.245V128.723L150.221 127.891V127.496H162.221V131.239H161.826L160.204 128.764H155.711V133.652H158.935L160.141 131.863H160.515V136.605H160.141L158.997 134.837H155.711V140.203H160.744L162.47 136.98H162.866V141.472H150.221Z" fill="#38CEFF"/>
<path d="M167.94 141.472V141.077L170.228 140.245V128.764H167.129L165.465 132.217H165.07V127.496H179.046V132.217H178.651L176.946 128.764H173.847V140.245L176.176 141.077V141.472H167.94Z" fill="#38CEFF"/>
<path d="M181.042 141.472V141.077L182.893 140.245V128.723L181.042 127.891V127.496H188.259V127.891L186.533 128.723V133.631H192.128V128.723L190.401 127.891V127.496H197.577V127.891L195.767 128.723V140.245L197.577 141.077V141.472H190.401V141.077L192.128 140.245V134.9H186.533V140.245L188.259 141.077V141.472H181.042Z" fill="#38CEFF"/>
<path d="M199.76 141.472V141.077L201.611 140.245V128.723L199.76 127.891V127.496H211.802V131.239H211.407L209.785 128.764H205.251V133.652H208.454L209.618 131.863H210.055V136.605H209.681L208.516 134.837H205.251V140.203H210.284L212.01 136.98H212.405V141.472H199.76Z" fill="#38CEFF"/>
<path d="M214.797 141.472V141.077L216.648 140.245V128.723L214.797 127.891V127.496H222.534C223.791 127.433 225.038 127.752 226.111 128.411C226.522 128.677 226.859 129.044 227.088 129.478C227.318 129.911 227.432 130.396 227.421 130.886C227.421 132.425 226.485 133.506 224.613 134.151L228.461 140.266L230.083 141.077V141.472H224.925L221.307 135.108H220.371V140.224L221.972 141.077V141.472H214.797ZM221.036 128.64H220.329V133.943H221.099C221.463 133.972 221.829 133.92 222.17 133.79C222.512 133.661 222.821 133.457 223.074 133.194C223.513 132.64 223.734 131.945 223.698 131.239C223.746 130.878 223.708 130.51 223.587 130.165C223.466 129.821 223.266 129.509 223.003 129.256C222.74 129.003 222.421 128.816 222.072 128.709C221.723 128.602 221.354 128.578 220.995 128.64H221.036Z" fill="#38CEFF"/>
</g>
<defs>
<clipPath id="clip0">
<rect width="230" height="16.7212" fill="white" transform="translate(0 125)"/>
</clipPath>
</defs>
</svg>
