<svg width="800" height="612" viewBox="0 0 800 612" fill="none" xmlns="http://www.w3.org/2000/svg">
<g clip-path="url(#clip0)">
<path d="M751.528 219.156C762.735 239.528 779.038 258.734 780.439 281.688C782.701 318.582 746.684 346.397 732.034 380.574C713.924 422.532 729.114 471.983 713.131 514.768C701.553 545.722 673.148 570.464 639.781 578.633C614.751 584.76 588.439 582.009 562.616 582.245C489.283 582.954 416.237 608.321 343.916 596.81C308.186 591.122 274.431 576.557 238.549 571.95C195.528 566.38 145.384 573.131 114.633 543.882C71.6797 502.954 103.578 427.848 71.3252 378.836C60.9455 363.055 44.2198 350.717 38.6164 332.861C32.0679 312 42.6839 289.772 55.8653 272C69.0468 254.228 85.3506 237.857 92.4898 217.165C98.9708 198.397 95.0046 177.975 87.0383 159.781C74.8189 131.814 108.827 67.7132 176.27 72.5233C207.173 74.6667 221.097 38.8186 255.005 28.9283C293.823 17.5697 342.583 26.7005 371.19 36.2195C400.254 45.8735 436.186 50.9537 452.861 26.2617C476.389 -8.59066 546.515 -14.0421 578.009 42.5655C589.519 63.2406 599.764 79.325 624.237 77.7385C756.929 69.1984 734.87 188.878 751.528 219.156ZM389.874 27.9157C389.874 32.6583 389.874 40.8102 410.802 39.4769C417.216 39.0718 422.448 35.6288 422.448 30.8861C422.448 26.1435 417.232 22.2954 410.802 22.2954C404.372 22.2954 389.874 20.3376 389.874 27.9157ZM183.747 50.9537C183.147 51.3869 182.671 51.9684 182.363 52.6414C180.837 54.697 178.707 56.2251 176.27 57.0127C174.826 57.4182 173.481 58.1194 172.321 59.0718C171.934 59.4952 171.637 59.9925 171.447 60.5338C171.257 61.0751 171.179 61.6492 171.217 62.2215C171.255 62.7938 171.408 63.3526 171.667 63.8642C171.927 64.3758 172.287 64.8296 172.726 65.1984C174.377 66.2577 176.354 66.6889 178.296 66.4136C185.576 66.055 192.565 63.4422 198.296 58.9368C205.654 53.0802 187.798 48.7596 183.747 50.9537ZM163.882 61.8904C161.435 60.2026 158.279 61.1984 155.832 62.4642C155.557 62.5716 155.306 62.7329 155.094 62.9387C154.883 63.1446 154.714 63.3906 154.6 63.6625C154.279 64.8102 155.747 65.6372 156.929 66.0085C158.737 66.7638 160.734 66.9464 162.65 66.5317C164.49 65.9241 166.346 63.4937 163.882 61.8904ZM71.3421 213.215C69.5362 207.679 65.2493 204.928 58.7514 208.152C55.0483 210.26 51.9816 213.327 49.8738 217.03C46.1438 222.684 42.9371 229.148 43.7134 235.798C44.0358 238.255 44.8711 240.617 46.1649 242.731C47.4587 244.844 49.1823 246.663 51.224 248.068C52.9003 249.33 54.9317 250.033 57.0299 250.076C59.3154 249.843 61.4702 248.899 63.1902 247.376C67.2428 243.948 70.8289 240.005 73.8569 235.646C75.738 233.618 77.0432 231.124 77.6375 228.422C78.2282 222.785 73.013 218.295 71.3421 213.215ZM749.823 383.679C748.128 384.225 746.635 385.266 745.536 386.667C744.87 387.85 744.494 389.175 744.439 390.532C744.128 393.334 743.97 396.151 743.967 398.971C743.967 402.025 744.304 405.435 746.65 407.528C749.823 410.329 754.87 409.35 759.021 408.186C761.419 407.766 763.635 406.637 765.384 404.945C766.382 403.538 767.003 401.9 767.19 400.186C768.186 394.599 771.275 386.11 767.865 383.224C764.456 380.338 755.73 381.215 749.773 383.646L749.823 383.679ZM515.393 600.388C514.522 601.144 513.791 602.047 513.232 603.055C512.916 603.766 512.744 604.532 512.726 605.31C512.707 606.088 512.844 606.862 513.126 607.587C513.408 608.312 513.832 608.974 514.371 609.534C514.911 610.095 515.557 610.543 516.27 610.852C517.819 611.365 519.455 611.56 521.081 611.426C535.038 611.241 550.043 610.734 561.199 602.717C562.566 601.739 563.967 600.371 563.73 598.768C563.427 596.81 561.013 595.983 559.005 595.578C545.047 592.895 526.583 589.874 515.393 600.388ZM250.431 578.903C238.296 577.215 218.988 574.937 218.988 584.76C218.988 588.473 236.118 592.034 238.954 592.709C247.622 595.025 256.149 597.843 264.49 601.148C280.389 607.021 293.182 599.122 280.54 590.245C271.621 583.986 261.263 580.084 250.431 578.903Z" fill="#C8EEFB"/>
<path d="M649.35 346.751C668.173 344.667 686.643 340.128 704.287 333.249C705.131 332.895 705.637 338.633 705.637 338.633C705.637 338.633 709.57 330.954 710.937 330.312C725.418 323.561 738.684 313.992 745.789 300.827C745.789 300.827 749.3 381.536 645.536 399.46L649.35 346.751Z" fill="#5084DA"/>
<path d="M683.849 438.819C683.849 438.819 718.093 456.979 785.114 460.135C785.114 460.135 739.545 501.705 635.342 487.392L638.718 440.135L683.849 438.819Z" fill="#EA366C"/>
<path d="M635.95 392.743C648.743 385.156 662.325 378.987 676.456 374.346C677.452 374.009 679.578 379.916 679.578 379.916C679.578 379.916 682.954 372.22 684.81 371.679C714.785 362.701 755.798 356.844 799.967 369.3C799.967 369.3 786.583 387.949 759.19 408.355C758.026 409.232 750.296 408.54 750.296 408.54C750.296 408.54 753.536 412.456 752.473 413.198C719.303 436.183 681.275 451.2 641.351 457.08L635.95 392.743Z" fill="#EA366C"/>
<g style="mix-blend-mode:multiply" opacity="0.4">
<g style="mix-blend-mode:multiply" opacity="0.4">
<path d="M800 369.3C787.019 377.548 773.555 385.01 759.68 391.646C745.857 398.397 731.646 404.338 717.266 409.772C710.076 412.523 702.735 414.836 695.443 417.3L684.389 420.675C682.549 421.215 680.709 421.806 678.853 422.363L673.266 423.764C658.383 427.643 643.278 430.614 628.034 432.658L639.308 430.329L644.946 429.198C646.819 428.776 648.676 428.287 650.549 427.831L661.739 425.182L672.811 422.11C680.22 420.135 687.494 417.705 694.752 415.477C701.992 412.962 709.283 410.599 716.422 407.798C730.819 402.549 744.963 396.608 758.887 390.211C765.851 387.027 772.76 383.702 779.612 380.236C786.465 376.771 793.261 373.125 800 369.3Z" fill="#5084DA"/>
</g>
<g style="mix-blend-mode:multiply" opacity="0.4">
<path d="M706.347 412.574C709.199 409.907 711.967 407.19 714.786 404.49C717.604 401.789 720.237 399.004 722.836 396.152C725.435 393.3 727.899 390.38 730.364 387.376C732.828 384.371 734.954 381.198 737.115 377.907C735.757 381.599 733.966 385.117 731.781 388.388C729.597 391.663 727.165 394.767 724.507 397.671C719.192 403.476 713.077 408.494 706.347 412.574Z" fill="#5084DA"/>
</g>
<g style="mix-blend-mode:multiply" opacity="0.4">
<path d="M664.878 425.013C667.92 422.977 670.808 420.721 673.519 418.262C676.219 415.858 678.72 413.239 680.996 410.431C683.315 407.662 685.399 404.703 687.224 401.587C689.065 398.422 690.722 395.154 692.186 391.798C691.543 395.466 690.407 399.032 688.81 402.397C687.207 405.792 685.177 408.968 682.768 411.848C680.396 414.753 677.675 417.355 674.667 419.595C671.696 421.885 668.396 423.712 664.878 425.013Z" fill="#5084DA"/>
</g>
<g style="mix-blend-mode:multiply" opacity="0.4">
<path d="M706.347 412.574C711.631 412.87 716.927 412.87 722.212 412.574C724.828 412.422 727.427 412.118 730.026 411.747C732.625 411.376 735.207 410.802 737.891 410.312C735.546 411.692 733.025 412.748 730.397 413.452C727.773 414.178 725.081 414.631 722.364 414.802C719.65 414.977 716.927 414.898 714.229 414.566C711.526 414.245 708.877 413.576 706.347 412.574Z" fill="#5084DA"/>
</g>
<g style="mix-blend-mode:multiply" opacity="0.4">
<path d="M665.705 425.08C668.929 425.469 672.135 425.772 675.308 426.11C678.481 426.447 681.671 426.667 684.844 426.802C688.017 426.937 691.19 426.937 694.363 426.802C697.536 426.667 700.692 426.346 703.916 425.857C700.918 427.173 697.756 428.076 694.515 428.54C691.277 428.973 688.007 429.12 684.743 428.979C678.227 428.722 671.797 427.405 665.705 425.08Z" fill="#5084DA"/>
</g>
</g>
<g opacity="0.23">
<g style="mix-blend-mode:multiply" opacity="0.5">
<path d="M735.123 321.772C732.145 329.298 727.673 336.142 721.975 341.89C716.34 347.725 709.914 352.741 702.887 356.793L697.536 359.662C695.764 360.641 693.857 361.35 692.017 362.16C688.311 363.763 684.512 365.144 680.642 366.295C678.735 366.97 676.743 367.342 674.802 367.831L668.929 369.232C664.963 369.857 660.979 370.43 657.013 370.92C660.895 369.907 664.811 369.114 668.693 368.135L674.431 366.447C676.358 365.947 678.256 365.345 680.119 364.641C683.815 363.173 687.612 362.008 691.174 360.219C692.963 359.359 694.836 358.667 696.557 357.705L701.773 354.852C708.635 350.887 715.008 346.128 720.76 340.675C722.178 339.291 723.612 337.924 724.895 336.405C725.553 335.663 726.228 334.937 726.87 334.177L728.709 331.831C731.194 328.712 733.343 325.341 735.123 321.772Z" fill="#605ACA"/>
</g>
</g>
<path d="M763.173 465.823C758.481 466.734 753.738 467.291 748.996 467.848C744.253 468.405 739.46 468.641 734.684 468.895C725.12 469.316 715.54 469.181 705.992 468.489C701.215 468.084 696.456 467.527 691.713 466.802C686.965 466.128 682.259 465.182 677.62 463.966C668.288 461.721 659.341 458.104 651.072 453.232C655.357 455.302 659.778 457.078 664.304 458.549C668.797 460.057 673.373 461.308 678.008 462.295C687.284 464.302 696.693 465.638 706.16 466.295C715.612 467.122 725.131 467.308 734.633 467.224C744.135 467.139 753.671 466.65 763.173 465.823Z" fill="#CF3169"/>
<path d="M718.296 482.549C711.974 482.99 705.648 481.743 699.967 478.937C697.107 477.491 694.516 475.567 692.304 473.249C690.147 470.923 688.538 468.143 687.595 465.114C689.262 467.658 691.253 469.973 693.519 472C695.799 473.941 698.304 475.601 700.979 476.945C703.698 478.292 706.52 479.421 709.418 480.321C712.333 481.229 715.297 481.973 718.296 482.549Z" fill="#EA366C"/>
<path d="M693.334 484.034C687.068 483.089 681.164 480.503 676.22 476.54C673.751 474.503 671.64 472.067 669.975 469.333C668.377 466.587 667.408 463.521 667.14 460.354C668.214 463.202 669.656 465.897 671.427 468.371C673.232 470.756 675.317 472.915 677.637 474.802C679.996 476.679 682.496 478.371 685.114 479.865C687.78 481.395 690.524 482.787 693.334 484.034Z" fill="#CE3169"/>
<path d="M419.696 552.27C414.427 546.281 407.933 541.495 400.653 538.233C393.374 534.972 385.479 533.313 377.502 533.367C365.688 533.519 354.245 537.418 342.532 536.743C336.352 536.37 330.317 534.719 324.809 531.893C319.301 529.067 314.44 525.128 310.534 520.325C306.628 515.523 303.761 509.961 302.117 503.993C300.472 498.025 300.084 491.78 300.979 485.654C302.329 476.371 307.173 467.089 315.595 462.903C320.271 460.766 325.442 459.948 330.549 460.54C335.219 460.973 339.783 462.188 344.051 464.135C353.772 468.456 362.228 476.051 368.979 484.388C375.122 492.017 389.131 503.257 398.599 510.498C404.152 514.734 408.152 517.603 408.152 517.603C414.768 523.781 415.19 544.405 419.696 552.27Z" fill="#52D2BC"/>
<path d="M316.827 488.945C346.329 497.384 378.92 509.198 401.958 529.452" stroke="#00AD9F" stroke-linecap="round" stroke-linejoin="round"/>
<path d="M506.954 484.793C506.663 489.789 505.366 494.675 503.14 499.156C501.467 502.195 499.312 504.942 496.76 507.291C495.46 508.527 494.091 509.688 492.659 510.768C487.264 514.888 481.209 518.061 474.751 520.152C465.536 523.089 455.646 523.629 447.173 528.827C440.728 532.864 435.852 538.978 433.351 546.16V537.89C434.245 528.743 435.173 519.426 438.583 510.684C440.896 505.031 443.87 499.671 447.443 494.717C452.897 486.67 459.383 479.373 466.735 473.013C472.692 467.949 479.511 463.73 486.802 462.65C494.093 461.57 501.806 464.253 505.148 470.65C507.241 474.768 507.41 479.882 506.954 484.793Z" fill="#5193F4"/>
<path opacity="0.31" d="M438.431 530.177C443.648 517.848 452.368 507.32 463.511 499.899C470.262 495.426 477.789 492.371 484.743 488.186C491.697 484 498.397 478.295 501.621 470.65" stroke="#0B43A4" stroke-linecap="round" stroke-linejoin="round"/>
<path d="M427.004 537.688C439.983 524.81 458.397 518.92 476.49 516.321C491.578 514.16 507.443 514.076 521.553 519.831C525.975 521.637 530.346 524.152 532.962 528.152C535.578 532.152 535.949 537.924 532.743 541.468C530.059 544.473 525.671 545.198 521.654 545.333C508.388 545.823 495.426 541.958 482.447 539.241C460.135 534.565 435.831 533.435 415.544 543.848" fill="#52D2BC"/>
<path d="M443.258 530.92C470.127 519.595 508.912 523.241 525.84 534.954" stroke="#00AD9F" stroke-linecap="round" stroke-linejoin="round"/>
<path d="M125.57 399.173C113.435 393.35 107.612 377.806 97.6374 374.464C85.283 370.194 81.8231 384 61.8399 380.591C45.0636 377.722 39.899 358.869 11.9328 364.692C3.3758 366.481 -2.31197 373.722 0.911664 382.397C3.30829 391.038 15.207 396.506 22.2956 400.962C28.5572 404.506 34.11 406.397 37.8399 412.996C37.8399 412.996 37.8399 413.131 37.9581 413.215C40.456 418.566 39.4602 423.342 45.2999 427.258C58.9876 437.283 76.0509 421.367 91.629 421.84C102.616 422.16 102.296 433.654 115.511 436.878C128.726 440.101 124.304 428.439 151.747 439.072C152.222 439.254 152.749 439.241 153.214 439.035C153.679 438.829 154.043 438.448 154.228 437.975C154.353 437.635 154.381 437.268 154.309 436.913C154.238 436.559 154.07 436.231 153.823 435.966C134.616 415.814 143.46 407.764 125.57 399.173Z" fill="#4A84D8"/>
<path d="M125.57 399.173C113.435 393.35 107.612 377.806 97.6374 374.464C85.283 370.194 81.8231 384 61.8399 380.591C45.0636 377.722 39.899 358.869 11.9328 364.692C3.3758 366.481 -2.31197 373.722 0.911664 382.397C3.30829 391.038 15.207 396.506 22.2956 400.962C28.5572 404.506 34.11 406.397 37.8399 412.996C37.8399 412.996 37.8399 413.131 37.9581 413.215C40.456 418.566 39.4602 423.342 45.2999 427.258C58.9876 437.283 76.0509 421.367 91.629 421.84C102.616 422.16 102.296 433.654 115.511 436.878C128.726 440.101 124.304 428.439 151.747 439.072C152.222 439.254 152.749 439.241 153.214 439.035C153.679 438.829 154.043 438.448 154.228 437.975C154.353 437.635 154.381 437.268 154.309 436.913C154.238 436.559 154.07 436.231 153.823 435.966C134.616 415.814 143.46 407.764 125.57 399.173Z" fill="#00AD9F"/>
<g style="mix-blend-mode:screen" opacity="0.5">
<g style="mix-blend-mode:screen" opacity="0.5">
<path d="M141.097 425.317C130.667 419.916 124.642 408.54 113.638 404.051C111.172 403.007 108.517 402.484 105.84 402.515C102.009 402.616 98.2621 404.203 94.414 403.781C88.895 403.224 85.4351 398.414 80.5406 396.388C74.9541 394.093 69.2494 397.654 63.4604 396.253C57.6713 394.852 52.7937 390.532 48.1355 386.92C38.8083 379.389 27.178 375.29 15.1903 375.308C14.5659 375.308 14.8359 376.996 15.5448 376.996C29.1313 376.996 40.0173 382.431 50.4983 390.498C54.4308 393.553 58.6165 396.76 63.5448 397.941C69.4519 399.376 75.3591 395.713 81.0638 398.329C85.5026 400.371 88.7768 404.557 93.7895 405.367C99.933 406.363 105.604 403.139 111.865 405.08C123.798 408.793 130.06 421.283 140.912 426.903C141.688 427.291 141.654 425.654 141.097 425.367V425.317Z" fill="#4CA1FF"/>
</g>
</g>
<path d="M243.714 480.776C203.798 485.013 197.401 488.456 187.832 484.321C175.629 479.038 162.802 480.355 150.515 475.308C138.228 470.262 124.861 466.414 111.697 468.557C107.545 469.232 102.937 470.92 102.363 475.798C102.172 477.764 102.719 479.732 103.899 481.317C106.785 485.333 111.511 486.701 116.034 487.933L131.123 492.101C132.172 492.386 133.093 493.02 133.733 493.899C134.373 494.778 134.694 495.85 134.643 496.936C134.592 498.022 134.172 499.058 133.452 499.873C132.732 500.688 131.756 501.233 130.684 501.418H130.549C126.286 501.768 121.995 501.362 117.874 500.22C108.811 498.211 99.7305 495.781 90.4478 495.764C79.2073 495.764 67.2916 499.798 61.7558 510.279C59.7715 514.011 59.0659 518.292 59.7473 522.464C61.7051 534.042 72.5406 537.907 82.144 537.047C88.895 536.439 95.2916 533.823 101.671 531.511C117.266 525.874 130.6 532.101 147.241 532.523C192.929 533.722 243.714 480.776 243.714 480.776Z" fill="#7EE8D4"/>
<path d="M72.186 517.333C100.625 514.076 129.266 510.785 156.574 502.144C164.574 499.612 174.886 498.903 197.469 482.245" stroke="#00AD9F" stroke-linecap="round" stroke-linejoin="round"/>
<path d="M118.245 352.439C119.168 353.16 120.163 353.782 121.216 354.295C126.093 356.692 131.68 357.03 135.562 361.401C138.161 364.169 139.562 367.848 141.502 371.139C141.895 371.863 142.341 372.557 142.836 373.215C148.827 381.452 154.735 382.397 161.064 382.262C163.646 382.262 166.329 381.958 169.081 381.958C173.784 381.809 178.443 382.91 182.583 385.148C186.21 387.194 189.463 389.842 192.203 392.979C192.544 393.295 192.983 393.485 193.447 393.516C193.911 393.546 194.372 393.417 194.751 393.148C195.118 392.919 195.408 392.587 195.586 392.194C195.763 391.8 195.819 391.363 195.747 390.937C194.532 384.727 191.418 379.048 186.836 374.684C175.646 364.101 159.14 363.257 158.144 341.418C157.941 336.726 158.937 333.418 158.144 330.076C157.656 328.117 156.674 326.316 155.292 324.844C151.916 321.198 147.038 319.578 142.718 316.675C130.988 308.236 136.574 294.616 135.528 281.587C134.836 270.954 125.266 264.034 117.452 257.958C107.68 250.768 107.697 237.789 101.114 228.152C94.532 218.515 78.127 214.65 69.4181 227.578C60.1523 240.523 65.2493 256.709 67.8991 269.772C68.5537 273.027 69.7398 276.152 71.4097 279.021C76.2873 287.46 84.6586 293.603 91.8991 300.827C96.3731 305.201 100.021 310.347 102.667 316.017C104.237 319.392 105.372 322.954 106.043 326.616L106.549 329.215C108.22 338.295 110.211 346.397 118.245 352.439Z" fill="#7EE8D4"/>
<g style="mix-blend-mode:screen" opacity="0.5">
<g style="mix-blend-mode:screen" opacity="0.5">
<path d="M76.6588 227.73C77.1314 239.696 78.0428 252.118 87.0048 261.013C91.1904 265.165 96.22 268.388 100.169 272.827C102.752 275.788 104.561 279.343 105.435 283.173C105.866 285.423 106.682 287.581 107.849 289.553C109.543 291.558 111.635 293.19 113.992 294.346C116.93 296.238 119.344 298.838 121.013 301.907C123.697 306.667 125.148 312.034 127.545 316.895C128.569 319.051 129.844 321.079 131.342 322.937C133.739 325.806 137.385 327.595 139.005 331.055C141.756 336.928 140.591 344.017 143.258 350.11C149.452 364.287 164.169 371.376 177.401 377.603C178.178 377.975 178.144 376.338 177.57 376.068C164.709 369.958 150.212 363.173 144.102 349.367C141.587 343.73 142.414 337.654 140.49 331.916C138.566 326.177 133.368 324.152 130.363 319.528C125.182 311.696 124.287 301.198 116.996 294.751C114.6 292.608 111.174 291.578 109.081 289.114C106.583 286.194 106.515 281.907 105.148 278.431C103.195 274.102 100.218 270.314 96.4731 267.393C91.2411 262.852 85.4352 258.869 82.1947 252.54C78.2791 245.063 78.009 236.287 77.6377 227.966C77.6377 227.106 76.5575 226.599 76.6082 227.73H76.6588Z" fill="#4CA1FF"/>
</g>
</g>
<g style="mix-blend-mode:multiply" opacity="0.37">
<path d="M169.08 381.958C173.784 381.809 178.443 382.91 182.583 385.148C183.021 378.397 185.266 377.047 186.785 374.599C175.595 364.017 159.089 363.173 158.093 341.333C157.891 336.641 158.886 333.333 158.093 329.992C154.718 336.996 148.777 338.431 149.249 345.587C149.722 352.743 159.089 359.798 160.777 369.097C162.245 376.793 165.08 378.751 169.08 381.958Z" fill="#5A4FD1"/>
</g>
<path d="M277.317 492.051C269.772 489.08 259.696 487.848 254.852 494.363C250.802 499.814 252.895 507.544 255.696 513.738C258.059 518.954 261.063 524.27 266.042 527.106C269.565 528.838 273.398 529.854 277.317 530.093C288.166 531.38 299.083 532.012 310.009 531.983C323.853 532.335 337.265 536.878 348.473 545.013C335.038 520.017 302.701 502.076 277.317 492.051Z" fill="#5084DA"/>
<path opacity="0.31" d="M264.068 508.304C273.671 508.709 283.359 509.384 292.574 512.101C301.789 514.819 338.262 531.528 343.933 538.616" stroke="#0B43A4" stroke-linecap="round" stroke-linejoin="round"/>
<path d="M645.907 306.262C645.672 307.371 645.565 308.504 645.587 309.637C645.587 314.836 647.696 319.764 645.587 324.962C644.321 328.338 641.755 331.122 639.764 334.177C639.321 334.829 638.915 335.505 638.549 336.203C634.059 344.844 635.747 350.312 638.549 355.663C639.696 357.857 641.063 360.051 642.228 362.414C644.368 366.396 645.41 370.875 645.249 375.392C645.043 379.365 644.164 383.275 642.65 386.954C642.52 387.382 642.543 387.842 642.716 388.254C642.888 388.667 643.199 389.007 643.595 389.215C643.947 389.426 644.353 389.53 644.764 389.515C645.174 389.5 645.571 389.367 645.907 389.131C650.725 385.421 654.265 380.299 656.034 374.481C660.338 360.405 654.025 345.89 672.321 335.747C676.236 333.57 679.511 333.013 682.042 330.954C683.517 329.696 684.645 328.08 685.317 326.262C687.004 321.823 686.312 316.962 687.004 312.017C689.182 298.414 703.291 297.367 714.008 290.937C722.819 285.874 724.692 274.667 726.515 265.418C728.523 253.975 739.646 248.54 745.08 238.717C750.515 228.895 746.903 213.283 732.084 211.325C717.047 208.911 705.35 220.152 695.241 228.017C692.73 229.965 690.553 232.308 688.793 234.954C683.578 242.768 681.941 252.523 678.836 261.789C676.991 267.476 674.132 272.783 670.397 277.452C668.164 280.217 665.596 282.695 662.751 284.827C662.059 285.333 661.401 285.857 660.726 286.363C653.755 291.629 647.663 296.793 645.907 306.262Z" fill="#7EE8D4"/>
<g style="mix-blend-mode:screen" opacity="0.5">
<g style="mix-blend-mode:screen" opacity="0.5">
<path d="M734.869 217.266C724.506 222.937 714.447 229.08 710.819 240.895C709.131 246.295 708.523 252.051 706.228 257.249C704.726 260.388 702.54 263.15 699.831 265.333C697.839 266.79 696.215 268.691 695.089 270.886C693.975 273.587 694.346 276.641 693.755 279.443C693.016 282.526 691.604 285.408 689.62 287.882C686.38 292.169 682.295 295.764 679.274 300.236C675.899 305.131 676.186 312.051 671.73 316.034C667.612 319.713 662.498 321.722 658.836 326.025C649.165 337.35 649.452 353.249 649.739 367.257C649.739 368.118 650.802 368.625 650.785 367.494C650.481 353.502 650.194 337.384 660.456 326.464C664.203 322.464 669.57 320.591 673.3 316.641C677.03 312.692 676.675 306.937 679.477 302.464C684.388 294.549 693.468 288.962 694.971 279.19C695.646 274.836 695.595 271.376 699.055 268.135C700.966 266.587 702.754 264.894 704.405 263.072C707.561 259.072 708.81 254.009 709.958 249.165C711.646 242.329 713.333 235.831 718.279 230.599C723.224 225.367 729.401 222.16 735.46 218.785C736.017 218.481 735.46 216.895 734.869 217.249V217.266Z" fill="#4CA1FF"/>
</g>
</g>
<path d="M602.295 514.599C613.789 521.08 618.481 536.658 628.017 540.557C639.831 545.62 644.101 532.253 663.46 536.878C679.679 540.76 683.443 559.527 711.24 555.629C719.679 554.43 725.738 547.713 723.156 539.021C721.367 530.414 710.076 524.304 703.443 519.544C697.536 515.679 692.219 513.452 688.996 506.768C688.986 506.695 688.986 506.621 688.996 506.549C686.886 501.165 688.169 496.557 682.7 492.338C669.958 481.671 652.321 496.118 637.131 494.667C626.397 493.637 627.443 482.498 614.734 478.43C602.025 474.363 605.586 486.11 579.443 473.958C579.219 473.853 578.977 473.793 578.73 473.782C578.483 473.771 578.236 473.809 578.004 473.894C577.772 473.978 577.559 474.108 577.377 474.276C577.195 474.443 577.049 474.645 576.945 474.869C576.796 475.193 576.743 475.552 576.79 475.904C576.838 476.257 576.986 476.589 577.215 476.861C594.515 497.755 585.367 505.046 602.295 514.599Z" fill="#4A84D8"/>
<path d="M602.295 514.599C613.789 521.08 618.481 536.658 628.017 540.557C639.831 545.62 644.101 532.253 663.46 536.878C679.679 540.76 683.443 559.527 711.24 555.629C719.679 554.43 725.738 547.713 723.156 539.021C721.367 530.414 710.076 524.304 703.443 519.544C697.536 515.679 692.219 513.452 688.996 506.768C688.986 506.695 688.986 506.621 688.996 506.549C686.886 501.165 688.169 496.557 682.7 492.338C669.958 481.671 652.321 496.118 637.131 494.667C626.397 493.637 627.443 482.498 614.734 478.43C602.025 474.363 605.586 486.11 579.443 473.958C579.219 473.853 578.977 473.793 578.73 473.782C578.483 473.771 578.236 473.809 578.004 473.894C577.772 473.978 577.559 474.108 577.377 474.276C577.195 474.443 577.049 474.645 576.945 474.869C576.796 475.193 576.743 475.552 576.79 475.904C576.838 476.257 576.986 476.589 577.215 476.861C594.515 497.755 585.367 505.046 602.295 514.599Z" fill="#00AD9F"/>
<g style="mix-blend-mode:screen" opacity="0.5">
<g style="mix-blend-mode:screen" opacity="0.5">
<path d="M588.827 488C598.954 494.161 604.287 506.431 615.511 511.089C621.553 513.62 627.004 510.988 633.114 512.051C638.65 513.013 641.654 518.194 646.616 520.355C651.831 522.667 657.536 519.73 662.954 521.401C668.76 523.207 673.249 527.916 677.671 531.831C686.212 539.619 697.143 544.278 708.675 545.047C709.435 545.047 709.215 543.443 708.591 543.359C695.325 542.515 684.962 536.608 675.274 527.933C672 524.672 668.171 522.02 663.966 520.101C657.992 517.789 651.392 521.3 645.806 518.279C641.789 516.101 638.971 511.966 634.464 510.667C628.591 508.979 622.65 511.933 616.658 509.857C604.844 505.755 599.443 492.692 589.063 486.414C588.338 485.975 588.354 487.629 588.878 487.949L588.827 488Z" fill="#4CA1FF"/>
</g>
</g>
<path d="M191.646 483.106C191.646 483.106 141.519 472.152 102.971 476.27C101.755 476.405 103.241 468.81 103.241 468.81C103.241 468.81 95.3081 477.249 93.2997 477.553C72.1014 480.928 51.4431 488.253 37.3672 502.549C37.3672 502.549 63.0043 397.215 203.426 412.878L191.646 483.106Z" fill="#EA366C"/>
<path d="M220.776 488.76C220.776 488.76 198.312 478.633 170.295 456.793C169.165 455.933 174.245 449.198 174.245 449.198C174.245 449.198 163.089 451.021 161.148 449.384C129.08 422.38 92.2701 380.641 73.7554 321.89C73.7554 321.89 104.523 323.19 147.578 338.92C149.418 339.578 154.329 348.776 154.329 348.776C154.329 348.776 156.321 342.245 157.941 342.903C208.146 363.254 252.973 394.924 288.928 435.443L220.776 488.76Z" fill="#EA366C"/>
<g style="mix-blend-mode:multiply" opacity="0.4">
<g style="mix-blend-mode:multiply" opacity="0.4">
<path d="M73.7554 323.325C92.5619 331.821 110.84 341.442 128.49 352.135C146.245 362.684 163.359 374.262 180.051 386.414C188.49 392.439 196.422 398.987 204.557 405.35L216.371 415.325C218.329 417.013 220.338 418.616 222.279 420.388L227.966 425.637C243.276 439.473 257.722 454.234 271.224 469.84L260.321 458.886L254.852 453.35C253.013 451.561 251.089 449.84 249.215 448.068L237.992 437.485L226.397 427.359C218.734 420.49 210.667 414.127 202.768 407.527C194.616 401.266 186.599 394.819 178.211 388.878C161.738 376.574 144.658 365.08 127.224 354.144C118.515 348.664 109.699 343.359 100.776 338.228C91.8538 333.097 82.8468 328.129 73.7554 323.325Z" fill="#5084DA"/>
</g>
<g style="mix-blend-mode:multiply" opacity="0.4">
<path d="M191.241 396.625C186.177 395.376 181.114 394.262 176.051 393.148C170.987 392.034 165.924 391.072 160.861 390.245C155.798 389.418 150.616 388.777 145.468 388.27C140.321 387.764 135.139 387.646 129.874 387.663C135.023 386.494 140.29 385.927 145.57 385.975C150.851 386.033 156.121 386.49 161.333 387.342C171.694 388.995 181.765 392.121 191.241 396.625Z" fill="#5084DA"/>
</g>
<g style="mix-blend-mode:multiply" opacity="0.4">
<path d="M141.924 362.869C138.295 362.65 134.683 362.515 131.089 362.38C127.494 362.245 123.899 362.228 120.304 362.295C116.709 362.363 113.148 362.549 109.57 362.836C105.991 363.122 102.447 363.696 98.8691 364.355C102.228 362.893 105.745 361.828 109.35 361.182C112.959 360.561 116.609 360.217 120.27 360.152C127.581 360.02 134.873 360.935 141.924 362.869Z" fill="#5084DA"/>
</g>
<g style="mix-blend-mode:multiply" opacity="0.4">
<path d="M235.713 433.992C231.2 432.067 226.552 430.476 221.806 429.232C217.118 427.974 212.338 427.088 207.511 426.582C202.694 426.025 197.838 425.873 192.996 426.127C188.096 426.409 183.216 426.972 178.38 427.815C182.985 425.857 187.833 424.528 192.793 423.865C197.784 423.17 202.842 423.108 207.848 423.679C212.851 424.201 217.771 425.334 222.498 427.055C227.228 428.687 231.684 431.025 235.713 433.992Z" fill="#5084DA"/>
</g>
<g style="mix-blend-mode:multiply" opacity="0.4">
<path d="M191.241 396.625C187.634 390.492 183.689 384.565 179.426 378.869C177.35 376.034 175.089 373.333 172.675 370.684C170.262 368.034 167.815 365.62 165.3 362.92C168.572 364.538 171.61 366.593 174.329 369.03C177.073 371.442 179.556 374.134 181.739 377.063C183.94 379.975 185.862 383.089 187.477 386.363C189.161 389.61 190.426 393.059 191.241 396.625Z" fill="#5084DA"/>
</g>
<g style="mix-blend-mode:multiply" opacity="0.4">
<path d="M235.173 432.996C233.232 429.097 231.224 425.283 229.249 421.469C227.275 417.654 225.199 413.924 223.021 410.262C220.844 406.599 218.515 403.038 216.085 399.544C213.654 396.051 210.903 392.793 207.983 389.519C211.671 391.899 215.011 394.779 217.907 398.076C220.781 401.399 223.357 404.968 225.604 408.743C230.091 416.253 233.324 424.445 235.173 432.996Z" fill="#5084DA"/>
</g>
</g>
<g style="mix-blend-mode:screen" opacity="0.5">
<g style="mix-blend-mode:screen" opacity="0.5">
<path d="M58.937 479.511C65.3336 470.785 74.1269 464 83.4096 458.498C92.8537 453.09 103.005 449.023 113.57 446.414L121.536 444.726C124.203 444.135 126.92 443.949 129.604 443.561C134.977 442.869 140.388 442.514 145.806 442.498C148.507 442.329 151.207 442.599 153.907 442.684L161.992 443.089C167.342 443.764 172.692 444.506 177.992 445.35C172.608 445.182 167.258 444.743 161.907 444.557H153.874C151.205 444.49 148.535 444.557 145.874 444.76C140.557 445.266 135.207 445.35 129.958 446.346C127.342 446.785 124.675 446.954 122.076 447.561L114.296 449.249C103.969 451.804 93.9768 455.56 84.5235 460.439C82.1475 461.63 79.8375 462.948 77.6037 464.388C76.4729 465.097 75.3252 465.772 74.2282 466.532L70.9876 468.861C66.6106 471.981 62.5718 475.551 58.937 479.511Z" fill="#4CA1FF"/>
</g>
</g>
<g style="mix-blend-mode:screen" opacity="0.5">
<g style="mix-blend-mode:screen" opacity="0.5">
<path d="M145.621 443.882C142.701 448.54 139.848 452.945 137.469 457.603C136.288 459.922 135.24 462.306 134.329 464.743C133.458 467.262 132.742 469.832 132.186 472.439C131.141 466.898 132.067 461.167 134.802 456.236C136.094 453.78 137.657 451.476 139.46 449.367C141.233 447.246 143.309 445.397 145.621 443.882Z" fill="#4CA1FF"/>
</g>
</g>
<path d="M449.924 477.671H366.92V534.751H449.924V477.671Z" fill="#0056EC"/>
<g style="mix-blend-mode:multiply" opacity="0.5">
<path d="M449.924 477.671H366.92V498.363H449.924V477.671Z" fill="#605ACA"/>
</g>
<path d="M492.658 533.857H324.186C322.887 533.802 321.592 534.011 320.376 534.471C319.16 534.93 318.05 535.63 317.112 536.53C316.174 537.429 315.428 538.509 314.918 539.704C314.408 540.9 314.146 542.186 314.146 543.485C314.146 544.785 314.408 546.071 314.918 547.266C315.428 548.462 316.174 549.541 317.112 550.441C318.05 551.34 319.16 552.041 320.376 552.5C321.592 552.96 322.887 553.168 324.186 553.114H492.658C495.214 553.114 497.666 552.099 499.473 550.291C501.28 548.484 502.295 546.033 502.295 543.477C502.291 540.924 501.274 538.477 499.467 536.673C497.66 534.87 495.211 533.857 492.658 533.857Z" fill="#0056EC"/>
<g style="mix-blend-mode:multiply" opacity="0.5">
<path d="M502.296 543.46C502.291 546.013 501.274 548.46 499.467 550.264C497.66 552.067 495.212 553.08 492.659 553.08H324.186C321.633 553.08 319.184 552.067 317.377 550.264C315.571 548.46 314.553 546.013 314.549 543.46C314.546 542.668 314.648 541.879 314.853 541.114C315.369 543.199 316.569 545.052 318.26 546.376C319.952 547.701 322.038 548.421 324.186 548.422H492.659C494.808 548.427 496.897 547.709 498.59 546.384C500.283 545.058 501.481 543.202 501.992 541.114C502.205 541.877 502.307 542.668 502.296 543.46Z" fill="#605ACA"/>
</g>
<path d="M668.118 130.802H148.726C145.464 130.802 142.819 133.446 142.819 136.709V479.713C142.819 482.976 145.464 485.62 148.726 485.62H668.118C671.381 485.62 674.026 482.976 674.026 479.713V136.709C674.026 133.446 671.381 130.802 668.118 130.802Z" fill="white"/>
<path d="M668.118 135.021C668.566 135.021 668.995 135.199 669.312 135.516C669.628 135.832 669.806 136.261 669.806 136.709V479.713C669.806 480.161 669.628 480.59 669.312 480.907C668.995 481.223 668.566 481.401 668.118 481.401H148.726C148.278 481.401 147.849 481.223 147.532 480.907C147.216 480.59 147.038 480.161 147.038 479.713V136.709C147.038 136.261 147.216 135.832 147.532 135.516C147.849 135.199 148.278 135.021 148.726 135.021H668.118ZM668.118 126.582H148.726C146.04 126.582 143.464 127.649 141.565 129.548C139.666 131.448 138.599 134.023 138.599 136.709V479.713C138.599 482.399 139.666 484.975 141.565 486.874C143.464 488.773 146.04 489.84 148.726 489.84H668.118C670.804 489.84 673.38 488.773 675.279 486.874C677.178 484.975 678.245 482.399 678.245 479.713V136.709C678.245 134.023 677.178 131.448 675.279 129.548C673.38 127.649 670.804 126.582 668.118 126.582Z" fill="#0056EC"/>
<path d="M678.245 479.021V445.57H138.599V479.106C138.599 482.136 139.803 485.042 141.946 487.185C144.089 489.328 146.995 490.532 150.025 490.532H666.819C668.327 490.534 669.821 490.237 671.213 489.659C672.606 489.08 673.871 488.231 674.933 487.16C675.996 486.09 676.836 484.819 677.404 483.422C677.972 482.025 678.258 480.529 678.245 479.021Z" fill="#0056EC"/>
<path d="M408.422 245.62C431.399 245.62 450.026 226.994 450.026 204.017C450.026 181.04 431.399 162.414 408.422 162.414C385.445 162.414 366.819 181.04 366.819 204.017C366.819 226.994 385.445 245.62 408.422 245.62Z" fill="#C8EEFB"/>
<path d="M424.507 194.515C424.51 197.697 423.569 200.808 421.804 203.456C420.039 206.103 417.528 208.167 414.589 209.387C411.65 210.607 408.416 210.928 405.295 210.309C402.173 209.69 399.306 208.16 397.055 205.911C394.804 203.662 393.27 200.796 392.648 197.676C392.026 194.555 392.344 191.32 393.561 188.38C394.777 185.44 396.839 182.927 399.484 181.159C402.13 179.391 405.24 178.447 408.422 178.447C412.685 178.447 416.774 180.14 419.79 183.152C422.806 186.165 424.502 190.252 424.507 194.515ZM432.675 261.823V233.739C432.684 231.195 432.191 228.675 431.224 226.322C430.257 223.97 428.835 221.832 427.039 220.03C425.244 218.228 423.11 216.799 420.761 215.824C418.412 214.848 415.894 214.346 413.35 214.346H403.494C398.369 214.346 393.453 216.382 389.829 220.006C386.205 223.63 384.169 228.546 384.169 233.671V261.755C384.167 262.459 384.304 263.157 384.571 263.808C384.839 264.459 385.233 265.051 385.73 265.549C386.227 266.048 386.818 266.444 387.468 266.714C388.118 266.984 388.815 267.123 389.519 267.122H427.325C428.735 267.123 430.089 266.566 431.091 265.573C432.092 264.581 432.662 263.233 432.675 261.823Z" fill="#5084DA"/>
<path d="M508.017 292.928H308.861C304.498 292.924 300.315 291.189 297.23 288.104C294.145 285.019 292.41 280.836 292.405 276.473C292.405 272.108 294.139 267.923 297.225 264.837C300.311 261.751 304.497 260.017 308.861 260.017H508.017C510.179 260.015 512.32 260.439 514.317 261.265C516.315 262.091 518.129 263.303 519.658 264.832C521.186 266.36 522.398 268.175 523.225 270.173C524.051 272.17 524.475 274.311 524.473 276.473C524.473 280.837 522.739 285.023 519.653 288.109C516.567 291.195 512.381 292.928 508.017 292.928Z" fill="#C8EEFB"/>
<path d="M501.047 280.777H315.815C314.673 280.777 313.578 280.323 312.771 279.516C311.964 278.709 311.511 277.614 311.511 276.473C311.511 275.331 311.964 274.237 312.771 273.43C313.578 272.622 314.673 272.169 315.815 272.169H501.047C502.185 272.173 503.275 272.629 504.079 273.435C504.882 274.242 505.333 275.334 505.333 276.473C505.333 277.611 504.882 278.703 504.079 279.51C503.275 280.317 502.185 280.772 501.047 280.777Z" fill="#5084DA"/>
<path d="M508.102 352.135H309.064C304.699 352.135 300.514 350.401 297.428 347.315C294.342 344.229 292.608 340.044 292.608 335.679C292.606 333.518 293.03 331.377 293.856 329.379C294.682 327.382 295.894 325.567 297.423 324.038C298.951 322.51 300.766 321.298 302.764 320.472C304.761 319.646 306.902 319.221 309.064 319.224H508.102C510.264 319.221 512.406 319.645 514.404 320.471C516.403 321.297 518.219 322.509 519.748 324.037C521.278 325.566 522.492 327.381 523.32 329.378C524.148 331.376 524.574 333.517 524.574 335.679C524.57 340.045 522.832 344.231 519.743 347.316C516.655 350.402 512.467 352.135 508.102 352.135Z" fill="#C8EEFB"/>
<path d="M314.161 340.27C313.019 340.27 311.925 339.817 311.118 339.01C310.31 338.203 309.857 337.108 309.857 335.966C309.857 335.401 309.968 334.842 310.185 334.319C310.401 333.797 310.718 333.323 311.118 332.923C311.517 332.524 311.992 332.206 312.514 331.99C313.036 331.774 313.596 331.663 314.161 331.663C315.299 331.667 316.39 332.122 317.193 332.929C317.997 333.736 318.448 334.828 318.448 335.966C318.448 337.105 317.997 338.197 317.193 339.004C316.39 339.81 315.299 340.266 314.161 340.27ZM331.224 335.966C331.224 334.828 330.773 333.736 329.969 332.929C329.166 332.122 328.076 331.667 326.937 331.663C326.372 331.663 325.812 331.774 325.29 331.99C324.768 332.206 324.293 332.524 323.894 332.923C323.494 333.323 323.177 333.797 322.961 334.319C322.745 334.842 322.633 335.401 322.633 335.966C322.633 336.532 322.745 337.091 322.961 337.613C323.177 338.136 323.494 338.61 323.894 339.01C324.293 339.409 324.768 339.726 325.29 339.943C325.812 340.159 326.372 340.27 326.937 340.27C328.076 340.266 329.166 339.81 329.969 339.004C330.773 338.197 331.224 337.105 331.224 335.966ZM344.017 335.966C344.017 335.401 343.906 334.842 343.69 334.319C343.473 333.797 343.156 333.323 342.757 332.923C342.357 332.524 341.883 332.206 341.36 331.99C340.838 331.774 340.279 331.663 339.713 331.663C339.148 331.663 338.589 331.774 338.066 331.99C337.544 332.206 337.07 332.524 336.67 332.923C336.271 333.323 335.954 333.797 335.737 334.319C335.521 334.842 335.41 335.401 335.41 335.966C335.41 337.108 335.863 338.203 336.67 339.01C337.477 339.817 338.572 340.27 339.713 340.27C340.855 340.27 341.95 339.817 342.757 339.01C343.564 338.203 344.017 337.108 344.017 335.966ZM356.794 335.966C356.794 335.401 356.682 334.842 356.466 334.319C356.25 333.797 355.933 333.323 355.533 332.923C355.133 332.524 354.659 332.206 354.137 331.99C353.615 331.774 353.055 331.663 352.49 331.663C351.351 331.667 350.261 332.122 349.458 332.929C348.654 333.736 348.203 334.828 348.203 335.966C348.203 337.105 348.654 338.197 349.458 339.004C350.261 339.81 351.351 340.266 352.49 340.27C353.631 340.27 354.726 339.817 355.533 339.01C356.34 338.203 356.794 337.108 356.794 335.966ZM369.57 335.966C369.57 334.828 369.119 333.736 368.315 332.929C367.512 332.122 366.422 331.667 365.283 331.663C364.718 331.663 364.158 331.774 363.636 331.99C363.114 332.206 362.639 332.524 362.24 332.923C361.84 333.323 361.523 333.797 361.307 334.319C361.091 334.842 360.979 335.401 360.979 335.966C360.979 337.108 361.433 338.203 362.24 339.01C363.047 339.817 364.142 340.27 365.283 340.27C365.851 340.275 366.414 340.167 366.94 339.952C367.466 339.738 367.945 339.422 368.348 339.022C368.751 338.622 369.071 338.146 369.29 337.621C369.508 337.097 369.621 336.534 369.621 335.966H369.57ZM382.363 335.966C382.363 335.401 382.252 334.842 382.036 334.319C381.819 333.797 381.502 333.323 381.103 332.923C380.703 332.524 380.229 332.206 379.706 331.99C379.184 331.774 378.625 331.663 378.059 331.663C377.494 331.663 376.935 331.774 376.412 331.99C375.89 332.206 375.416 332.524 375.016 332.923C374.617 333.323 374.3 333.797 374.083 334.319C373.867 334.842 373.756 335.401 373.756 335.966C373.756 336.532 373.867 337.091 374.083 337.613C374.3 338.136 374.617 338.61 375.016 339.01C375.416 339.409 375.89 339.726 376.412 339.943C376.935 340.159 377.494 340.27 378.059 340.27C379.201 340.27 380.296 339.817 381.103 339.01C381.91 338.203 382.363 337.108 382.363 335.966ZM395.14 335.966C395.14 335.401 395.028 334.842 394.812 334.319C394.596 333.797 394.279 333.323 393.879 332.923C393.479 332.524 393.005 332.206 392.483 331.99C391.961 331.774 391.401 331.663 390.836 331.663C389.697 331.667 388.607 332.122 387.803 332.929C387 333.736 386.549 334.828 386.549 335.966C386.549 337.105 387 338.197 387.803 339.004C388.607 339.81 389.697 340.266 390.836 340.27C391.977 340.27 393.072 339.817 393.879 339.01C394.686 338.203 395.14 337.108 395.14 335.966Z" fill="#5084DA"/>
<path d="M436.692 414.16H380.152C375.786 414.156 371.601 412.418 368.515 409.33C365.429 406.241 363.696 402.054 363.696 397.688C363.701 393.325 365.436 389.142 368.521 386.057C371.606 382.972 375.789 381.237 380.152 381.232H436.692C441.056 381.232 445.242 382.966 448.328 386.052C451.414 389.138 453.148 393.324 453.148 397.688C453.15 399.85 452.726 401.992 451.9 403.99C451.074 405.989 449.862 407.805 448.334 409.335C446.806 410.865 444.991 412.078 442.993 412.906C440.996 413.734 438.854 414.16 436.692 414.16Z" fill="#5084DA"/>
<g style="mix-blend-mode:multiply" opacity="0.09">
<path d="M264.534 485.408V466.589C264.53 463.618 263.347 460.77 261.247 458.67C259.146 456.569 256.298 455.387 253.327 455.382H252.348V437.948C252.348 425.62 247.451 413.798 238.734 405.081C230.017 396.364 218.195 391.467 205.867 391.467C193.54 391.467 181.717 396.364 173 405.081C164.283 413.798 159.386 425.62 159.386 437.948V455.382H158.407C155.435 455.382 152.585 456.563 150.483 458.665C148.381 460.766 147.201 463.617 147.201 466.589V485.408H264.534ZM174.745 437.948C174.745 429.694 178.024 421.778 183.86 415.941C189.697 410.104 197.613 406.825 205.867 406.825C214.121 406.825 222.038 410.104 227.874 415.941C233.711 421.778 236.99 429.694 236.99 437.948V455.382H174.745V437.948Z" fill="black"/>
</g>
<g style="mix-blend-mode:multiply" opacity="0.09">
<path d="M639.072 313.215C634.29 309.257 628.388 306.896 622.195 306.464C622.195 305.857 622.195 305.232 622.195 304.456C625.57 303.899 628.574 300.895 630.279 296.827C634.92 292.355 638.076 286.836 636.558 279.848C636.517 279.677 636.512 279.499 636.541 279.325C636.569 279.151 636.633 278.985 636.726 278.836C634.718 275.258 631.039 273.536 626.971 269.84C613.25 257.418 596.929 274.684 603.106 281.806C603.886 283.006 604.457 284.33 604.794 285.722V285.84C604.627 286.649 604.631 287.485 604.805 288.293C604.98 289.101 605.321 289.863 605.806 290.532C605.806 291.224 605.925 291.933 605.925 292.625C605.96 292.689 605.988 292.757 606.009 292.827C606.204 293.869 606.593 294.866 607.157 295.764C607.514 297.62 608.348 299.352 609.575 300.79C610.803 302.228 612.383 303.323 614.161 303.966C614.492 304.088 614.83 304.189 615.174 304.27C615.384 304.994 615.43 305.755 615.309 306.498C611.429 306.917 607.686 308.173 604.338 310.177C578.11 322.869 552.169 363.713 555.022 372.726C557.874 381.739 565.148 392.287 570.009 399.325L570.768 399.19C571.174 400.54 571.562 401.907 571.95 403.258C572.087 403.952 572.415 404.594 572.895 405.114C573.689 405.644 574.655 405.849 575.596 405.688C576.767 405.77 577.93 405.441 578.887 404.76C579.36 404.301 579.688 403.715 579.832 403.072C580.208 401.276 579.901 399.405 578.971 397.823L579.545 397.722C579.545 397.722 568.237 380.844 568.642 370.481C568.794 366.701 577.621 357.823 584.794 351.207C584.642 353.502 584.541 355.848 584.541 358.211L581.165 440.456C581.165 440.456 584.136 441.03 588.895 441.789L593.52 490.903H612.085L612.541 444.642H613.266H613.908L616.659 444.827H617.604H618.6L620.422 490.701H638.752L642.498 443.983C643.252 443.871 643.995 443.736 644.726 443.578C645.047 443.578 645.368 443.443 645.671 443.376C646.279 443.241 646.887 443.106 647.46 442.937L648.389 442.684C648.979 442.515 649.536 442.329 650.077 442.144L650.853 441.874C651.629 441.587 652.372 441.266 653.081 440.928L652.693 351.983C652.693 350.059 652.693 348.186 652.524 346.38C652.524 346.245 652.524 346.11 652.524 345.975C652.406 344.287 652.254 342.599 652.051 341.013C652.051 340.861 652.051 340.709 652.051 340.54V340.101C655.68 340.827 660.406 341.688 666.566 342.734C670.453 343.371 674.433 343.122 678.211 342.009V324.22C662.819 325.975 645.638 317.182 639.072 313.215Z" fill="black"/>
</g>
<path opacity="0.3" d="M388.709 362.903C404.499 362.903 417.3 350.103 417.3 334.312C417.3 318.522 404.499 305.722 388.709 305.722C372.919 305.722 360.118 318.522 360.118 334.312C360.118 350.103 372.919 362.903 388.709 362.903Z" fill="#94EBFF"/>
<path opacity="0.5" d="M388.709 349.823C397.276 349.823 404.22 342.879 404.22 334.312C404.22 325.746 397.276 318.802 388.709 318.802C380.143 318.802 373.199 325.746 373.199 334.312C373.199 342.879 380.143 349.823 388.709 349.823Z" fill="#94EBFF"/>
<path d="M207.403 394.805C195.08 394.819 183.265 399.72 174.551 408.434C165.837 417.148 160.936 428.963 160.922 441.286V485.995H253.884V441.286C253.871 428.963 248.97 417.148 240.256 408.434C231.542 399.72 219.727 394.819 207.403 394.805ZM176.281 470.62V441.286C176.281 433.032 179.56 425.116 185.397 419.279C191.233 413.443 199.149 410.164 207.403 410.164C215.658 410.164 223.574 413.443 229.41 419.279C235.247 425.116 238.526 433.032 238.526 441.286V470.62H176.281Z" fill="#F9714E"/>
<g style="mix-blend-mode:multiply" opacity="0.4">
<path d="M207.403 403.987C202.527 403.987 197.699 404.947 193.194 406.813C188.689 408.679 184.596 411.414 181.148 414.862C177.7 418.31 174.965 422.403 173.099 426.908C171.233 431.413 170.272 436.241 170.272 441.117V476.847H244.534V441.101C244.53 431.256 240.616 421.816 233.653 414.856C226.69 407.896 217.248 403.987 207.403 403.987ZM238.526 470.62H176.298V441.286C176.298 433.032 179.577 425.116 185.413 419.279C191.25 413.443 199.166 410.164 207.42 410.164C215.674 410.164 223.59 413.443 229.427 419.279C235.264 425.116 238.543 433.032 238.543 441.286L238.526 470.62Z" fill="#F9714E"/>
</g>
<path d="M254.661 458.721H160.18C153.87 458.721 148.754 463.836 148.754 470.147V540.898C148.754 547.208 153.87 552.324 160.18 552.324H254.661C260.972 552.324 266.087 547.208 266.087 540.898V470.147C266.087 463.836 260.972 458.721 254.661 458.721Z" fill="#FFB255"/>
<path d="M224.467 499.041C224.46 496.015 223.648 493.044 222.115 490.435C220.581 487.826 218.382 485.671 215.741 484.192C213.1 482.713 210.113 481.964 207.087 482.02C204.061 482.076 201.104 482.936 198.52 484.511C195.936 486.087 193.818 488.322 192.382 490.986C190.946 493.651 190.245 496.649 190.351 499.674C190.456 502.699 191.364 505.641 192.982 508.199C194.599 510.757 196.868 512.839 199.555 514.231V532.544H215.269V514.181C218.041 512.741 220.364 510.568 221.986 507.898C223.608 505.229 224.466 502.165 224.467 499.041Z" fill="#F9714E"/>
<g style="mix-blend-mode:multiply" opacity="0.4">
<path d="M254.881 458.721H226.695C220.493 477.878 211.045 495.827 198.763 511.784C187.421 526.518 169.581 545.219 149.396 544.83C150.162 547.021 151.591 548.919 153.484 550.261C155.377 551.604 157.64 552.325 159.961 552.324H254.881C257.853 552.324 260.703 551.143 262.805 549.042C264.907 546.94 266.087 544.09 266.087 541.117V469.927C266.087 466.955 264.907 464.105 262.805 462.003C260.703 459.901 257.853 458.721 254.881 458.721Z" fill="#FFB255"/>
</g>
<path d="M558.194 395.612L560.422 403.342C560.56 404.036 560.887 404.679 561.367 405.198C562.161 405.728 563.127 405.933 564.068 405.772C565.268 405.874 566.464 405.545 567.443 404.844C567.916 404.386 568.245 403.799 568.389 403.156C568.784 401.216 568.402 399.198 567.325 397.536C566.255 395.895 564.973 394.402 563.511 393.097" fill="#FFC2D3"/>
<path d="M697.131 306.616C698.029 303.018 699.255 299.51 700.793 296.135C701.464 297.256 701.676 298.592 701.384 299.865C702.177 297.968 703.635 296.425 705.485 295.528C705.697 295.398 705.951 295.356 706.194 295.409C706.31 295.484 706.408 295.583 706.481 295.699C706.554 295.816 706.6 295.948 706.616 296.085C707.337 298.873 707.014 301.829 705.709 304.396C704.403 306.963 702.205 308.965 699.527 310.025" fill="#FFC2D3"/>
<path d="M621.215 546.835C627.781 548.422 633.283 550.363 636.287 553.063H610.971L611.443 547.19L621.215 546.835Z" fill="#5084DA"/>
<path d="M590.262 546.835C583.697 548.422 578.195 550.363 575.19 553.063H600.507L600.034 547.19L590.262 546.835Z" fill="#5084DA"/>
<path d="M634.599 399.393L622.667 547.916C620.819 548.384 618.941 548.723 617.047 548.928C615.946 548.851 614.852 548.699 613.772 548.473C612.388 548.203 611.173 547.916 611.173 547.916L606.718 435.646H601.114L600.034 547.916C598.055 548.471 596.013 548.772 593.958 548.81C591.733 548.741 589.522 548.442 587.359 547.916L573.03 395.595L634.599 399.393Z" fill="#2E2C84"/>
<g style="mix-blend-mode:multiply" opacity="0.3">
<g style="mix-blend-mode:multiply" opacity="0.5">
<path d="M611.646 397.975L590.718 396.625C590.448 423.966 594.566 521.722 594.988 548.709C596.7 548.589 598.396 548.301 600.051 547.848L601.131 435.578H606.735L611.19 547.848C611.19 547.848 612.406 548.135 613.79 548.405L615.022 548.625C614.937 518.144 612.169 410.549 611.646 397.975Z" fill="#2E2C84"/>
</g>
</g>
<path d="M594.397 292.709C594.432 292.773 594.46 292.841 594.481 292.911C595.393 297.823 600.051 300.338 605.232 301.772C609.435 302.937 610.414 303.46 613.789 300.996C620.81 295.932 627.055 289.181 625.03 279.932C624.99 279.761 624.984 279.583 625.013 279.409C625.042 279.235 625.105 279.069 625.199 278.92C623.207 275.342 619.511 273.62 615.443 269.924C601.722 257.502 585.401 274.768 591.578 281.89C593.443 285.19 594.414 288.919 594.397 292.709Z" fill="#001F64"/>
<path d="M641.198 352.186C641.198 323.949 629.519 306.397 607.139 306.397C584.76 306.397 573.013 330.025 573.013 358.228L569.637 440.473C569.637 440.473 621.823 450.819 641.654 441.131L641.198 352.186Z" fill="#8FC2FF"/>
<g style="mix-blend-mode:multiply" opacity="0.3">
<path d="M641.199 352.186C641.305 345.076 640.39 337.988 638.481 331.139C636.49 361.873 633.806 443.679 588.068 443.342C605.064 445.468 629.401 447.072 641.587 441.131L641.199 352.186Z" fill="#8FC2FF"/>
</g>
<path d="M618.633 289.401C617.789 283.848 612.844 278.279 606.819 281.165C605.135 282.092 603.257 282.608 601.336 282.673C599.415 282.737 597.506 282.348 595.764 281.536C595.663 282.599 595.528 284.169 595.41 285.806C594.751 284.574 593.621 284.388 593.283 285.924C592.945 287.46 593.367 290.616 595.14 291.19V291.983C595.224 296.152 596.912 302.751 603.663 304.338C603.986 305.627 603.922 306.983 603.477 308.236C603.848 309.536 609.081 310.38 610.819 308.844C610.667 307.409 610.622 305.965 610.684 304.523C614.667 303.882 617.992 299.949 619.494 294.903C625.503 291.544 621.199 285.401 618.633 289.401Z" fill="#FFC2D3"/>
<g style="mix-blend-mode:multiply" opacity="0.3">
<path d="M618.633 289.401C618.282 287.172 617.338 285.08 615.899 283.342C616.068 292.996 611.95 301.907 602.633 304.051C602.965 304.172 603.303 304.273 603.646 304.354C603.969 305.644 603.905 307 603.46 308.253C603.832 309.553 609.064 310.397 610.802 308.861C610.65 307.426 610.605 305.982 610.667 304.54C614.65 303.899 617.975 299.966 619.477 294.92C625.503 291.544 621.199 285.401 618.633 289.401Z" fill="#FFC2D3"/>
</g>
<path d="M625.131 311.696C629.233 314.65 663.511 335.19 682.346 317.063C695.967 303.949 697.334 301.435 697.334 301.435L702.009 309.688C702.009 309.688 680.709 347.291 654.937 342.937C629.165 338.582 628.524 337.249 628.524 337.249L625.131 311.696Z" fill="#8FC2FF"/>
<g style="mix-blend-mode:multiply" opacity="0.09">
<path d="M526.654 483.133C516.941 485.967 508.605 492.266 503.228 500.837H572.848C567.471 492.266 559.135 485.967 549.422 483.133V312.533H526.654V315.318H502.401V335.858H526.722V340.736H502.401V361.276H526.722L526.654 483.133Z" fill="black"/>
</g>
<path d="M506.734 333.708H535.898V313.168H506.734V333.708Z" fill="#FFB255"/>
<path d="M506.734 359.143H535.898V338.603H506.734V359.143Z" fill="#FFB255"/>
<g style="mix-blend-mode:multiply" opacity="0.5">
<path d="M538.974 335.858H546.417V315.318H538.974V335.858Z" fill="#FFC87C"/>
</g>
<g style="mix-blend-mode:multiply" opacity="0.5">
<path d="M538.974 361.293H546.417V340.753H538.974V361.293Z" fill="#FFC87C"/>
</g>
<path d="M531.055 488.864H553.823V310.4H531.055V488.864Z" fill="#FFB255"/>
<g style="mix-blend-mode:multiply" opacity="0.5">
<path d="M542.077 495.008H542.785C543.55 495.008 544.169 494.388 544.169 493.624V317.927C544.169 317.163 543.55 316.544 542.785 316.544H542.077C541.312 316.544 540.693 317.163 540.693 317.927V493.624C540.693 494.388 541.312 495.008 542.077 495.008Z" fill="#FFC87C"/>
</g>
<path d="M501.334 520.442C501.331 512.317 503.736 504.373 508.246 497.614C512.756 490.855 519.168 485.585 526.673 482.47C534.177 479.354 542.436 478.533 550.407 480.11C558.378 481.687 565.703 485.591 571.455 491.33C577.208 497.068 581.13 504.383 582.727 512.35C584.324 520.317 583.523 528.578 580.426 536.09C577.328 543.602 572.074 550.027 565.326 554.554C558.579 559.081 550.641 561.506 542.515 561.522C537.114 561.529 531.764 560.472 526.771 558.411C521.779 556.35 517.241 553.326 513.417 549.511C509.593 545.697 506.557 541.166 504.484 536.178C502.411 531.191 501.341 525.844 501.334 520.442ZM522.532 520.442C522.532 524.374 523.697 528.218 525.88 531.489C528.063 534.759 531.166 537.309 534.797 538.818C538.428 540.327 542.425 540.726 546.282 539.965C550.14 539.204 553.686 537.317 556.472 534.542C559.258 531.768 561.16 528.23 561.937 524.376C562.714 520.521 562.332 516.523 560.839 512.886C559.346 509.248 556.809 506.135 553.548 503.938C550.286 501.741 546.447 500.56 542.515 500.543C539.896 500.535 537.3 501.043 534.877 502.038C532.454 503.034 530.252 504.498 528.395 506.347C526.539 508.195 525.066 510.392 524.06 512.81C523.054 515.229 522.535 517.823 522.532 520.442Z" fill="#FFB255"/>
<path d="M592.81 310.262C566.582 322.954 540.642 363.798 543.494 372.81C546.346 381.823 553.62 392.371 558.481 399.409L568.017 397.722C568.017 397.722 556.709 380.844 557.114 370.481C557.367 364.118 582.431 343.156 582.431 343.156L592.81 310.262Z" fill="#8FC2FF"/>
<g style="mix-blend-mode:multiply" opacity="0.5">
<path d="M520.534 519.973C520.534 524.288 521.813 528.507 524.208 532.096C526.603 535.685 530.008 538.485 533.993 540.141C537.978 541.797 542.364 542.235 546.597 541.4C550.831 540.566 554.723 538.496 557.781 535.452C560.839 532.407 562.927 528.525 563.781 524.296C564.636 520.066 564.217 515.678 562.58 511.685C560.943 507.693 558.159 504.275 554.581 501.863C551.003 499.451 546.79 498.154 542.475 498.134C536.674 498.133 531.108 500.431 526.996 504.524C522.884 508.617 520.561 514.172 520.534 519.973ZM522.475 519.973C522.475 516.042 523.64 512.199 525.822 508.929C528.004 505.659 531.106 503.108 534.736 501.599C538.366 500.09 542.362 499.69 546.219 500.45C550.076 501.209 553.622 503.094 556.409 505.867C559.196 508.64 561.099 512.176 561.878 516.029C562.657 519.883 562.277 523.881 560.787 527.518C559.296 531.156 556.762 534.271 553.503 536.469C550.244 538.668 546.406 539.852 542.475 539.872C539.856 539.881 537.26 539.373 534.837 538.377C532.414 537.381 530.211 535.917 528.355 534.069C526.499 532.22 525.025 530.024 524.019 527.605C523.013 525.186 522.494 522.593 522.492 519.973H522.475Z" fill="#FFC87C"/>
</g>
<g style="mix-blend-mode:multiply" opacity="0.09">
<path d="M377.182 340.27C369.975 346.65 344 373.857 339.241 359.055C335.46 347.241 327.562 331.19 322.92 325.789C319.962 322.399 316.041 319.991 311.68 318.886V317.013C316.186 317.013 323.241 316.118 323.241 299.882C323.419 296.41 322.973 292.935 321.924 289.62C322.535 288.83 322.892 287.872 322.946 286.874C323 285.877 322.75 284.886 322.228 284.034C320.979 281.958 317.654 280.152 315.477 279.173C310.262 276.878 303.46 275.798 298.465 279.038C296.746 276.81 294.607 274.941 292.169 273.536C290.095 272.26 287.745 271.502 285.317 271.325C280.507 271.325 276.338 274.92 274.127 279.173C272.241 282.622 271.569 286.605 272.22 290.481C272.567 292.407 273.358 294.225 274.53 295.793C275.702 297.36 277.222 298.633 278.971 299.511C280.008 300.055 281.181 300.284 282.346 300.169C283.843 299.853 285.188 299.037 286.161 297.857C288.726 295.19 289.165 292 291.055 289.114C291.326 288.713 291.684 288.378 292.102 288.135C291.535 290.014 291.234 291.962 291.207 293.924C291.389 299.546 292.942 305.039 295.73 309.924C296.327 311.295 297.248 312.499 298.414 313.435C299.578 314.245 302.616 315.038 303.849 314.245L303.342 318.228C299.654 318.563 296.065 319.612 292.777 321.317C273.249 325.806 258.515 373.755 232.406 370.565C229.216 369.688 225.739 369.435 225.553 372.54C225.199 378.633 228.929 379.409 232.406 378.903V379.038C239.635 379.104 246.793 377.598 253.382 374.622C259.972 371.647 265.835 367.273 270.566 361.806C263.528 401.401 266.346 453.266 266.346 453.266C268.22 453.536 270.093 453.772 271.967 454.009L275.173 490.295H291.798V455.679C295.173 455.814 298.549 455.882 301.806 455.848L302.195 490.295H321.469L325.199 454.177C328.574 453.705 331.95 453.131 335.325 452.49C334.65 430.701 334.549 402.245 333.114 377.587C334.1 378.571 335.329 379.275 336.676 379.629C338.954 380.186 348.709 391.443 355.73 382.886C362.751 374.329 377.671 356.287 383.207 347.055C381.975 343.983 378.819 343.089 377.182 340.27Z" fill="black"/>
</g>
<path d="M313.89 312.776L312.793 321.182L321.62 322.16V313.283L313.89 312.776Z" fill="#F9ACC8"/>
<g style="mix-blend-mode:multiply" opacity="0.1">
<path d="M245.772 374.245C245.772 374.245 234.076 368.473 233.738 374.245C233.097 385.165 245.772 379.004 245.772 379.004V374.245Z" fill="black"/>
</g>
<path d="M247.426 372.591C247.426 372.591 235.73 366.819 235.393 372.591C234.751 383.511 247.426 377.35 247.426 377.35V372.591Z" fill="#FFC2D3"/>
<path d="M305.907 299.882C305.907 307.528 313.789 317.03 321.435 317.03C325.924 317.03 333.249 316.355 333.249 299.882C333.249 282.565 327.443 286.059 319.747 286.059C317.93 286.057 316.131 286.413 314.452 287.106C312.773 287.8 311.247 288.818 309.962 290.102C308.676 291.386 307.657 292.91 306.961 294.588C306.265 296.266 305.907 298.065 305.907 299.882Z" fill="#FFC2D3"/>
<g style="mix-blend-mode:multiply" opacity="0.3">
<path d="M317.536 306.312C317.441 299.428 318.525 292.578 320.743 286.059H319.73C316.064 286.059 312.548 287.515 309.956 290.108C307.364 292.7 305.907 296.216 305.907 299.882C305.907 307.376 313.485 316.641 320.996 316.996C318.54 313.997 317.304 310.182 317.536 306.312Z" fill="#FFC2D3"/>
</g>
<path d="M330.262 290.633C329.03 290.819 327.731 290.228 326.583 290.633C324.743 291.376 324.625 294.177 322.92 295.207C320.811 296.506 317.621 294.279 315.764 295.933C314.684 296.895 314.802 298.616 314.92 300.085C315.218 303.956 314.789 307.848 313.655 311.561C313.401 312.422 314.532 313.958 313.857 314.549C312.726 315.528 309.469 314.667 308.254 313.806C307.083 312.869 306.161 311.657 305.57 310.279C302.78 305.327 301.229 299.774 301.047 294.093C300.984 291.263 301.578 288.457 302.782 285.895C303.985 283.332 305.766 281.084 307.984 279.325C313.047 275.713 320.051 276.81 325.401 279.207C327.595 280.203 330.903 282.025 332.152 284.118C333.401 286.211 333.216 290.194 330.262 290.633Z" fill="#FFB255"/>
<g style="mix-blend-mode:multiply" opacity="0.5">
<path d="M328.793 281.08C326.987 282.768 325.182 285.604 323.814 286.549C321.861 287.627 319.747 288.385 317.553 288.793C307.73 291.815 307.038 306.886 311.342 314.954C312.194 315.168 313.096 315.04 313.857 314.599C314.532 314.009 313.401 312.473 313.654 311.612C314.788 307.899 315.218 304.006 314.92 300.135C314.802 298.667 314.684 296.945 315.764 295.983C317.62 294.296 320.827 296.557 322.92 295.258C324.608 294.228 324.743 291.426 326.582 290.684C327.73 290.228 329.03 290.819 330.262 290.684C333.215 290.245 333.401 286.279 332.169 284.22C331.293 282.934 330.139 281.861 328.793 281.08Z" fill="#FFC87C"/>
</g>
<path d="M302.11 273.57C300.042 272.277 297.69 271.506 295.258 271.325C290.447 271.325 286.279 274.954 284.051 279.257C282.176 282.753 281.511 286.771 282.161 290.684C282.507 292.62 283.297 294.451 284.468 296.032C285.639 297.613 287.16 298.902 288.912 299.798C289.945 300.352 291.121 300.581 292.287 300.456C293.792 300.138 295.144 299.317 296.118 298.127C298.684 295.426 299.123 292.219 301.013 289.3C302.532 286.937 305.874 287.916 308.101 286.363C313.654 282.464 305.587 275.494 302.11 273.57Z" fill="#FFB255"/>
<g style="mix-blend-mode:multiply" opacity="0.5">
<path d="M304.659 283.966C303.629 283.443 302.819 282.481 301.806 281.958C300.338 280.371 292.878 279.544 291.308 289.941C290.99 291.538 290.358 293.055 289.448 294.405C288.538 295.756 287.369 296.911 286.009 297.806C286.842 298.625 287.806 299.298 288.861 299.798C289.894 300.352 291.071 300.581 292.237 300.456C293.742 300.139 295.093 299.317 296.068 298.127C298.633 295.426 299.072 292.219 300.962 289.3C302.481 286.937 305.823 287.916 308.051 286.363C308.779 285.932 309.365 285.299 309.739 284.54C308.902 284.826 308.013 284.923 307.134 284.824C306.256 284.725 305.41 284.432 304.659 283.966Z" fill="#FFC87C"/>
</g>
<path d="M299.73 546.835C306.295 548.422 311.798 550.363 314.802 553.063H289.485L289.975 547.19L299.73 546.835Z" fill="#F9714E"/>
<path d="M322.363 546.835C328.928 548.422 334.43 550.363 337.452 553.063H312.236L312.726 547.19L322.363 546.835Z" fill="#F9714E"/>
<g style="mix-blend-mode:multiply" opacity="0.1">
<path d="M388.051 334.599L387.511 334.363C386.566 334.11 385.688 334.768 384.895 335.342C383.097 336.69 381.404 338.174 379.832 339.781C379.462 340.099 379.133 340.462 378.853 340.861C378.386 341.485 378.108 342.23 378.051 343.008C377.994 343.786 378.161 344.563 378.532 345.249C378.854 345.773 379.299 346.209 379.828 346.521C380.358 346.833 380.956 347.011 381.57 347.038C383.575 346.97 385.477 346.136 386.886 344.709C387.413 344.086 387.719 343.307 387.759 342.493C387.799 341.678 387.569 340.874 387.106 340.203C386.876 339.735 386.549 339.322 386.148 338.99C385.746 338.659 385.279 338.416 384.777 338.279C385.852 337.64 386.864 336.9 387.798 336.068C388.029 335.882 388.214 335.645 388.338 335.376C388.386 335.233 388.384 335.078 388.332 334.937C388.28 334.795 388.18 334.676 388.051 334.599Z" fill="black"/>
</g>
<path d="M387.443 338.262C387.904 338.935 388.131 339.74 388.088 340.555C388.046 341.369 387.736 342.147 387.207 342.768C385.8 344.198 383.896 345.032 381.891 345.097C381.281 345.069 380.688 344.893 380.161 344.584C379.635 344.275 379.192 343.843 378.869 343.325C378.498 342.64 378.33 341.864 378.383 341.087C378.437 340.31 378.711 339.564 379.173 338.937C381.013 336.253 385.57 334.768 387.443 338.262Z" fill="#FFC2D3"/>
<path d="M384.456 336.76C385.795 336.045 387.046 335.179 388.186 334.177C388.418 333.996 388.598 333.758 388.709 333.485C388.769 333.349 388.778 333.196 388.734 333.054C388.691 332.911 388.598 332.789 388.473 332.709C388.303 332.62 388.129 332.541 387.95 332.473C387.469 332.433 386.984 332.5 386.532 332.669C386.08 332.838 385.671 333.106 385.334 333.452C383.536 334.801 381.843 336.285 380.271 337.89C381.736 337.852 383.171 337.465 384.456 336.76Z" fill="#FFC2D3"/>
<path d="M352.237 360C361.156 353.786 369.617 346.939 377.553 339.511C377.682 339.398 377.833 339.312 377.996 339.258C378.158 339.204 378.33 339.183 378.501 339.195C378.672 339.208 378.839 339.254 378.992 339.331C379.145 339.409 379.281 339.515 379.393 339.646C380.946 341.485 383.494 344.253 383.224 345.418C383.023 346.059 382.663 346.64 382.178 347.106L358.363 373.502C356.897 375.304 355.194 376.899 353.3 378.245C352.338 378.911 351.253 379.378 350.108 379.618C348.963 379.859 347.782 379.868 346.633 379.646C342.819 378.7 340.676 374.768 338.6 371.426C328.338 354.954 330.026 349.013 331.292 343.933C332.152 340.405 333.266 336.911 333.891 333.333C334.093 332.203 331.393 325.907 332.929 325.823C337.57 331.224 344.507 347.764 349.249 359.089C349.371 359.358 349.548 359.599 349.77 359.794C349.992 359.99 350.254 360.135 350.536 360.222C350.819 360.308 351.117 360.333 351.41 360.295C351.704 360.256 351.985 360.156 352.237 360Z" fill="#F9714E"/>
<path d="M278.161 412.658L290.093 548C291.939 548.429 293.811 548.739 295.697 548.928C296.828 548.857 297.955 548.722 299.072 548.523L301.654 548L301.772 445.705H311.646L312.794 548C314.786 548.505 316.831 548.777 318.886 548.81C321.107 548.747 323.316 548.476 325.486 548L339.798 409.198L278.161 412.658Z" fill="#4B48B5"/>
<path d="M308.861 422.802C308.861 427.392 308.608 431.527 310.211 435.696C310.809 437.341 311.926 438.747 313.394 439.7C314.862 440.654 316.601 441.102 318.346 440.979C324.254 440.861 328.355 437.603 328.372 431.679C328.372 430.903 328.76 422.819 329.148 422.802H308.861Z" fill="#568EDB"/>
<path d="M280.827 422.819C280.613 427.136 280.948 431.463 281.823 435.696C282.717 438.954 284.709 441.097 287.528 441.03C291.646 440.945 293.941 436.371 294.464 431.764C294.566 431.004 294.701 422.92 294.971 422.903L280.827 422.819Z" fill="#568EDB"/>
<path d="M301.688 445.688C301.719 445.684 301.749 445.673 301.776 445.658C301.804 445.642 301.827 445.621 301.846 445.595C301.865 445.57 301.879 445.542 301.886 445.511C301.894 445.481 301.895 445.449 301.891 445.418C300.304 436.22 301.401 418.616 301.401 418.414C301.416 418.385 301.424 418.353 301.424 418.321C301.424 418.288 301.416 418.257 301.401 418.228C301.342 418.204 301.275 418.204 301.216 418.228C301.047 418.228 285.283 418.971 278.667 417.3C278.637 417.289 278.605 417.286 278.574 417.289C278.542 417.292 278.512 417.302 278.485 417.318C278.458 417.334 278.434 417.356 278.416 417.382C278.398 417.408 278.386 417.437 278.38 417.468C278.37 417.499 278.366 417.532 278.369 417.565C278.372 417.597 278.382 417.629 278.398 417.657C278.414 417.686 278.435 417.711 278.461 417.731C278.487 417.75 278.517 417.765 278.549 417.772C284.743 419.342 298.802 418.819 300.962 418.734C300.827 421.013 299.983 436.928 301.469 445.553C301.49 445.593 301.521 445.627 301.56 445.65C301.599 445.674 301.643 445.687 301.688 445.688Z" fill="#5E9CE4"/>
<path d="M303.662 445.688C303.727 445.679 303.785 445.647 303.826 445.596C303.867 445.546 303.887 445.482 303.882 445.418C302.965 436.557 302.852 427.632 303.544 418.751C314.962 418.463 326.337 417.232 337.553 415.072C337.585 415.068 337.617 415.058 337.645 415.041C337.673 415.023 337.696 415 337.714 414.973C337.732 414.945 337.744 414.914 337.748 414.882C337.752 414.849 337.749 414.816 337.738 414.785C337.735 414.752 337.724 414.721 337.707 414.693C337.69 414.665 337.667 414.641 337.639 414.623C337.612 414.606 337.581 414.594 337.548 414.59C337.516 414.586 337.483 414.589 337.452 414.599C326.208 416.761 314.805 417.986 303.359 418.262C303.3 418.265 303.244 418.289 303.201 418.329C303.158 418.369 303.13 418.423 303.122 418.481C302.404 427.473 302.512 436.513 303.443 445.485C303.453 445.538 303.48 445.586 303.52 445.622C303.559 445.659 303.609 445.682 303.662 445.688Z" fill="#5E9CE4"/>
<g style="mix-blend-mode:multiply" opacity="0.16">
<g style="mix-blend-mode:multiply" opacity="0.16">
<path d="M298.987 548.523L301.57 548L301.688 445.705H302.515C302.479 445.632 302.429 445.567 302.368 445.514C302.307 445.461 302.235 445.421 302.158 445.395C302.081 445.37 302 445.361 301.919 445.367C301.838 445.374 301.76 445.397 301.688 445.435C300.013 446.302 298.611 447.616 297.637 449.232C296.683 450.52 296.147 452.069 296.101 453.671C295.359 485.215 297.148 509.215 298.987 548.523Z" fill="#4E84D9"/>
</g>
</g>
<path d="M324.389 545.148C324.324 545.139 324.266 545.107 324.225 545.056C324.184 545.006 324.164 544.942 324.169 544.878L324.372 542.852C324.386 542.799 324.418 542.751 324.462 542.717C324.506 542.683 324.561 542.664 324.616 542.664C324.672 542.664 324.727 542.683 324.771 542.717C324.815 542.751 324.847 542.799 324.861 542.852L324.659 544.878C324.65 544.939 324.62 544.995 324.574 545.035C324.527 545.076 324.467 545.098 324.405 545.097L324.389 545.148ZM324.996 539.19C324.932 539.182 324.874 539.149 324.833 539.099C324.792 539.048 324.772 538.984 324.777 538.92L325.182 534.988C325.181 534.954 325.188 534.921 325.202 534.89C325.216 534.859 325.237 534.832 325.263 534.811C325.289 534.79 325.32 534.775 325.352 534.768C325.385 534.76 325.419 534.76 325.452 534.768C325.516 534.777 325.575 534.809 325.615 534.859C325.656 534.91 325.676 534.974 325.671 535.038L325.266 538.971C325.258 539.032 325.228 539.088 325.181 539.128C325.134 539.169 325.075 539.191 325.013 539.19H324.996ZM325.789 531.325C325.725 531.317 325.667 531.284 325.626 531.234C325.585 531.183 325.565 531.12 325.57 531.055L325.975 527.123C325.975 526.987 326.127 526.869 326.245 526.903C326.309 526.912 326.368 526.944 326.409 526.994C326.449 527.045 326.469 527.109 326.465 527.173L326.059 531.106C326.055 531.165 326.028 531.221 325.985 531.262C325.941 531.303 325.883 531.325 325.823 531.325H325.789ZM326.6 523.46C326.535 523.452 326.477 523.419 326.436 523.369C326.395 523.318 326.375 523.255 326.38 523.19L326.785 519.258C326.787 519.225 326.796 519.193 326.811 519.164C326.826 519.135 326.847 519.109 326.872 519.089C326.897 519.068 326.927 519.053 326.958 519.044C326.99 519.035 327.023 519.033 327.055 519.038C327.119 519.047 327.178 519.079 327.219 519.129C327.259 519.18 327.28 519.244 327.275 519.308L326.87 523.241C326.867 523.272 326.859 523.302 326.845 523.33C326.831 523.358 326.812 523.383 326.789 523.403C326.765 523.423 326.738 523.439 326.708 523.449C326.679 523.459 326.647 523.462 326.616 523.46H326.6ZM327.41 515.595C327.346 515.587 327.287 515.554 327.246 515.504C327.205 515.454 327.185 515.39 327.19 515.325L327.578 511.393C327.578 511.258 327.73 511.139 327.848 511.173C327.913 511.182 327.971 511.214 328.012 511.264C328.053 511.315 328.073 511.379 328.068 511.443L327.68 515.376C327.678 515.407 327.669 515.437 327.655 515.465C327.642 515.493 327.622 515.518 327.599 515.538C327.575 515.558 327.548 515.574 327.518 515.584C327.489 515.594 327.458 515.597 327.427 515.595H327.41ZM328.203 507.73C328.17 507.728 328.138 507.719 328.109 507.704C328.08 507.689 328.055 507.669 328.034 507.643C328.013 507.618 327.998 507.588 327.989 507.557C327.981 507.525 327.979 507.492 327.984 507.46L328.389 503.528C328.391 503.495 328.399 503.463 328.414 503.434C328.429 503.405 328.45 503.379 328.475 503.359C328.501 503.338 328.53 503.323 328.562 503.314C328.593 503.305 328.626 503.303 328.659 503.308C328.723 503.317 328.781 503.349 328.822 503.399C328.863 503.45 328.883 503.514 328.878 503.578L328.473 507.511C328.473 507.541 328.467 507.571 328.455 507.599C328.443 507.626 328.425 507.651 328.403 507.672C328.381 507.693 328.354 507.708 328.326 507.718C328.297 507.728 328.267 507.732 328.237 507.73H328.203ZM329.013 499.865C328.98 499.863 328.949 499.854 328.919 499.839C328.89 499.824 328.865 499.804 328.844 499.778C328.823 499.753 328.808 499.723 328.8 499.692C328.791 499.66 328.789 499.627 328.794 499.595L329.199 495.679C329.198 495.646 329.205 495.612 329.219 495.582C329.233 495.551 329.254 495.524 329.28 495.503C329.306 495.482 329.336 495.467 329.369 495.46C329.402 495.452 329.436 495.452 329.469 495.46C329.501 495.462 329.533 495.471 329.562 495.486C329.591 495.501 329.617 495.521 329.638 495.547C329.658 495.572 329.673 495.602 329.682 495.633C329.691 495.665 329.693 495.698 329.688 495.73L329.283 499.646C329.279 499.71 329.25 499.77 329.203 499.814C329.156 499.858 329.094 499.882 329.03 499.882L329.013 499.865ZM329.806 492.017C329.742 492.009 329.684 491.976 329.643 491.926C329.602 491.875 329.582 491.811 329.587 491.747L329.992 487.814C329.992 487.679 330.144 487.544 330.262 487.595C330.295 487.597 330.326 487.606 330.356 487.621C330.385 487.636 330.41 487.656 330.431 487.682C330.452 487.707 330.467 487.737 330.475 487.768C330.484 487.8 330.486 487.833 330.481 487.865L330.076 491.798C330.072 491.857 330.045 491.913 330.001 491.954C329.958 491.995 329.9 492.017 329.84 492.017H329.806ZM330.616 484.152C330.552 484.144 330.494 484.111 330.453 484.061C330.412 484.01 330.392 483.947 330.397 483.882L330.802 479.949C330.801 479.916 330.808 479.882 330.822 479.852C330.836 479.821 330.857 479.794 330.883 479.773C330.909 479.752 330.94 479.737 330.973 479.73C331.005 479.722 331.039 479.722 331.072 479.73C331.136 479.738 331.195 479.771 331.236 479.821C331.276 479.872 331.296 479.936 331.291 480L330.886 483.933C330.878 483.994 330.848 484.05 330.801 484.09C330.755 484.131 330.695 484.153 330.633 484.152H330.616ZM331.427 476.287C331.362 476.279 331.304 476.246 331.263 476.196C331.222 476.145 331.202 476.082 331.207 476.017L331.595 472.084C331.597 472.053 331.606 472.023 331.62 471.995C331.633 471.967 331.653 471.943 331.676 471.922C331.7 471.902 331.727 471.886 331.757 471.876C331.786 471.867 331.817 471.863 331.848 471.865C331.913 471.873 331.971 471.906 332.012 471.956C332.053 472.007 332.073 472.071 332.068 472.135L331.68 476.068C331.671 476.129 331.641 476.185 331.595 476.225C331.548 476.266 331.488 476.288 331.427 476.287ZM332.22 468.422C332.156 468.414 332.097 468.381 332.056 468.331C332.016 468.28 331.996 468.217 332 468.152L332.405 464.219C332.405 464.084 332.557 463.966 332.675 464C332.74 464.009 332.798 464.041 332.839 464.091C332.88 464.142 332.9 464.206 332.895 464.27L332.49 468.203C332.49 468.233 332.484 468.263 332.472 468.291C332.46 468.318 332.442 468.343 332.42 468.364C332.398 468.385 332.371 468.4 332.343 468.41C332.314 468.42 332.284 468.424 332.254 468.422H332.22ZM333.03 460.557C332.966 460.549 332.907 460.516 332.866 460.466C332.826 460.415 332.806 460.352 332.81 460.287L333.216 456.355C333.215 456.321 333.221 456.288 333.235 456.257C333.25 456.226 333.27 456.199 333.297 456.178C333.323 456.157 333.353 456.142 333.386 456.135C333.419 456.127 333.453 456.127 333.486 456.135C333.55 456.144 333.608 456.176 333.649 456.226C333.69 456.277 333.71 456.341 333.705 456.405L333.3 460.338C333.298 460.369 333.29 460.399 333.276 460.427C333.262 460.455 333.242 460.48 333.219 460.5C333.195 460.52 333.168 460.536 333.139 460.546C333.109 460.555 333.078 460.559 333.047 460.557H333.03ZM333.823 452.709C333.758 452.697 333.699 452.661 333.658 452.608C333.618 452.555 333.598 452.488 333.604 452.422L334.009 448.49C334.009 448.371 334.144 448.236 334.279 448.27C334.343 448.279 334.401 448.311 334.442 448.361C334.483 448.412 334.503 448.476 334.498 448.54L334.178 452.49C334.178 452.552 334.153 452.612 334.108 452.657C334.064 452.701 334.004 452.726 333.941 452.726L333.823 452.709ZM334.633 444.844C334.569 444.836 334.511 444.803 334.47 444.753C334.429 444.702 334.409 444.638 334.414 444.574L334.819 440.641C334.819 440.506 334.971 440.388 335.089 440.422C335.122 440.424 335.153 440.433 335.183 440.448C335.212 440.463 335.237 440.483 335.258 440.509C335.279 440.534 335.294 440.564 335.302 440.595C335.311 440.627 335.313 440.66 335.308 440.692L334.903 444.625C334.895 444.686 334.865 444.742 334.818 444.782C334.772 444.823 334.712 444.845 334.65 444.844H334.633ZM335.443 436.979C335.379 436.971 335.321 436.938 335.28 436.888C335.239 436.837 335.219 436.773 335.224 436.709L335.612 432.776C335.612 432.641 335.764 432.506 335.882 432.557C335.946 432.565 336.005 432.598 336.046 432.648C336.086 432.699 336.106 432.763 336.102 432.827L335.713 436.76C335.702 436.819 335.671 436.873 335.625 436.913C335.579 436.953 335.521 436.976 335.46 436.979H335.443ZM336.237 429.114C336.172 429.106 336.114 429.073 336.073 429.023C336.032 428.972 336.012 428.908 336.017 428.844L336.422 424.911C336.424 424.879 336.433 424.847 336.448 424.818C336.463 424.789 336.484 424.763 336.509 424.742C336.535 424.722 336.564 424.707 336.595 424.698C336.627 424.689 336.66 424.687 336.692 424.692C336.756 424.7 336.815 424.733 336.856 424.783C336.897 424.834 336.917 424.898 336.912 424.962L336.507 428.895C336.499 428.953 336.471 429.007 336.428 429.047C336.385 429.087 336.329 429.111 336.27 429.114H336.237ZM337.047 421.249C336.983 421.241 336.924 421.208 336.883 421.158C336.843 421.107 336.822 421.043 336.827 420.979L337.232 417.046C337.236 417.011 337.249 416.977 337.269 416.948C337.29 416.918 337.317 416.894 337.348 416.877C337.38 416.861 337.415 416.852 337.451 416.852C337.486 416.852 337.522 416.861 337.553 416.878C337.617 416.886 337.676 416.919 337.717 416.969C337.757 417.019 337.777 417.083 337.773 417.148L337.367 421.08C337.365 421.111 337.357 421.142 337.343 421.169C337.329 421.197 337.31 421.222 337.286 421.243C337.263 421.263 337.236 421.278 337.206 421.288C337.177 421.298 337.145 421.302 337.114 421.3L337.047 421.249Z" fill="#5E9CE4"/>
<path d="M302.616 321.3C283.089 325.789 268.355 373.739 242.228 370.549V379.089C254.464 379.089 271.156 375.173 284.844 356.422C304.625 329.3 302.616 321.3 302.616 321.3Z" fill="#F9714E"/>
<g style="mix-blend-mode:multiply" opacity="0.3">
<path d="M302.616 321.3C283.089 325.789 268.355 373.739 242.228 370.549V379.089C254.464 379.089 271.156 375.173 284.844 356.422C304.625 329.3 302.616 321.3 302.616 321.3Z" fill="#F9714E"/>
</g>
<path d="M332.861 325.739C344.861 339.477 343.849 409.148 345.216 452.422C323.612 456.962 300.439 456.76 276.186 453.266C276.186 453.266 272.406 383.544 284.625 344.051C292.811 317.3 320.22 311.291 332.861 325.739Z" fill="#F9714E"/>
<g style="mix-blend-mode:multiply" opacity="0.3">
<path d="M292.709 417.671C288.31 402.978 286.137 387.708 286.262 372.371C286.262 359.443 286.616 345.367 290.008 332.625C287.627 336.156 285.789 340.024 284.557 344.101C272.405 383.595 276.118 453.316 276.118 453.316C288.002 455.086 300.002 455.95 312.017 455.899C303.261 444.467 296.713 431.503 292.709 417.671Z" fill="#F9714E"/>
</g>
<path d="M101.924 304.034C103.612 303.933 115.713 295.038 120.338 292.034C121.692 291.27 122.889 290.256 123.865 289.046C124.351 288.438 124.67 287.712 124.788 286.942C124.907 286.172 124.821 285.385 124.54 284.658C124.09 283.567 123.3 282.65 122.288 282.042C121.276 281.434 120.095 281.168 118.92 281.283C112.928 281.283 110.852 283.257 107.95 286.262C98.3124 296.135 101.924 304.034 101.924 304.034Z" fill="#00AD9F"/>
<path d="M155.798 339.933C161.03 342.279 166.633 344.625 172.321 343.899C174.515 343.612 176.929 342.599 177.671 340.523C177.889 339.606 177.847 338.646 177.549 337.751C177.25 336.857 176.708 336.063 175.983 335.46C174.51 334.288 172.771 333.494 170.92 333.148C163.967 331.46 154.178 332.388 147.292 334.346C149.968 336.439 152.814 338.308 155.798 339.933Z" fill="#00AD9F"/>
<path d="M190.262 262.65C187.933 261.182 185.351 259.274 185.351 256.439C185.351 253.603 188.237 251.561 191.005 251.561C193.806 251.753 196.444 252.952 198.431 254.937C207.224 262.667 206.127 271.477 206.127 271.477C206.127 271.477 192.861 264.287 190.262 262.65Z" fill="#00AD9F"/>
<path d="M197.198 239.072C195.074 238.354 193.208 237.027 191.831 235.257C191.516 234.816 191.304 234.309 191.21 233.775C191.117 233.24 191.145 232.691 191.291 232.169C191.882 230.481 192.979 228.911 197.283 229.688C210.937 232.169 213.924 241.502 213.924 241.502C213.924 241.502 200.844 240.641 197.198 239.072Z" fill="#00AD9F"/>
<path d="M237.232 259.781C242.895 259.3 248.14 256.608 251.832 252.287C253.217 250.727 254.222 248.866 254.768 246.852C255.025 245.844 255.013 244.787 254.731 243.785C254.45 242.784 253.909 241.874 253.165 241.148C252.135 240.407 250.898 240.009 249.629 240.009C248.36 240.009 247.124 240.407 246.093 241.148C244.061 242.686 242.481 244.745 241.519 247.106C240.051 250.144 237.232 259.781 237.232 259.781Z" fill="#00AD9F"/>
<path d="M139.359 459.629L99.5786 424.54C92.5069 418.295 85.2832 411.882 80.8107 403.595C71.1735 385.755 76.7263 362.582 89.7389 347.038C102.752 331.494 121.756 322.363 140.895 315.612C160.034 308.861 179.95 304.236 198.279 295.359C209.722 289.806 221.216 281.553 224.355 269.232C225.304 265.518 225.421 261.64 224.698 257.875C223.975 254.111 222.43 250.552 220.173 247.453C217.916 244.355 215.003 241.792 211.641 239.95C208.279 238.107 204.553 237.029 200.726 236.793" stroke="#086356" stroke-linecap="round" stroke-linejoin="round"/>
<path d="M246.515 247.055C242.886 258.194 228.76 264.962 222.312 274.616" stroke="#086356" stroke-linecap="round" stroke-linejoin="round"/>
<path d="M195.781 259.916C198.566 262.852 201.89 265.283 204.321 268.506C209.384 275.342 209.874 286.464 202.279 293.35" stroke="#086356" stroke-linecap="round" stroke-linejoin="round"/>
<path d="M124.321 322.194C136.39 331.492 150.984 336.933 166.194 337.806" stroke="#086356" stroke-linecap="round" stroke-linejoin="round"/>
<path d="M97.5192 338.633C94.9895 330.617 94.962 322.02 97.4405 313.987C99.919 305.955 104.786 298.868 111.393 293.671" stroke="#086356" stroke-linecap="round" stroke-linejoin="round"/>
<path d="M561.536 120.253C561.144 119.293 561.015 118.245 561.163 117.219C561.312 116.192 561.732 115.224 562.38 114.414C562.959 113.815 563.7 113.398 564.513 113.215C565.325 113.032 566.174 113.091 566.954 113.384C578.566 118.447 577.317 136.658 577.317 136.658C577.317 136.658 566.295 135.021 561.536 120.253Z" fill="#00AD9F"/>
<path d="M561.249 154.279C553.739 167.899 580.439 166.852 590.059 158.835C590.059 158.835 567.713 142.565 561.249 154.279Z" fill="#00AD9F"/>
<path d="M594.987 121.3C593.182 118.802 592.54 115.089 594.515 112.726C595.314 111.887 596.318 111.272 597.429 110.943C598.54 110.615 599.717 110.583 600.844 110.852C603.559 111.592 606.006 113.091 607.899 115.173C610.435 118.106 612.19 121.631 613.001 125.422C613.812 129.213 613.654 133.147 612.54 136.861C612.54 136.861 597.958 125.367 594.987 121.3Z" fill="#00AD9F"/>
<path d="M700.979 155.004C700.583 153.966 700.48 152.839 700.682 151.746C700.885 150.653 701.385 149.637 702.127 148.81C702.665 148.363 703.287 148.027 703.957 147.824C704.626 147.622 705.33 147.555 706.026 147.629C707.418 147.798 708.77 148.203 710.026 148.827C712.727 150.088 714.901 152.256 716.169 154.954C719.545 161.705 717.233 170.144 717.233 170.144C717.233 170.144 702.6 160.338 700.979 155.004Z" fill="#00AD9F"/>
<path d="M667.646 179.983C665.248 177.916 662.324 176.553 659.199 176.046C656.074 175.54 652.869 175.909 649.941 177.114C648.454 177.719 647.15 178.702 646.161 179.966C644.051 182.903 644.794 187.173 646.988 190.093C649.371 192.811 652.384 194.903 655.764 196.186C661.705 198.886 670.954 199.426 677.232 201.046C677.232 200.996 677.216 188.405 667.646 179.983Z" fill="#00AD9F"/>
<path d="M569.857 123.207C573.773 136.101 584.895 145.84 597.266 151.089C609.637 156.338 623.258 157.84 636.675 158.616C650.093 159.393 663.68 159.916 676.625 163.46C689.266 166.836 701.84 174.059 707.274 186.025C713.874 200.574 708.034 217.975 698.751 230.987C689.469 244 677.013 254.481 668.051 267.696C663.933 273.772 660.49 280.878 661.3 288.169C662.414 297.89 670.582 305.047 678.177 311.207" stroke="#086356" stroke-linecap="round" stroke-linejoin="round"/>
<path d="M600.844 118.447C610.201 129.389 616.31 142.73 618.481 156.962" stroke="#086356" stroke-linecap="round" stroke-linejoin="round"/>
<path d="M570.887 156.54C575.908 158.109 581.109 159.028 586.364 159.274C592.055 158.984 597.45 156.646 601.553 152.692" stroke="#086356" stroke-linecap="round" stroke-linejoin="round"/>
<path d="M709.671 155.798C714.469 160.488 717.3 166.832 717.586 173.536C717.823 180.169 714.211 188.22 709.755 193.165" stroke="#086356" stroke-linecap="round" stroke-linejoin="round"/>
<path d="M659.916 185.907C668.801 194.342 678.258 202.152 688.22 209.283C693.047 212.658 702.633 217.047 706.886 215.916" stroke="#086356" stroke-linecap="round" stroke-linejoin="round"/>
</g>
<defs>
<clipPath id="clip0">
<rect width="800" height="611.443" fill="white"/>
</clipPath>
</defs>
</svg>
