<svg width="50" height="50" viewBox="0 0 50 50" fill="none" xmlns="http://www.w3.org/2000/svg">
<g clip-path="url(#clip0)">
<path d="M25 50C38.8071 50 50 38.8071 50 25C50 11.1929 38.8071 0 25 0C11.1929 0 0 11.1929 0 25C0 38.8071 11.1929 50 25 50Z" fill="#B0E1FF"/>
<path d="M40.0972 28.1741C40.3218 27.1194 40.4487 26.0256 40.4487 24.9026C40.4487 16.3772 33.5347 9.45337 24.9995 9.45337C23.8765 9.45337 22.7827 9.57056 21.728 9.80493C20.4976 9.14087 19.0913 8.76978 17.6069 8.76978C12.7827 8.76978 8.87646 12.676 8.87646 17.5002C8.87646 18.9944 9.24756 20.4006 9.91162 21.6213C9.68701 22.676 9.56006 23.7698 9.56006 24.8928C9.56006 33.4182 16.4741 40.342 25.0093 40.342C26.1323 40.342 27.2261 40.2249 28.2808 39.9905C29.5112 40.6545 30.9175 41.0256 32.4019 41.0256C37.2261 41.0256 41.1323 37.1194 41.1323 32.2952C41.1323 30.8108 40.7515 29.4045 40.0972 28.1741Z" fill="#41A0D7"/>
<path d="M29.8628 20.1658C29.2085 19.5115 27.0112 18.3884 25.0093 18.3884C23.4663 18.3884 22.1382 18.8767 22.1382 20.4197C22.1382 22.031 24.0327 22.4314 26.2593 22.988C29.4917 23.8572 32.06 24.824 32.06 28.3298C32.06 29.2966 31.8745 30.1267 31.5132 30.8103C31.1518 31.4939 30.6538 32.0505 30.0385 32.4802C27.7339 34.0623 24.0718 33.9255 21.3569 33.0857C20.0386 32.6755 18.8472 32.0994 17.8022 31.3572L19.355 28.3298C19.6968 28.6716 21.2593 29.7361 23.3979 30.283C24.9995 30.6931 28.3296 30.908 28.3296 28.6814C28.3296 27.3826 26.9429 26.8162 25.5854 26.4158C22.0405 25.3709 18.5444 24.824 18.5444 20.9763C18.5444 17.2849 21.4741 15.3025 25.1264 15.3025C26.396 15.3025 27.5679 15.4978 28.6323 15.8982C29.6968 16.2986 30.6342 16.7673 31.4253 17.3044L29.8628 20.1658Z" fill="white"/>
</g>
<defs>
<clipPath id="clip0">
<rect width="50" height="50" fill="white"/>
</clipPath>
</defs>
</svg>
