<svg width="50" height="50" viewBox="0 0 50 50" fill="none" xmlns="http://www.w3.org/2000/svg">
<path d="M25 50C38.8071 50 50 38.8071 50 25C50 11.1929 38.8071 0 25 0C11.1929 0 0 11.1929 0 25C0 38.8071 11.1929 50 25 50Z" fill="#039BE5"/>
<path d="M11.4404 24.4583L35.5445 15.1645C36.6633 14.7604 37.6404 15.4374 37.2779 17.1291L37.28 17.127L33.1758 36.4624C32.8716 37.8333 32.057 38.1666 30.9175 37.5208L24.6675 32.9145L21.6529 35.8187C21.3195 36.152 21.0383 36.4333 20.3925 36.4333L20.8362 30.0729L32.4195 19.6083C32.9237 19.1645 32.307 18.9145 31.6425 19.3562L17.3279 28.3687L11.157 26.4437C9.81746 26.0187 9.78829 25.1041 11.4404 24.4583Z" fill="white"/>
</svg>
