<svg width="103" height="120" viewBox="0 0 103 120" fill="none" xmlns="http://www.w3.org/2000/svg">
<path d="M96.932 80.1354C93.7066 88.8769 88.8287 96.4776 82.4319 102.724C75.1507 109.834 65.6164 115.484 54.0936 119.514C53.7155 119.646 53.3209 119.754 52.9244 119.834C52.4008 119.937 51.8679 119.993 51.3397 120H51.2362C50.6732 120 50.1074 119.943 49.5461 119.834C49.1497 119.754 48.7606 119.646 48.3843 119.517C36.8478 115.493 27.3016 109.846 20.013 102.736C13.6135 96.4895 8.73648 88.8933 5.51566 80.1519C-0.340976 64.2583 -0.00772364 46.7498 0.260526 32.6799L0.265104 32.4639C0.31912 31.3021 0.35391 30.0817 0.373136 28.734C0.471097 22.1175 5.73172 16.6436 12.3492 16.2746C26.1462 15.5046 36.8194 11.0048 45.939 2.11596L46.0186 2.04272C47.5329 0.653866 49.4409 -0.0272859 51.3397 0.0010956C53.1707 0.0248994 54.9945 0.705136 56.4547 2.04272L56.5325 2.11596C65.6539 11.0048 76.3272 15.5046 90.1242 16.2746C96.7416 16.6436 102.002 22.1175 102.1 28.734C102.119 30.0908 102.154 31.3094 102.208 32.4639L102.211 32.5554C102.478 46.6518 102.81 64.1951 96.932 80.1354Z" fill="#00AAE1"/>
<path d="M96.9322 80.1353C93.7068 88.8768 88.8289 96.4775 82.4321 102.724C75.1509 109.834 65.6166 115.484 54.0938 119.514C53.7156 119.646 53.321 119.754 52.9246 119.834C52.4009 119.937 51.8681 119.993 51.3398 120V0.000976562C53.1709 0.0247804 54.9946 0.705017 56.4549 2.0426L56.5327 2.11585C65.6541 11.0047 76.3273 15.5045 90.1243 16.2745C96.7418 16.6434 102.002 22.1174 102.1 28.7339C102.12 30.0907 102.154 31.3093 102.208 32.4638L102.211 32.5553C102.478 46.6517 102.81 64.1951 96.9322 80.1353Z" fill="#0393C1"/>
<path d="M81.1413 60.0004C81.1413 76.4552 67.781 89.8494 51.34 89.908H51.2347C34.7451 89.908 21.3271 76.4909 21.3271 60.0004C21.3271 43.5108 34.7451 30.0938 51.2347 30.0938H51.34C67.781 30.1523 81.1413 43.5465 81.1413 60.0004Z" fill="white"/>
<path d="M81.1412 60.0004C81.1412 76.4552 67.7809 89.8494 51.3398 89.908V30.0938C67.7809 30.1523 81.1412 43.5465 81.1412 60.0004Z" fill="#CAF2FF"/>
<path d="M64.8092 55.6935L51.34 69.1646L48.4295 72.0751C47.742 72.7626 46.8402 73.106 45.9393 73.106C45.0375 73.106 44.1366 72.7626 43.4482 72.0751L37.1905 65.8147C35.8154 64.4396 35.8154 62.2121 37.1905 60.8361C38.5638 59.4609 40.794 59.4609 42.1692 60.8361L45.9393 64.6062L59.8306 50.7149C61.2057 49.3389 63.4359 49.3389 64.8092 50.7149C66.1844 52.09 66.1844 54.3202 64.8092 55.6935Z" fill="#B4D2D7"/>
<path d="M64.8091 55.6935L51.3398 69.1646V59.2046L59.8305 50.7149C61.2056 49.3389 63.4358 49.3389 64.8091 50.7149C66.1842 52.09 66.1842 54.3202 64.8091 55.6935Z" fill="#6FA5AA"/>
</svg>
